<svg width="115px" height="136px" viewBox="0 0 115 136" version="1.1" xmlns="http://www.w3.org/2000/svg" xmlns:xlink="http://www.w3.org/1999/xlink">
    <!-- Generator: Sketch 48.2 (47327) - http://www.bohemiancoding.com/sketch -->
    <title>agenda</title>
    <desc>Created with Sketch.</desc>
    <defs></defs>
    <g id="06.Para-produtoes" stroke="none" stroke-width="1" fill="none" fill-rule="evenodd" transform="translate(-663.000000, -1401.000000)">
        <g id="agendaIcon" transform="translate(90.000000, 727.000000)" fill="#E45D57">
            <g id="agenda" transform="translate(426.000000, 648.000000)">
                <g transform="translate(147.000000, 26.000000)" id="Fill-4">
                    <path d="M53.0137763,77.5337579 C55.8158345,74.6822096 58.7620703,72.0188619 61.9833403,69.5969355 C64.5095807,67.6979601 66.5923187,65.2282123 68.8842707,63.0245678 C69.4022126,62.5262989 69.9021324,61.8151472 70.5282075,61.6570278 C72.9447477,61.046147 74.7955479,59.5544255 76.5554536,58.0017702 C78.6687509,56.1390465 81.2130135,55.4579762 83.8442528,54.9018587 C86.1589284,54.4136168 88.4783055,53.9192045 90.8180555,53.5790549 C91.9550204,53.4139937 93.1444847,53.5875394 94.3096583,53.6222485 C94.8902861,53.6399888 95.4771826,53.6461593 96.0507583,53.7310038 C98.0520046,54.0279598 98.686699,55.437922 97.533279,57.0553677 C96.8891817,57.9593479 96.1643764,58.7314333 94.9694271,59.0461295 C90.2640692,60.282546 86.4715742,63.1456641 82.6101248,65.883058 C82.0710264,66.2656298 81.4676749,66.605008 80.8423834,66.8163481 C78.8387863,67.4935619 77.5623454,68.8341058 76.5773937,70.6621203 C74.5542073,74.4176488 72.0569591,77.7913768 68.6194229,80.5125731 C66.4794841,82.2063789 64.7462199,84.3922832 62.8037416,86.3321382 C59.8880652,89.2430777 56.7796298,91.9874134 54.0888389,95.0857823 C52.5483337,96.8590334 50.5627589,96.4949732 48.7746445,97.0464628 C48.3656193,97.172187 47.6517839,96.6839451 47.2137665,96.3198849 C44.7588312,94.2836156 42.3501268,92.1918116 39.916348,90.1308603 C36.6833244,87.3942377 34.573945,83.8554485 32.3423281,80.3444266 C30.2603737,77.0678842 28.0742041,73.7782294 24.9751716,71.2645166 C24.4141331,70.8094413 23.7527972,70.472377 23.1282892,70.0959757 C22.0258015,69.4318743 22.0148315,69.4187619 22.1574419,67.7334406 C24.9547987,67.0384865 27.7631255,66.3959819 30.6255189,67.5714646 C32.662026,66.6605426 34.3318208,68.1831167 36.1998596,68.4067978 C36.6120192,68.4561619 37.2757058,68.7122382 37.3399588,68.9845121 C37.8148043,70.9960993 39.9053779,71.7041657 40.8480167,73.37946 C41.7405067,74.9652818 43.1658266,76.2556904 44.3153287,77.7073036 C45.5071437,79.2129088 46.6495937,80.755537 48.0467049,82.5874081 C49.8175807,80.7863896 51.4152867,79.1596881 53.0137763,77.5337579 Z M37.0894373,52.9673136 C35.5342294,55.0445072 33.4569609,55.733265 30.9689419,55.5741409 C30.2211252,55.5257797 29.4521439,55.4571379 28.7207886,55.5694608 C27.0973836,55.8206273 25.6832733,55.2317121 24.5435191,54.2925678 C21.7168661,51.9649878 20.8161938,50.0079172 22.2624431,46.936978 C22.8589719,45.6694452 23.4084682,44.3792919 24.0214584,43.1187794 C24.3710666,42.3980408 24.6673713,41.4581165 23.8725222,41.1523486 C22.4803603,40.6156948 22.4811442,39.6406696 22.4145148,38.4885799 C22.3839437,37.9612863 21.9888707,37.4534932 21.8579636,37.1609856 C20.6625544,37.2405477 19.7085786,37.4316526 18.7836062,37.3388302 C16.8866288,37.1492853 16.183493,37.7475607 16.2806935,39.6250692 C16.5738627,45.2669549 17.0700556,50.8948001 16.7423959,56.5655465 C16.5762144,59.449281 16.9728551,62.3618761 17.0183198,65.263551 C17.0402683,66.655107 16.7682637,68.0490029 16.7557217,69.4428989 C16.7384765,71.4374104 16.8192156,73.434262 16.8897643,75.4287734 C17.0708394,80.5706662 17.2370209,85.7141189 17.468264,90.8536716 C17.7763269,97.6999083 18.1447481,104.543025 18.4731917,111.387702 C18.5084661,112.131841 18.4614336,112.88066 18.4426206,113.626359 C18.3916687,115.529609 18.3352297,117.433638 18.2795746,119.405529 C19.7759918,119.592733 20.9565075,119.83844 22.1425102,119.871201 C25.1165317,119.951543 28.0145173,121.621566 31.0543842,120.301772 C35.6486752,120.589599 40.017994,120.921108 44.3928,121.110653 C48.4908981,121.287717 52.5976188,121.280697 56.6980685,121.419541 C60.0585403,121.532644 63.4174444,121.745589 66.7771323,121.897693 C67.2960575,121.921094 67.8251731,121.889113 68.3409628,121.818911 C71.8166642,121.346999 75.2813914,120.813465 78.8143157,121.304098 C80.1006544,121.482722 81.4159966,121.443721 82.6725481,121.502223 C83.3913614,118.613808 82.9037912,116.001521 82.2304426,113.514037 C81.7413047,111.70361 81.4583258,109.489913 79.1223785,108.716133 C78.8676192,108.631891 78.6849763,108.174019 78.5728822,107.85421 C78.2060287,106.797283 78.4905753,105.867499 79.263476,104.964236 C79.8192433,105.071099 80.4322335,105.376087 80.9448877,105.256743 C84.0247323,104.537565 87.1947225,104.268458 89.9625849,102.337128 C92.8488123,100.321556 95.8016692,98.4432675 98.1932716,95.8161597 C99.0876729,94.8348944 99.6465757,93.7974676 99.7179083,92.4417926 C100.085546,85.4387718 100.529219,78.4396512 100.886666,71.4358504 C101.152399,66.2206357 101.184538,60.9898207 101.585098,55.7863064 C101.951952,51.0336437 102.655872,46.3059417 103.246129,41.5719995 C103.521269,39.3645425 103.877933,37.1680058 104.226757,34.7663238 C101.144561,34.4020544 98.3147722,33.9964439 95.169866,34.423895 C95.2490374,35.5619443 95.4316802,36.5104488 95.3556444,37.4378928 C95.1808403,39.5548674 95.9294408,40.8536009 98.1368326,41.2771519 C98.5099571,41.3481337 98.980282,42.1063133 99.0069338,42.5696452 C99.1033504,44.1998873 99.0610211,45.8426097 98.9912563,47.4759719 C98.9724433,47.9237034 98.6737869,48.3589547 98.4119727,49.0383522 C98.1242906,48.4626973 97.9800576,48.17643 97.7872244,47.7911 C97.5144359,48.0282261 97.2651637,48.1904703 97.0848724,48.409656 C94.9997651,50.9486215 92.487446,51.7458021 89.6020024,50.50167 C87.8304451,49.7380303 86.1239494,48.7552049 84.5303316,47.6655168 C82.4005435,46.2084392 81.9819543,42.830172 83.7550793,40.9846443 C84.8062556,39.8902761 84.7607909,38.7592469 84.6706453,37.4932742 C84.5138703,35.3037577 83.9087188,34.7460433 81.7209239,34.927788 C80.7598933,35.00735 79.8114046,35.3411986 78.8535094,35.356019 C76.6147626,35.3895599 74.375232,35.2694368 72.1364852,35.2678767 C68.8920269,35.2655367 68.891243,35.2865972 68.2962819,38.4838998 C69.3004257,40.1827836 70.2034496,41.5400186 70.9065854,42.9931962 C71.80569,44.8512041 71.2859809,47.0235602 69.7754539,48.4595773 C69.5214784,48.7021635 69.2290931,48.915109 69.0158791,49.1896761 C66.4855309,52.4587405 61.7564134,53.019575 58.5832877,50.4423885 C58.2007568,50.1311604 57.7037801,49.9462956 57.2412939,49.7458305 C55.3858619,48.9385096 53.6668242,47.9681646 52.2668236,46.4471253 C50.3996335,44.4182929 51.0181108,40.9448633 53.5923561,40.0361398 C54.8042267,39.6086888 55.4705204,38.9698523 55.6500278,37.6266576 C55.3451004,37.4651935 55.040957,37.1742459 54.721136,37.1555255 C52.3765661,37.0174619 50.0570802,36.7031138 47.6748843,37.1219846 C45.4478956,37.5143347 43.1480066,37.5135547 40.8786887,37.6508383 C39.096941,37.757701 37.3089223,37.7686213 35.5303101,37.9074649 C34.6758864,37.9745466 33.8379241,38.2389734 33.0634557,38.3988776 C32.8572966,42.6570075 32.9513616,42.7763506 36.8064584,43.9861618 C37.5840624,44.2303081 38.3389339,44.5555765 39.09067,44.8738247 C40.0438619,45.2778751 40.5596516,46.2365199 40.3197859,47.2255854 C40.0289683,48.4221363 39.6801439,49.6054268 39.3948134,50.656114 C38.5905578,51.4493944 37.7220244,52.1209918 37.0894373,52.9673136 Z M2.51898533,32.6774299 C3.13197552,32.4449839 3.87195345,32.2897599 4.29289429,31.8513885 C6.34272722,29.7164734 7.17206689,29.3927651 10.1790111,29.0698367 C12.6827076,28.8007298 15.1503459,28.2110346 17.6430681,27.8171244 C19.6215685,27.5051164 21.6133946,27.2742304 23.6828244,26.9965432 C23.5926788,24.3655353 23.4939106,21.6222045 23.4061166,18.8780937 C23.2869676,15.1534975 23.221906,11.4257813 23.0369115,7.70430522 C22.9742015,6.43599248 23.8521414,5.67781291 24.3303051,4.71214798 C24.6156356,4.13727314 25.1972708,3.70826206 25.74128,3.10686654 C27.01978,3.22074948 28.3562867,3.31357188 29.6857386,3.46645582 C30.748673,3.589699 31.7065682,4.4921823 31.9299725,5.52180888 C32.0702861,6.17234567 32.2552806,6.82990265 32.2740936,7.48823964 C32.3752135,11.0498116 33.6372521,14.4982806 33.155169,18.1370745 C32.9443067,19.7275356 33.324486,21.3928786 33.4044413,23.0262407 C33.443635,23.8359016 33.4114961,24.6494626 33.4114961,25.6471084 C33.8739823,25.7524111 34.3537138,25.9739368 34.8232549,25.9528763 C41.039383,25.6650489 47.2531596,25.3530408 53.4669361,25.0184122 C54.1199039,24.9825312 54.7634652,24.7680257 55.454059,24.6276221 C55.5496918,23.1221832 55.5912372,21.718147 55.7370379,20.325031 C56.263018,15.2931211 56.8352467,10.2658913 57.3604429,5.23320143 C57.4372626,4.49686242 57.3565235,3.74414299 57.3416299,2.99922376 C57.3126265,1.55774655 58.0729852,0.730925207 59.4729858,0.910329838 C61.3542856,1.15057604 63.2732114,1.35572134 65.0690689,1.91577579 C66.4808276,2.35570715 67.3023285,3.73010263 67.4904585,5.15909952 C67.869854,8.03893385 67.8541765,10.910188 67.3109512,13.8212231 C66.8218132,16.4452109 66.7253966,19.1596809 66.6634705,21.8390501 C66.6180057,23.812501 67.3924742,24.3733355 69.2878837,24.6549228 C72.2211437,25.089394 75.1128583,24.6284021 78.0194665,24.4528976 C79.8709791,24.3413547 81.7193562,24.2017311 83.68845,24.0667876 C84.3163338,17.9132087 83.2008798,11.9624351 82.9508237,5.85877758 C84.5083831,5.74645468 85.8229414,5.49684823 87.1092801,5.60293097 C88.4363804,5.71135377 89.7368289,6.16532549 91.2473559,6.51477451 C91.390805,7.13255046 91.629103,7.83612862 91.7082743,8.55686722 C91.9928209,11.1457541 92.1723283,13.7471212 92.4905815,16.3313279 C92.7171214,18.1729555 93.0800555,20.0005426 93.4288798,21.8250097 C93.5981968,22.7134527 94.1398544,23.307048 95.1102915,23.3483891 C98.5538541,23.4950328 101.996633,23.6354365 105.440979,23.7641398 C106.626198,23.8086009 107.832582,23.0504214 109.017017,23.9107836 C109.176143,24.0246665 109.663713,23.6884778 110.055651,23.538714 C111.006491,24.7251246 111.844453,25.8584938 111.530903,27.5425573 C111.406267,28.2164947 111.771553,28.9801344 111.929112,29.7843352 L113.758676,29.7843352 C114.732249,32.4582442 114.938408,35.2366759 114.667187,37.9269654 C114.123178,43.3254847 113.251509,48.6928033 112.451956,54.0640219 C112.229336,55.5624406 111.751172,56.9594567 112.01769,58.5772184 C112.27872,60.1536391 111.847589,61.8338025 111.824073,63.4695047 C111.802124,65.1098871 111.936167,66.7518295 111.954196,68.3929918 C112.002012,72.5590794 112.583647,76.6994262 112.248149,80.8928145 C111.951844,84.6033703 112.1047,88.3474669 111.982415,92.0744031 C111.835047,96.5407984 111.606939,101.004074 111.413322,105.468909 C111.394509,105.91664 111.331799,106.365152 111.349044,106.811324 C111.518361,111.190357 111.720601,115.56861 111.871105,119.948423 C111.980848,123.143385 112.082751,126.340688 112.0561,129.53565 C112.050613,130.207247 111.928328,130.992728 110.848932,131.392878 C110.008618,131.704106 109.390141,132.803935 108.84378,133.661177 C107.984653,135.009051 106.834709,135.555066 105.260688,135.495784 C100.100439,135.300779 94.9307842,135.586266 89.7917001,134.596421 C87.9072648,134.232931 85.9319,134.303133 84.0733326,133.615935 C83.6147657,133.446671 83.042537,133.587855 82.522828,133.579275 C81.4003191,133.559774 80.2417519,133.706418 79.1623562,133.480212 C76.3772485,132.895197 73.6697446,133.335128 70.9003144,133.629196 C67.1118469,134.030126 63.2865373,134.124509 59.4722019,134.235271 C56.6541715,134.317174 53.8228153,133.626076 51.0243818,134.725124 C50.1048965,135.087053 48.9392745,134.95133 47.9006403,134.869428 C40.8802564,134.313273 33.8590887,133.761019 26.8496791,133.093322 C24.7065651,132.889737 22.5987254,132.317202 20.4697211,131.938892 C19.5886457,131.781328 18.696596,131.690066 17.8084658,131.569163 C14.8454185,131.164332 11.8823713,130.754822 8.91854022,130.356231 C6.88046542,130.082444 4.86512298,128.232237 4.45045315,126.236165 C4.36030753,125.800134 4.37520116,125.300141 4.15728393,124.941332 C3.41338662,123.72216 3.69636547,122.692534 4.54295039,121.78459 C4.06713831,120.687882 3.49882899,119.671516 3.19311777,118.581827 C2.94933267,117.705865 3.92839245,116.954705 5.50319717,116.682478 C5.50319717,115.817436 5.58628792,114.920413 5.48751967,114.04367 C5.07990471,110.422817 4.56803439,106.812104 4.18863892,103.18813 C3.91663432,100.595343 3.78259171,97.9885158 3.60543598,95.3863686 C3.367138,91.8996786 3.14608527,88.4122086 2.91640992,84.9247386 C2.9015163,84.7024328 2.80431581,84.4489263 2.87878392,84.2632815 C4.05459631,81.3304058 3.04182991,78.3920699 2.92503254,75.4568542 C2.90700342,75.0099026 2.84664505,74.5543709 2.90543567,74.1152195 C3.73712697,67.8680383 3.08494303,61.6091567 3.00733941,55.3604154 C2.95873917,51.4197537 2.47116896,47.4861121 2.26892923,43.5438904 C2.17016099,41.6117805 2.27128086,39.6703104 2.28225511,37.7319603 C2.2916616,36.1734801 2.33085535,34.6087597 0.741940877,33.0861604 C1.71002641,32.8693148 2.13410274,32.8232936 2.51898533,32.6774299 Z"></path>
                </g>
            </g>
        </g>
    </g>
</svg>