<svg width="203px" height="153px" viewBox="0 0 203 153" version="1.1" xmlns="http://www.w3.org/2000/svg" xmlns:xlink="http://www.w3.org/1999/xlink">
    <!-- Generator: Sketch 48.2 (47327) - http://www.bohemiancoding.com/sketch -->
    <title>carinho</title>
    <desc>Created with Sketch.</desc>
    <defs></defs>
    <g id="06.Para-produtoes" stroke="none" stroke-width="1" fill="none" fill-rule="evenodd" transform="translate(-199.000000, -1397.000000)">
        <g id="carrinhoIcon" transform="translate(90.000000, 727.000000)" fill="#E45D57">
            <g id="compra" transform="translate(0.000000, 648.000000)">
                <g id="carinho" transform="translate(109.000000, 22.000000)">
                    <path d="M67.9770396,60.3542268 C67.8666272,60.3487433 67.7717273,60.3194976 67.6905149,60.263748 C67.7717273,60.3194976 67.8666272,60.3487433 67.9770396,60.3542268 M160.285427,1.20848828 C157.275094,0.0514559384 154.007435,0.649164589 150.910414,0.0048456308 C150.759851,-0.0262279076 150.541764,0.098066246 150.403064,0.208651486 C149.376503,1.02661669 148.110867,0.961727828 146.932831,1.06774343 C142.311937,1.48540834 137.684655,1.84092618 133.054635,2.16811226 C128.050492,2.52271617 123.060948,3.07290058 118.153529,4.07273738 C114.990807,4.71614241 111.760561,5.6364675 110.827988,9.47953306 C110.5661,9.72903529 110.539638,10.0342871 110.621763,10.3651289 C110.334326,10.5460866 110.236688,10.8129534 110.272276,11.1410534 C109.566914,14.4814588 107.738266,17.4087689 106.79018,20.6586955 C105.911443,21.623803 105.656856,22.759815 105.870381,24.0246908 C105.839356,24.4085404 105.808331,24.7933039 105.777306,25.1771535 C105.720731,25.2237638 105.617619,25.2694602 105.618531,25.3151566 C105.620356,25.4495039 105.662331,25.5829374 105.688794,25.7172847 C105.501731,26.5763767 105.314669,27.4345547 105.127607,28.2945606 L104.947845,28.3036998 L105.014457,28.4590675 L104.022571,29.2404756 C102.738685,29.5036868 101.477611,29.0092519 100.149013,29.2633238 C97.4115163,29.7879182 94.6274822,29.8473235 91.8251981,29.7632422 C81.0586237,29.4433675 70.2920493,29.7997993 59.5254749,29.8208196 C55.9420917,29.8281311 52.2984837,30.106879 48.7762379,29.4031547 C45.9009539,28.8282943 43.0995823,28.7533522 40.2124359,29.0156494 C38.5580754,29.1655336 36.8945899,29.2459592 35.2347544,29.399499 C33.5776564,29.5530389 31.8840585,29.6005631 30.229698,29.4479372 C26.7220523,29.1234929 23.2399565,28.6720127 19.6912483,28.9617277 C17.9867004,29.1015586 16.2876274,29.2221971 14.4854421,28.7295901 C13.2125062,28.3822976 11.3564834,28.3841255 10.0744225,29.6060467 C10.075335,29.6051327 9.9831726,29.6581405 9.9831726,29.6581405 C6.66715163,30.0227976 3.35113066,30.3892826 0.116322096,30.7457144 C0.0506221759,32.3039609 1.64567024,32.3688498 1.77798258,33.4399729 C1.63198275,33.616361 1.54620786,33.8238225 1.40294553,33.8786582 C0.571659042,34.196705 -0.160165068,34.5979192 0.0305472003,35.6599031 C0.1957095,36.5793142 0.706708878,37.1441215 1.73418263,37.1642279 C2.24700701,37.175195 2.40486931,37.743658 2.72698142,38.0543934 C2.65215651,38.4428126 2.66766899,38.816609 2.93138117,39.1419672 C3.80555511,42.287706 4.62224162,45.4526373 5.91160255,48.4658566 C5.99828995,49.1220566 5.98186497,49.8102441 6.49742684,50.3302689 C6.87063888,51.6618614 6.83596393,53.131457 7.80960024,54.2619854 L7.81598774,54.2820918 C8.31421213,57.5502969 9.80979781,60.4693817 11.0243338,63.4862567 C12.0554576,68.3849086 13.0573814,73.2890441 14.1250051,78.1803847 C14.9371291,81.8973282 14.7482418,85.7321684 15.5110909,89.4536816 C15.6297157,90.0321978 15.6808157,90.622595 14.964504,91.1389641 C13.6495931,92.0857931 13.5720307,93.4082463 14.9353041,93.9520332 C16.1516651,94.4373288 16.1407151,95.0953567 16.1781276,96.0165957 C16.3469399,100.086315 16.8615892,104.176141 16.6051771,108.218443 C16.3615398,112.06425 18.5597497,113.712062 21.3392213,115.206333 C21.7334208,115.417451 22.2873076,115.347078 22.6614322,115.579216 C23.9644806,116.386214 25.6252286,116.865112 25.8515283,118.761512 C25.4974787,119.088698 24.848692,119.464322 25.8232408,119.750382 C26.2968278,119.891126 26.8498021,119.757693 27.367189,119.74764 C27.782376,119.977036 28.1136131,120.382819 28.6492499,120.356316 C29.4704989,120.816021 30.3446728,120.996979 31.2799842,120.863545 C32.5912451,120.982356 33.902506,121.100253 35.2146794,120.861717 C36.9037149,120.933918 38.5936628,120.98327 40.2772233,120.82973 C40.4004106,120.49706 40.6832853,120.232935 41.1723847,120.163477 C42.8504701,119.927683 44.5239931,119.909405 46.1984286,119.945962 C46.5999281,119.849086 46.9694901,119.756779 47.3408772,119.734845 C51.3421848,119.494482 55.2276051,118.500129 59.1449628,117.791835 C65.170193,116.700605 71.1570982,115.653244 77.3210282,115.862534 C83.3590334,116.069081 89.3952136,115.899091 95.3857688,114.973282 C99.757551,114.296062 104.130246,113.622497 108.50294,112.948018 C108.906265,113.051292 109.231114,113.001026 109.334227,112.519386 C110.034113,112.343912 110.7048,112.107205 111.250474,111.605459 C112.996085,110.75185 114.773633,109.937541 115.721719,108.071301 L115.895094,108.000928 L115.899656,107.815401 C116.273781,107.458969 116.261006,107.144578 115.797456,106.880453 C115.775556,106.346719 116.130519,105.776429 115.646894,105.286563 C114.769983,104.705305 114.97347,103.115071 113.553622,103.040129 C113.554534,103.040129 113.496134,103.020937 113.496134,103.020937 C113.403972,102.789713 113.237897,102.680042 112.98696,102.704718 C112.788948,102.439679 112.590935,102.175554 112.392923,101.910515 C112.291636,101.21593 111.793411,101.312806 111.316174,101.3649 L111.23405,101.347535 C108.592365,100.688594 106.042843,101.337482 103.486934,101.896806 L103.419409,101.91874 C98.1533779,102.206627 92.9685592,103.066633 87.8111155,104.124961 L87.7490656,104.146896 C83.1208712,104.179797 78.5081893,104.528003 73.8617449,104.421074 C68.9707509,104.307747 64.0149694,104.210871 59.1568253,105.154044 C55.5223422,105.858682 51.8458842,106.145655 48.1758137,106.534075 C46.9904776,106.659283 45.7841541,106.850293 44.7238304,107.492785 C42.7236328,107.646324 40.7571977,107.953404 38.7077252,107.814487 C37.4822392,107.730406 37.0752647,107.613423 37.0013523,106.405211 C36.8945899,104.662351 36.9694148,102.904868 36.3689905,101.195823 C35.960191,100.029652 36.6518652,99.6567693 37.8171263,99.4940902 C42.5146706,98.8378902 47.2277273,98.9347665 51.9435216,99.0087946 C57.0325279,99.0892203 62.1023717,98.9429919 67.1028657,97.8627294 C68.475264,97.7430049 69.8595248,97.7000503 71.2164107,97.4880191 C73.9447823,97.0593871 76.7717039,97.249484 79.4033507,96.2450776 C82.0888349,95.2196508 84.9157565,94.7078514 87.6496032,93.8716076 C88.7373019,93.5398519 89.9153379,93.7820427 90.9072242,93.3131978 C94.1995202,91.758607 97.6113536,90.9461254 101.261349,91.2851925 C102.126398,91.3656181 102.899285,91.2330986 103.534384,90.5394276 C104.324608,89.6748521 105.306457,89.2581011 106.514605,89.3558913 C108.146153,89.4893248 109.336052,88.7426459 110.151826,87.353476 L110.176463,87.3315417 C111.833561,86.8435044 111.833561,86.8435044 111.252299,85.7760369 L111.173825,85.673677 C110.807,85.1454269 111.278762,84.1172583 110.190151,84.0176402 C110.191063,84.0176402 110.103463,83.9774274 110.103463,83.9774274 C109.316889,83.0424795 108.200903,83.4162759 107.256467,83.3696656 C99.8515383,82.997697 92.4237974,83.8704979 85.0225189,83.0013527 C84.5845194,82.9501728 84.1182325,83.1347862 83.665633,83.2079004 C77.088341,84.2717121 70.5502865,85.5146536 63.8607571,85.8957614 C58.984363,86.1745094 54.1225689,86.9751099 49.3091373,87.9219389 C49.3091373,87.9219389 49.1540125,87.9493568 49.1540125,87.9493568 C46.9448527,87.9009186 44.7311304,87.807698 42.5785455,88.4757791 C42.579458,88.4757791 42.4416706,88.4913158 42.4416706,88.4913158 C41.1158098,88.3523988 39.8620363,88.7463016 38.5918378,89.0177381 C37.8499762,89.0433281 37.1035521,89.0250496 36.366253,89.1036473 C35.3241793,89.2142326 34.8013174,88.7106585 34.6151677,87.756518 C33.7665437,83.3906859 33.2318193,78.9599649 31.8566835,74.7019762 C31.5062839,73.6180581 31.9342459,72.9709973 33.1889319,72.835736 C35.0257922,72.6383277 36.8553524,72.3403873 38.6703127,71.9940087 C43.5905067,71.0554051 48.5143508,70.2511488 53.5212322,69.8042382 C56.7359658,69.5172649 59.9944993,69.4121633 63.1818579,68.7788114 C66.5790913,68.1893281 70.0128246,68.6106488 73.4292205,68.4635064 C79.9983,68.1801889 86.2060299,65.3963654 92.9010343,65.9255295 C94.3281826,66.0388565 95.991668,65.5188317 97.5356162,65.1724531 C100.774987,64.4477085 104.073671,63.849086 107.378742,63.5877027 C111.254124,63.280623 115.162357,63.3647043 119.056902,63.3272333 C120.409226,63.3135244 121.601862,62.926933 122.755261,62.2533684 C124.676983,61.1338071 124.918795,59.6148594 123.435072,57.8610323 C122.876623,57.2011766 122.204111,56.7652331 121.379212,56.5422348 C120.334401,53.9046397 119.620827,53.5993879 117.400717,54.8423295 C109.985751,54.9099601 102.584473,55.3056908 95.2078315,56.0340911 C91.5222485,56.3987482 87.8503529,56.7387292 84.1437824,56.6610454 C80.6306617,56.5879312 77.137616,56.311925 73.6007703,56.8118434 C71.0767983,57.1682752 68.4506265,56.9041501 65.8764672,56.7734585 C59.4780249,56.451756 53.0658952,56.3009579 46.7130779,57.1125256 C40.7544602,57.8729134 34.74748,58.2914922 28.8408747,59.4494385 C27.9922507,59.6157733 27.4411014,59.1496702 26.8516271,58.7055014 C25.4956537,54.8441573 24.1743553,50.9691043 22.7608946,47.1296945 C22.3530076,46.0201863 22.1924078,45.1519551 23.4817687,44.6099961 C26.3251152,44.7096142 29.1073244,44.3266785 31.839346,43.5461843 C32.4023578,43.7225724 32.9653697,43.7627852 33.5302065,43.5598932 C34.3806554,43.7920309 35.1745295,43.3551735 36.0049035,43.3533456 C42.590408,43.3405506 49.129375,42.3452835 55.717617,42.4129141 C56.7414408,42.4238812 57.766177,42.4357623 58.6996634,41.90934 L59.812912,41.9020286 C61.9226095,41.8810082 64.0377819,41.9431553 66.1410918,41.820689 C68.6915262,41.6708049 71.2729856,42.0180974 73.792395,41.3628113 C74.1756446,41.3271681 74.5598066,41.2924389 74.9439686,41.2567957 C79.588588,41.5803261 84.2313823,41.7841319 88.8723517,41.2074436 C90.1982126,41.6653213 91.5496234,41.5583918 92.9028593,41.3884013 C94.8756819,41.8974589 96.8466795,42.2145918 98.8094646,41.3481885 C98.8094646,41.3491024 98.9299145,41.2476564 98.9299145,41.2476564 C100.675525,41.0822355 102.425698,40.7459102 104.165833,40.7888648 C108.065853,40.8820854 111.954924,40.8702043 115.854031,40.7157506 C118.805965,40.5987678 121.846412,40.419638 124.709833,40.9798756 C127.738417,41.5711868 130.736888,41.8773525 133.791022,41.9623478 C134.347646,41.9778846 135.019246,41.8261726 135.44082,42.0793305 C137.51493,43.3259278 138.859953,41.4267862 140.528001,40.9826174 C140.865626,40.8921386 141.071851,40.3885645 140.966913,40.0339606 C140.510664,38.4985622 140.855588,36.6478588 139.161078,35.5867889 C138.535104,35.1956279 138.042354,34.5951774 137.816967,33.8530682 C137.509455,32.8376946 136.878006,32.8038793 135.90072,32.8687682 C134.457146,32.9619888 133.006273,32.9711281 131.545362,32.3633662 C130.304364,31.8460832 128.837978,31.8040425 127.460105,31.6989409 C125.705369,31.5645935 124.007209,31.3909473 122.294449,30.8142589 C120.025976,30.0493015 117.630667,29.564006 115.194295,30.2128946 C114.603908,29.7888322 114.94062,29.0704851 114.66687,28.5458906 C114.795533,28.09898 114.971645,27.6593809 115.043732,27.203331 C115.447969,24.6607844 116.505556,22.5815991 118.333291,20.6340194 C119.738539,19.137006 121.321725,17.4654324 121.492362,15.0590611 C121.624674,13.190993 122.696861,12.2258855 124.696146,11.8520891 C126.826831,11.4536167 128.949303,11.5532348 131.0663,11.3841582 C136.345106,10.9637515 141.642163,10.7663431 146.931006,10.4684027 C150.353789,10.275564 153.805773,10.4080835 157.142781,9.34061606 C158.903904,8.77672273 160.278127,7.77871379 161.299214,6.26342183 C162.5393,4.42551343 162.092175,1.90307326 160.285427,1.20848828" id="Fill-4"></path>
                    <path d="M75.5046602,137.336344 C74.0472977,131.744923 70.4901471,128.501343 65.2105774,127.151242 C62.6777137,127.053879 60.1421545,126.840608 57.6263622,127.204096 C57.5850314,127.210587 57.548193,127.206878 57.5077606,127.20966 C57.0090946,127.906038 56.5059362,128.599633 55.9812138,129.275611 C55.2103032,130.268714 54.6631184,131.411107 54.8023854,132.633245 C55.0189233,134.51467 54.138396,135.605136 53,136.323768 C53.0593008,138.900643 55.6586533,139.381895 56.5418761,141.303192 C56.5975829,141.627736 56.7503274,141.865116 57.0800759,141.945788 C57.0297601,142.099715 57.0135871,142.25735 57.0324556,142.417767 C56.3172518,142.698729 56.5382821,143.208726 56.6658687,143.766013 C57.1007414,145.678965 58.2885547,147.14312 59.338898,148.692583 C60.2787261,151.610693 62.0739235,152.956157 65.2132729,152.998812 C69.1774427,153.051666 72.2224498,151.338076 74.7139826,148.534948 C77.0896093,145.86071 77.7158618,142.655148 76.1084503,139.206641 C75.8344086,138.618754 75.6699837,137.970594 75.5046602,137.336344" id="Fill-1"></path>
                    <path d="M161.808249,90.5413337 C162.041379,90.4153337 162.056792,90.1933337 161.882427,90.1183337 C161.714804,90.0453337 161.408459,89.9523337 161.347769,90.0283337 C161.23602,90.1673337 161.119455,90.2943337 161,90.4123337 C161.079958,90.4543337 161.164732,90.4953337 161.259141,90.5353337 C161.420983,90.6033337 161.662783,90.6193337 161.808249,90.5413337" id="Fill-11"></path>
                    <path d="M143.338809,102.167648 C139.144288,102.66851 134.968742,103.299632 130.727234,102.951047 C130.523923,102.934535 130.319709,102.941874 130.116399,102.945543 C128.997739,102.962055 128.897439,103.175793 129.062799,104.276588 C129.36912,106.313975 130.499526,108.04681 130.9947,110.037413 C131.347105,111.452852 132.760339,112.469253 134.28833,112.72427 C137.510575,113.260907 140.6777,113.118721 143.591817,111.353781 C144.173737,111.001526 144.761079,110.574051 145.469503,110.640099 C146.342382,110.722658 146.998397,110.278671 147.724894,109.923665 C148.979997,109.309054 149.985706,108.210094 151.446831,107.994522 C153.889267,107.633094 155.275393,105.412241 157.389822,104.465557 C157.533495,104.401344 157.695239,104.144492 157.682589,103.990381 C157.569639,102.574025 158.694623,102.622643 159.46901,102.618974 C161.097301,102.610718 161.780425,101.765858 162,100 C159.305458,100.605437 156.805191,101.05768 154.266069,101.251237 C150.620938,101.52827 146.966771,101.733752 143.338809,102.167648" id="Fill-13"></path>
                    <path d="M121.712983,131.854698 C119.870419,129.351356 118.341634,126.653922 116.715684,124.014264 C115.406189,121.889177 113.478939,120.618097 111.041798,120.150469 C108.731238,119.708119 107.163231,120.197413 106.046282,122.202433 C104.660124,124.688623 102.537654,127.03308 102.08303,129.942661 C101.627514,132.85766 103.137579,137.201721 104.38735,139.783602 C105.857301,142.816862 107.727499,145.702069 109.979226,148.198189 C110.046082,150.302513 111.6961,149.995576 112.908431,149.970298 C113.938912,149.949535 115.038032,149.694958 115.964218,149.072056 C116.187072,148.979975 116.409927,148.887894 116.632782,148.795813 C117.115932,149.114486 117.690897,149.251705 118.173156,148.99803 C120.98915,147.517511 123.628644,145.833871 124.653777,142.509022 C124.759856,142.165072 125.061156,141.785915 124.988951,141.497033 C124.491539,139.5209 124.702805,137.31276 123.182043,135.66523 C122.979691,134.281306 122.522392,132.955157 121.712983,131.854698" id="Fill-15"></path>
                    <path d="M199.518044,26.001036 C196.552969,25.9621958 193.629809,27.032947 190.647421,26.281744 C186.652679,26.4988955 182.647003,25.9215903 178.661373,26.3761961 C174.720393,26.8263882 170.72474,27.1062136 166.880347,27.9809987 C162.991306,28.8663766 158.927312,28.9943724 155,30.3325906 C155.445581,31.3230134 157.116739,31.5313376 156.275693,32.9066305 C156.088895,33.212055 156.716718,33.4627502 157.030174,33.7010872 C159.115933,35.2873525 160.050833,37.3908974 159.85219,39.9208008 C160.539242,40.1194149 161.075033,39.8996152 161.609001,39.7513166 C165.47344,38.6779173 169.281384,37.3679464 173.436499,37.9275971 C174.44703,38.0635374 175.543215,37.8163731 176.568325,37.6018698 C179.756647,36.9345261 182.997818,36.8709696 186.2317,36.6767691 C188.900632,36.5152295 191.570476,36.3130844 194.222095,35.9873572 C195.503255,35.831114 196.804462,35.4250583 196.990349,33.8229039 C197.585369,32.2613551 198.881108,31.4571883 200.398272,30.9196059 C200.928596,30.7324672 201.537284,30.7245226 202.03207,30.4826547 C202.416601,30.2946333 202.884962,29.9115286 202.95877,29.5478439 C203.306852,27.816811 201.389668,26.0257524 199.518044,26.001036" id="Fill-17"></path>
                    <path d="M179.255785,54.0017991 C177.696722,54.0520932 176.130395,54.0529755 174.624904,54.5470929 L174.527747,54.5638576 C172.695371,54.6415046 170.881155,54.825034 169.128684,55.3906219 C168.97069,55.4391513 168.812695,55.4867983 168.655608,55.5344454 C166.246642,55.4682689 163.809527,55.71621 161.515879,54.6467988 C160.465305,54.1579755 159.339365,54.4138577 158.259734,54.7182693 C157.986422,56.3832685 156.673431,55.5273866 155.801735,55.623563 C155.174297,55.6932688 154.491469,55.3094455 153.933947,55.8891511 L153.819537,55.8741511 L153.789572,55.9817981 C152.973266,56.0435628 152.149696,56.0665039 151.340654,56.1759156 C148.114473,56.6117978 144.812019,56.7529742 141.888208,58.4012087 C141.596735,58.4929733 141.307078,58.5829733 141.016513,58.6747379 C140.194759,58.9456202 139.259502,59.8844432 138.745565,58.3597381 C137.905651,59.4653258 136.485514,59.1123848 135,59.7115021 C136.877777,60.717384 137.287292,62.5085596 138.296098,63.9220883 C138.373279,64.0306176 138.536722,64.0809117 138.66112,64.1576764 C138.443196,64.3341469 138.584847,64.4797351 138.65658,64.6817938 C139.003442,65.6541462 141.336135,65.5120875 140.225631,67.3059101 C140.216551,67.3217925 140.429935,67.4938512 140.557057,67.5600276 C143.230256,68.9462034 145.975188,69.6229678 148.880839,68.2464979 C150.57338,67.4435571 152.324943,66.8329692 154.149147,66.3697341 C158.208886,65.338264 162.488364,65.5482639 166.502702,64.2750293 C166.640721,64.2300293 166.803256,64.261794 166.950354,64.2362058 C169.000654,63.8815001 171.055494,63.5470885 173.097622,63.1544416 C173.959329,62.9894417 174.761107,61.8485599 174.737498,60.8073839 C174.730234,60.4535606 174.744762,60.2373842 175.090716,60.1923842 C176.856807,59.9576785 178.26968,58.8317967 179.953141,58.3923851 C182.039762,57.6573855 182.553699,56.4265038 181.390531,54.9415045 C180.854801,54.2576813 180.11386,53.9744462 179.255785,54.0017991" id="Fill-20"></path>
                    <path d="M169.469855,80.0549695 C168.899576,80.16631 168.344662,80.3562437 167.784324,80.5171728 L167.757211,80.4881681 C167.757211,80.4881681 167.794266,80.4423221 167.79517,80.4432577 C167.495118,80.4778762 167.193259,80.5124946 166.890496,80.5461775 C166.503683,80.23274 166.049991,80.176602 165.582742,80.2158986 C163.145275,80.4208025 160.701482,80.5452418 158.32728,81.2628732 C154.881207,82.3032984 151.429711,83.4213812 147.766733,82.8740352 C145.413317,82.5222368 143.048152,82.4286734 140.681179,82.2696156 C137.41586,82.0516128 134.300566,82.8216397 131,83.3633719 C131.706748,84.7892784 132.693664,85.815669 133.057883,87.2013432 C133.123858,87.4511575 133.460964,87.7758226 133.700463,87.802956 C134.794928,87.9273953 134.579831,88.6815164 134.475898,89.3813708 C133.864949,93.5131312 137.903896,95.4723491 140.478735,94.9034836 C144.143521,94.0950957 147.927604,93.8490239 151.455016,92.1162294 C152.928161,91.3920486 154.897474,91.7139067 156.253129,90.383435 C155.749729,90.1195861 155.638565,89.7939855 156.345313,89.4010191 C156.611925,89.2522533 156.902939,89.1474623 157.183108,89.0220873 C158.31282,88.9865332 159.409092,88.65719 160.525247,88.5102954 C161.811311,88.3390743 163.23746,88.1192003 164.305715,87.1105867 L164.431339,87.1629822 L164.526235,87.0628694 C165.587261,87.091874 166.551583,86.6090868 167.094748,85.8072483 C167.7066,84.9062326 168.585064,84.2877784 169.149016,83.3736639 C169.148113,83.3736639 169.167092,83.3465305 169.167092,83.3465305 C169.672299,82.9975389 170.243481,82.7177843 170.659215,82.2789719 C171.00807,81.9093964 171.112908,81.4780691 170.86166,80.8053481 C170.539918,79.9445647 170.089841,79.9342727 169.469855,80.0549695" id="Fill-22"></path>
                </g>
            </g>
        </g>
    </g>
</svg>