<svg width="96px" height="154px" viewBox="0 0 96 154" version="1.1" xmlns="http://www.w3.org/2000/svg" xmlns:xlink="http://www.w3.org/1999/xlink">
    <!-- Generator: Sketch 48.2 (47327) - http://www.bohemiancoding.com/sketch -->
    <title>certificados</title>
    <desc>Created with Sketch.</desc>
    <defs></defs>
    <g id="06.Para-produtoes" stroke="none" stroke-width="1" fill="none" fill-rule="evenodd" transform="translate(-247.000000, -1718.000000)">
        <g id="certificadosIcon" transform="translate(90.000000, 727.000000)" fill="#E45D57">
            <g id="Certificados" transform="translate(0.000000, 972.000000)">
                <g id="certificados" transform="translate(157.000000, 19.000000)">
                    <path d="M51.2735219,134.246877 C50.2761252,135.212166 49.2102558,136.198601 48.1946805,137.237282 C46.387732,139.083894 44.6613752,141.016959 42.8095863,142.813814 C39.9107125,145.626958 38.1898092,149.262962 36.1362383,152.661997 C35.5436174,153.642835 34.944937,154.209444 33.773632,153.927694 C33.3906704,153.835022 32.9671101,153.920853 32.5623342,153.922719 C31.1413771,153.928938 29.9615888,153.593699 29.5980177,151.913152 C29.530757,151.602792 29.2435358,151.242052 28.9635861,151.100244 C28.0031524,150.612002 27.932256,149.876841 28.0352678,148.877344 C28.4376198,144.979494 28.7533208,141.072314 29.0811407,137.167 C29.1453716,136.403228 29.1859704,135.625772 29.1229514,134.864488 C28.9702515,133.0129 29.0823526,131.202362 29.4156262,129.366323 C29.7282973,127.640372 29.945834,125.880835 29.7313271,124.088956 C29.6289212,123.228779 29.8967519,122.328797 29.8919043,121.448095 C29.8797853,119.193475 29.7925282,116.939476 29.7676842,114.684855 C29.7495056,113.083919 29.8016175,111.482361 29.7882866,109.882047 C29.7761675,108.503774 29.6161962,107.159087 28.8951135,105.933817 C28.5291186,105.311231 28.297039,104.625204 28.8993552,104.04429 C29.6616426,104.04429 30.4190825,103.891287 31.0783581,104.087205 C31.7449051,104.28499 32.4047867,104.734048 32.9059089,105.241571 C33.6954642,106.042661 34.7328538,106.625442 34.8279882,108.065289 C34.8788882,108.833415 35.6054245,109.554272 36.0374682,110.316178 C36.2798489,110.246518 36.5252594,110.174992 36.7627926,110.106576 C38.2437389,112.676533 38.8151515,115.377724 38.3140293,118.314017 C38.2079878,118.937847 38.3625055,119.606459 38.3855317,120.255168 C38.4521864,122.088097 38.6370017,123.927245 38.5473208,125.752089 C38.3879555,129.014913 38.0601355,132.269031 37.8129071,135.528124 C37.8007881,135.689834 37.8844095,135.860253 37.9862094,136.295628 C39.2902178,134.801669 41.0105152,134.011775 41.72978,132.108564 C42.4387437,130.232719 43.0980193,128.277264 44.1663125,126.619729 C45.9435693,123.863805 45.7678433,120.820533 46.0199192,117.788457 C46.2513929,115.002679 45.4860757,112.374258 45.0497903,109.697323 C44.7952905,108.131217 45.5466708,106.943887 46.1156596,105.673836 C46.2156417,105.450551 46.6913139,105.313719 47.0003494,105.29817 C47.8389868,105.255254 48.6818658,105.288218 49.5217151,105.316829 C49.6707793,105.321804 49.9228552,105.418831 49.9476993,105.519589 C50.2228014,106.64721 51.34866,106.079979 51.9424928,106.587502 C52.1727545,106.784043 52.7265945,106.688882 52.8453611,106.898484 C53.5312986,108.109449 54.3984157,109.309218 54.6892726,110.632136 C55.0255759,112.163412 54.8559094,113.818459 54.8565153,115.419395 C54.8577272,117.442645 54.798344,119.465895 54.785013,121.489145 C54.7734999,123.142326 54.7310833,124.798617 54.8268237,126.445579 C54.8625749,127.058836 55.2400829,127.654677 55.4824636,128.249275 C55.5466945,128.407254 55.7084837,128.665369 55.7902872,128.651686 C57.5832987,128.353765 57.579663,130.387589 58.7037038,131.064908 C59.7635136,131.703043 60.3646178,133.140403 61.1723517,134.221999 C61.5068371,134.669813 61.8540475,135.107054 62.3715304,135.778775 C63.1859297,131.722324 63.1010965,127.942647 63.4380057,124.116322 C63.6325162,124.013698 63.9318565,123.856963 64.0360802,123.802852 C63.8579303,122.422092 63.6313043,121.160748 63.5495008,119.890075 C63.4749688,118.716428 63.2180452,117.455706 64.2051408,116.359183 C64.0748611,116.125325 63.7276507,115.765829 63.7143198,115.394517 C63.7040186,115.090376 64.0906159,114.771308 64.3639002,114.367654 C64.0324445,114.163649 63.7585542,113.996341 63.6658436,113.93912 C63.5331401,112.698301 63.3701391,111.592449 63.3119677,110.480999 C63.270157,109.685506 62.3588054,108.860159 63.346507,108.080838 C63.1017024,107.139806 62.8568979,106.199396 62.5514981,105.026371 C62.2242841,105.444953 62.0958223,105.609774 61.9328213,105.818754 C61.5777335,104.814904 61.2323409,103.83842 60.8687698,102.811556 C61.6474179,102.246191 62.3715304,101.639776 63.5028425,102.263606 C64.2542229,102.678456 65.159515,102.799739 66.1023761,103.084599 C66.3574818,101.853109 67.3985071,101.992429 68.5934442,102.240593 C68.6291954,103.288603 70.3307082,103.310994 70.0495465,104.669986 C70.1022643,104.709792 70.1561941,104.781939 70.194369,104.773854 C70.4161474,104.727829 70.6342901,104.663144 70.9815005,104.570472 C71.7080368,105.609152 72.0685782,106.859922 72.2855089,108.106961 C72.9502381,111.936395 73.4507544,115.75028 72.3703422,119.643155 C71.9401164,121.193712 72.1012996,122.93148 72.0825151,124.585283 C72.0510056,127.372928 72.1285674,130.162438 72.0782734,132.94946 C72.0637305,133.766721 71.7086427,134.570921 71.6195678,135.393779 C71.3256812,138.112385 71.0487612,140.834101 70.8312244,143.560171 C70.7088222,145.102642 70.8318304,146.597223 71.3929418,148.110462 C72.1946161,150.273032 71.0984492,152.252122 68.9273237,152.986662 C66.2956747,153.877315 64.6220356,152.762755 63.4913295,151.138806 C62.7950908,150.139932 61.8086011,149.358122 61.0657041,148.387236 C59.2484545,146.010088 57.4409001,143.621123 55.7351456,141.158767 C54.1693659,138.897926 52.7423493,136.535084 51.2735219,134.246877" id="Fill-3"></path>
                    <path d="M31.7715999,45.4356188 C32.6695157,46.0138736 33.4952342,45.9912329 33.8932294,44.7967849 C35.2752917,45.2434791 36.491725,45.637549 37.7451669,44.9638363 C37.9684325,44.8439019 38.3913023,44.8194255 38.5763458,44.9540457 C39.5264378,45.6491753 40.8241688,45.8504937 41.4326888,47.0382107 C42.0824644,48.3054761 41.8549519,49.5103266 41.296788,50.72252 C40.2926997,52.902143 39.4378596,55.1441807 39.1545307,57.5404198 C39.0562454,58.3707814 39.1308695,59.3363752 39.4688013,60.0829053 C40.2380967,61.7852385 41.2452185,63.329699 42.9209236,64.3693339 C44.4401001,65.3116751 45.8021414,66.5091827 47.2976566,67.4955814 C48.461307,68.2629164 48.978822,68.0762838 49.7323432,66.9332362 C50.1467192,66.3048048 50.6569538,65.7308333 51.0027728,65.0681349 C51.4584044,64.1979991 51.9710658,63.2972678 52.1494356,62.3506432 C52.6232682,59.833246 52.6062806,57.1751096 53.3962038,54.7782586 C54.1988678,52.3416335 53.8724632,50.1699654 53.2305748,47.8924369 C52.4388314,45.081323 51.5275682,42.3320119 49.7578246,39.9455635 C49.0303915,38.9652838 48.1967858,38.5528566 47.0768178,39.0601299 C46.2432122,39.4370664 45.398686,39.8488817 44.6730729,40.3977648 C43.2030391,41.5083813 42.026648,42.141708 40.461969,42.5247635 C39.2127739,42.0486977 38.2857365,41.6589111 37.3350378,41.3437775 C36.5232733,41.0751491 35.6004828,41.0745372 35.3402086,39.9363848 C35.2843922,39.6940685 34.6880062,39.5190623 34.312459,39.4223805 C33.5413434,39.2241217 32.7502068,39.0992921 31.9863716,38.9475385 C31.8741321,37.7641048 32.7975294,37.3639157 33.3963421,37.0218581 C36.2587522,35.3837754 39.0896139,33.6428918 42.4847064,33.2433147 C43.6131682,33.1099183 44.7379898,32.7360414 45.8039615,32.3150474 C48.9230056,31.0838848 51.8843077,31.2301312 54.8280155,32.9190025 C57.1977853,34.2792781 59.5602746,35.6652539 61.5253756,37.5609507 C62.5428113,38.5418422 63.3460819,39.847046 63.9527818,41.1455187 C65.6460812,44.768637 65.9773393,48.6603838 65.6782363,52.5986357 C65.3403044,57.0484442 64.1942484,61.3367086 62.8862034,65.5827511 C62.818253,65.8036506 62.7054068,66.0526979 62.7496959,66.2607473 C63.0676067,67.7862386 62.2006325,68.7750849 61.3008966,69.8073769 C58.2261416,73.3325896 54.5519671,75.4442906 49.7323432,75.0489968 C48.2859707,74.9302863 46.8250374,74.9847462 45.3841252,74.8280973 C44.6579054,74.7497729 43.9080243,74.4780849 43.2661359,74.1182819 C41.9520239,73.3809305 40.7076824,72.5199733 39.4287591,71.7195952 C38.1012997,70.8886216 36.6731282,70.1885967 35.4548749,69.2199434 C32.5815442,66.9356839 30.0473588,64.3154858 28.1483882,61.10969 C26.4035193,58.1639559 26.794234,55.2182218 27.9512107,52.2272064 C28.3498125,51.1961383 29.2653226,50.3896411 28.9637928,49.0318131 C28.8606538,48.5673735 29.6384431,47.8691843 30.0740536,47.3264203 C30.580648,46.6955412 31.152766,46.1185102 31.7715999,45.4356188 M37.8575884,15.1069181 C35.7056239,15.8375385 33.789059,16.4745367 31.8834146,17.1439661 C31.347092,17.3324343 30.7713338,17.5251859 30.3357232,17.8715269 C28.5677998,19.2752482 26.7173651,20.5516921 25.0131452,22.0649452 C21.7600204,24.9537717 19.0068163,28.203625 16.7407922,31.8983368 C16.1444063,32.8712735 15.3326418,33.8625675 15.1767199,34.9285145 C14.6100623,38.7890538 14.149577,42.6765172 13.9002234,46.5700997 C13.6842382,49.9441707 13.753402,53.3408823 13.8086117,56.7259677 C13.8334864,58.2343255 14.1786986,59.7347285 14.2963984,61.2449221 C14.3776962,62.2851689 14.1077147,63.3921138 14.3637421,64.3711696 C14.9795425,66.7319179 15.6390253,69.1036805 17.1321137,71.1180878 C18.3861623,72.8100186 19.2434293,74.7118344 20.0806751,76.6454696 C21.0271269,78.8293759 22.1440614,80.947196 23.3149922,83.0191228 C24.0315048,84.2857762 24.9458015,85.4276 26.6591219,85.455136 C27.4799869,85.468598 27.8943629,86.0309432 28.2019598,86.8564096 C29.1217168,89.3224063 30.5905372,91.3876021 33.1150154,92.4229536 C34.9351151,93.1694837 36.7637085,93.920909 38.6444782,94.4801946 C41.1992914,95.2395747 43.8050674,95.8110986 46.5121622,95.5608274 C51.0144821,95.1453406 55.5119483,94.6692747 59.8911081,93.4895125 C61.9981768,92.9216602 64.2751214,92.692194 66.0357645,91.2425795 C67.0507734,90.4067106 67.8243158,89.2789607 68.7671274,88.3457982 C71.5743278,85.570175 73.5825044,82.2468925 75.3322268,78.7412609 C75.669552,78.0638767 75.8218336,76.8877859 76.2859591,76.7568372 C77.5400077,76.4037652 76.6281378,75.6162372 76.8241018,75.0955019 C77.5400077,73.1838955 78.0672299,71.1976361 78.841379,69.3123418 C79.688332,67.247146 80.1918929,65.1036257 80.4661213,62.9209432 C80.8647231,59.7524739 81.1389514,56.5650354 81.3597902,53.3782088 C81.6291649,49.4821787 81.9798375,45.5879843 80.6675456,41.7537571 C79.9789412,39.7436332 79.6707377,37.6037844 79.0992264,35.5489911 C78.6799968,34.0443047 78.1867498,32.5494089 77.575803,31.1157041 C77.2930809,30.4536176 76.5249988,30.0124306 76.1925273,29.3595228 C74.2486608,25.5479362 71.8970921,22.025783 69.0565232,18.8389564 C67.8813456,17.5202907 66.5769408,16.3747954 64.8108374,15.9372798 C62.6188308,15.3939039 60.4262174,14.8474684 58.2245035,14.3457023 C56.7556831,14.0109876 55.2789756,13.5753077 53.7895274,13.5000428 C51.2523084,13.3709298 48.6962818,13.38378 46.1602763,13.5385931 C44.2801134,13.6536322 42.459407,14.2398419 40.5798508,14.8144252 C40.8152503,15.8497767 41.9776873,16.6636168 40.6884501,17.769338 C39.7274374,16.8655471 38.7737052,15.9684872 37.8575884,15.1069181 M13.8249926,44.1022672 C12.7948162,43.81161 12.7838956,44.6278978 12.772975,45.2128836 C12.7468869,46.6618861 12.8118038,48.1139483 12.8840011,49.5629508 C12.9015954,49.9160228 13.0908857,50.2599162 13.2006984,50.6080929 C13.4470186,49.772224 13.4998015,48.9785769 13.4348846,48.1947204 C13.3214317,46.8014016 13.4039429,45.4374545 13.7746365,44.0826861 L13.7746365,42.2965212 C13.2425607,43.118928 13.1345681,43.6598563 13.8249926,44.1022672 M68.5202005,2.66740246 C70.0278497,1.82296684 71.6143699,1.56535279 73.3179832,1.96982521 C74.4324909,2.23417027 75.5712666,2.39449066 76.6960882,2.61906158 C80.2076671,3.31969837 82.5683363,5.74286145 84.8483145,8.24496089 C87.9643251,11.6637013 90.5767748,15.460602 92.4957665,19.6772729 C93.9718674,22.921619 95.1154966,26.3042568 95.1864805,29.9542991 C95.2004346,30.6457573 95.4194533,31.3298725 95.5104583,32.0225545 C96.1001706,36.4968394 95.949709,40.9931531 95.9976383,45.4906907 C96.034647,48.9406385 95.6269446,52.3397978 95.4588888,55.7634335 C95.4279471,56.4010436 95.504998,57.0521157 95.5990365,57.6860543 C95.791967,58.9820794 95.6590997,60.2181373 95.2799123,61.4786717 C95.0523999,62.2374399 95.1361244,63.0916661 95.0797014,63.9030586 C95.0269185,64.6581553 95.0123577,65.4187593 94.9152857,66.1683489 C94.2327483,71.4258785 92.7821289,76.4465989 89.9985898,80.9747319 C88.168783,83.9516734 86.2255232,86.8717073 84.1445426,89.6754783 C81.6946885,92.9755082 78.3590526,95.169817 74.6399823,96.8427786 C71.135077,98.4196703 67.4803169,99.3607877 63.7600332,100.289667 C58.1941685,101.679314 52.5427591,102.026879 46.9034837,102.669384 C43.36521,103.072021 39.8330032,103.156465 36.3111104,102.64246 C33.3237202,102.20678 30.4097406,101.497577 27.6377289,100.199716 C24.9100062,98.9220483 22.0876383,97.851818 19.3344342,96.6267744 C16.5035726,95.3674639 14.2217743,93.4968554 12.7129117,90.6728914 C11.9545369,89.2526486 10.9819969,87.9015516 9.89418406,86.7168941 C8.04314271,84.7006511 6.80122805,82.2903381 5.80866704,79.8488178 C4.05530437,75.5354651 2.66838844,71.0660755 1.25235091,66.6217741 C0.815526993,65.2523198 0.691153517,63.7586478 0.585587737,62.3102572 C0.370815978,59.3437181 0.199726611,56.3704481 0.137843223,53.39779 C0.0971943305,51.415202 0.288911494,49.4289426 0.355648481,47.443907 C0.429665867,45.2349123 0.480021957,43.0253058 0.539478546,40.8156993 C0.540691946,40.7569559 0.560106342,40.6829148 0.532804847,40.6419169 C-0.680594921,38.8429019 0.56981354,36.9973817 0.486695656,35.1696069 C0.433912766,34.0124854 0.93626027,32.7831585 1.37247749,31.6584681 C2.77456092,28.0481999 4.56189878,24.6576073 7.15129388,21.7357377 C8.92346424,19.7347925 10.5384993,17.585765 12.388934,15.664368 C14.5251243,13.4449709 17.0477824,11.6514631 19.6747929,10.0788548 C22.7113258,8.26087055 25.8048885,6.50040586 29.0119041,5.02019589 C33.9267799,2.75184602 39.0958629,1.30467918 44.5300737,0.899594851 C46.3714079,0.762527041 48.1860472,0.293804083 50.0267747,0.104112024 C51.2256136,-0.0194937689 52.4675283,-0.0531488116 53.6560534,0.115126402 C58.1268248,0.747229294 62.5854623,1.47050676 67.0440997,2.18399366 C67.5470539,2.26476576 68.0245267,2.50096297 68.5202005,2.66740246" id="Fill-6"></path>
                </g>
            </g>
        </g>
    </g>
</svg>