<svg width="144px" height="126px" viewBox="0 0 144 126" version="1.1" xmlns="http://www.w3.org/2000/svg" xmlns:xlink="http://www.w3.org/1999/xlink">
    <!-- Generator: Sketch 48.2 (47327) - http://www.bohemiancoding.com/sketch -->
    <title>crachá</title>
    <desc>Created with Sketch.</desc>
    <defs></defs>
    <g id="06.Para-produtoes" stroke="none" stroke-width="1" fill="none" fill-rule="evenodd" transform="translate(-648.000000, -1730.000000)">
        <g id="crachaIcon" transform="translate(90.000000, 727.000000)" fill="#E45D57">
            <g id="credenciamento" transform="translate(426.000000, 972.000000)">
                <g id="crachá" transform="translate(132.000000, 31.000000)">
                    <path d="M59.3801063,9.89330425 C59.4687667,8.51549067 59.5574272,7.13891559 59.6460876,5.76172126 C58.8252036,7.09185319 59.0558447,8.48948251 59.3801063,9.89330425 M68.0217078,25.0610191 C70.7577809,25.9199079 78.3590174,26.2741143 80.4881077,25.636295 C79.9642051,22.8899565 79.2983219,20.1479527 78.9511203,17.3656981 C78.6070186,14.6088325 77.1661317,12.113287 77.4147529,9.29449718 L67.8419069,9.29449718 C67.646606,14.6348407 68.054568,19.8655783 68.0217078,25.0610191 M130.581868,35.2983288 C129.806244,35.2983288 129.297222,35.2754168 128.79006,35.3026635 C127.371493,35.380688 125.953546,35.5720338 124.537459,35.552218 C120.57936,35.4971055 116.659701,35.74666 112.735082,36.3256514 C108.582923,36.9374625 104.438823,37.775297 100.196142,37.5430812 C99.1303572,37.4854917 98.059612,37.5294579 96.9907269,37.5300771 C91.7120215,37.5319349 86.4333162,37.580855 81.1552309,37.5214078 C77.3595726,37.4792993 73.5620544,37.3591663 69.7719762,37.1541972 C65.3383349,36.9151698 60.9090336,36.5888292 56.4853124,36.2123301 C54.8392045,36.0717621 53.2191367,35.6482005 51.5786088,35.416604 C50.0577415,35.201727 48.4748739,35.2518856 47.0110469,34.853713 C45.4746795,34.4351054 43.9804724,34.5310879 42.456505,34.5756733 C42.2264839,34.582485 41.9958428,34.6691789 41.7689217,34.6555555 C38.7569473,34.482787 35.7486928,34.2313747 32.7348584,34.1310575 C27.2100118,33.9465234 21.7006654,34.1403461 16.2471192,35.163334 C14.959993,35.4035999 14.8688526,35.5961842 14.956273,36.9448934 C15.0542335,38.4694673 15.1211938,40.0051876 15.0579535,41.5303808 C14.8291724,47.0317272 14.5129709,52.5293582 14.2872898,58.0307046 C14.2073094,59.9788401 14.3430901,61.9350258 14.2903898,63.885019 C14.1608092,68.7411152 13.9655083,73.5953537 13.8229076,78.4514499 C13.6920869,82.8753151 13.6220266,87.3016573 13.4769459,91.7249033 C13.3554253,95.4459288 13.0596839,99.1570464 13.3957255,102.889218 C13.6548868,105.768075 13.709447,108.666127 13.8570077,111.602573 C14.8155323,111.85027 15.6153362,112.555587 16.6588012,111.821785 C16.9743827,111.599477 17.6371659,111.650255 18.0407878,111.81745 C19.3055939,112.338852 20.4798795,111.808781 21.6839253,111.645301 C22.2630081,111.566657 22.8296908,111.347446 23.4069136,111.325153 C29.6900238,111.087364 35.9749939,110.876202 42.2593441,110.656371 C42.6152258,110.643367 42.9704875,110.615501 43.3257492,110.599401 C47.7674505,110.391336 52.2079119,110.163455 56.6496132,109.982636 C60.5035517,109.825349 64.3624502,109.785717 68.2126687,109.570221 C70.7553009,109.427176 73.2842931,109.051915 75.8219652,108.803599 C79.9208049,108.401711 84.0370047,108.292724 88.1395644,107.808477 C93.7791115,107.142173 99.4701188,106.901907 105.141906,106.509927 C108.215261,106.298146 111.292336,106.147051 114.36817,105.973044 C116.017378,105.880157 117.665346,105.742686 119.315174,105.718535 C122.150448,105.676427 124.985721,105.70677 128.037996,105.70677 C128.037996,105.184749 128.041716,104.495532 128.037376,103.806316 C128.022496,101.092797 127.931355,98.3780399 128.003896,95.6669982 C128.138436,90.5793055 128.385818,85.494709 128.549498,80.4076355 C128.623899,78.1102475 128.550738,75.806667 128.648079,73.5111367 C128.80742,69.7356179 129.037441,65.9619569 129.263742,62.188915 C129.568163,57.1185611 129.943885,52.0513033 130.202426,46.9784724 C130.395867,43.2097653 130.452908,39.4336272 130.581868,35.2983288 M58.0793401,25.3198623 C58.0793401,23.2745058 58.0818201,21.5666362 58.0793401,19.8587666 C58.07438,15.8318356 58.05702,11.8042852 58.0688,7.77797339 C58.07066,7.06956048 58.2045807,6.36300529 58.2498409,5.65397314 C58.3031611,4.79818062 58.5412423,3.97458869 57.6924582,3.21663641 C57.2795362,2.84756815 57.3285165,1.96390974 57.1375555,1.18552247 C58.6788829,1.08210905 59.9647691,0.989222742 61.2531353,0.911817485 C62.6301619,0.82883905 64.0512087,1.03009272 65.2719946,0.0801754053 C65.4852756,-0.0857814653 65.9595779,0.0504517867 66.3080196,0.0937987305 C69.0701328,0.431904892 71.8396861,0.722948658 74.5881593,1.14527174 C76.6571093,1.46232367 78.6541388,1.56326013 80.7503689,1.10873646 C82.4615771,0.737810467 84.2137055,1.43260005 85.9143737,1.85120768 C86.1059546,1.89827008 86.2783155,2.15154008 86.399216,2.34660133 C88.7025271,6.06205365 90.3814952,9.9589439 90.4447355,14.4534027 C90.4862757,17.3365937 90.8384373,20.2135923 91.0287783,23.0949256 C91.0678384,23.6838248 90.9921981,24.2789164 90.9959181,24.8709118 C91.0033581,25.9038076 91.3276197,26.3056957 92.3438046,26.2920723 C94.515675,26.2648257 96.6869254,26.1576968 98.8587959,26.0951534 C99.1086571,26.0877225 99.3622383,26.2029015 99.6114795,26.1905166 C100.247603,26.1601738 100.989746,26.280926 101.497529,25.9973131 C102.842315,25.2436955 104.286302,25.0926005 105.754469,24.9495556 C108.346701,24.6981433 110.933354,24.3687065 113.531166,24.2157537 C116.604521,24.0355543 119.687176,24.0089269 122.764871,23.9141828 C123.595055,23.8887939 124.425859,23.8584511 125.256043,23.8281082 C128.86818,23.6962096 132.479697,23.5643111 136.092455,23.4293163 C137.25248,23.3865886 138.161405,23.7172639 138.648107,24.89692 C138.787608,25.2356454 139.167049,25.500681 139.483251,25.7384699 C140.330795,26.3738123 141.28312,26.8914986 142.048823,27.6092002 C143.608131,29.0718499 144.135133,31.0026467 143.971452,33.0622457 C143.929912,33.5867437 143.298129,34.1378692 142.818867,34.5341841 C142.232344,35.0196699 142.206924,35.5293061 142.223044,36.2358613 C142.290004,39.0063502 142.303024,41.7811739 142.217464,44.5510436 C142.108344,48.1011583 141.873982,51.6481768 141.712782,55.197053 C141.589401,57.906237 141.2949,60.6265673 141.43316,63.3233665 C141.674961,68.0599489 141.260799,72.7630923 141.113859,77.4810976 C140.907398,84.108226 140.673037,90.7353545 140.540356,97.3637214 C140.466576,101.077316 140.684197,104.797722 140.565156,108.50884 C140.464716,111.636632 140.942738,114.785477 140.262595,117.894692 C139.858973,119.743749 138.573087,120.831757 136.915819,121.342632 C135.760753,121.697457 134.438907,121.808921 133.353281,120.871388 C133.182781,120.724628 132.925479,120.517801 132.756219,120.554336 C130.95635,120.950651 130.751129,119.538779 130.234046,118.202455 C129.557003,118.564092 128.94258,118.951119 128.281657,119.224824 C127.863775,119.396973 127.376453,119.46447 126.920131,119.466328 C122.70411,119.481809 118.50483,119.666343 114.30865,120.144398 C107.902159,120.874485 101.484508,121.526546 95.0606576,122.086341 C90.0987738,122.517953 85.1182899,122.729114 80.150206,123.095087 C78.3224373,123.228843 76.5120286,123.59048 74.6842598,123.734764 C71.7919459,123.963264 68.894052,124.150894 65.9949181,124.257404 C59.4160665,124.498908 52.8347349,124.683442 46.2546433,124.8816 C45.5478399,124.903273 44.8397965,124.842588 44.1323731,124.851257 C40.5165157,124.892746 36.9012784,124.95529 33.286041,124.989348 C30.2753066,125.019072 27.2602321,124.929282 24.2550777,125.060561 C21.5400846,125.180694 18.8374916,125.570197 16.1243586,125.763401 C14.0597487,125.91078 11.9870788,126.002428 9.91750882,125.999951 C7.90807917,125.998093 6.31467152,125.020929 4.97484508,123.573141 C4.42800246,122.981765 3.84457966,122.420732 3.24069676,121.886326 C3.04663583,121.715415 2.74345437,121.628102 2.47747309,121.584136 C1.08618641,121.354397 0.878485416,121.225595 0.760064848,119.871932 C0.461843416,116.451239 0.028461335,113.02683 0.00552122485,109.602421 C-0.0316789538,104.107887 0.121461782,98.6065402 0.393643088,93.1175787 C0.502763612,90.9267003 0.406663151,88.7680225 0.351482886,86.5901482 C0.274602517,83.5824895 0.417823204,80.5692577 0.441383318,77.5585028 C0.451923368,76.2618099 0.357682916,74.9632594 0.383103038,73.6671857 C0.40852316,72.3704929 0.531283749,71.0756577 0.598244071,69.7789649 C0.745184776,66.9508864 0.88964547,64.1221887 1.02480612,61.2941102 C1.24366717,56.6900456 1.3955679,52.0822654 1.6869693,47.4831547 C1.94551054,43.4091612 2.44585294,39.3500295 2.66409399,35.2754168 C2.77755453,33.1675169 2.59589366,31.0311318 2.38447265,28.9238511 C2.2697721,27.7819687 2.90899517,27.1453879 3.60525851,26.610982 C4.90478475,25.6127638 5.28608658,25.6827382 7.34573647,25.5588897 C11.3757558,25.3155276 15.4001951,24.976183 19.4252545,24.6430307 C22.4973692,24.3885223 25.5651439,23.8578318 28.6347787,23.8578318 C32.1074154,23.8584511 35.580672,23.8101502 39.0545487,23.8113887 C40.7142967,23.8120079 42.3858247,23.6336662 44.0313126,23.7754726 C46.5057445,23.9872534 48.9584763,24.446731 51.4291881,24.7291054 C53.5371982,24.9699906 55.6563684,25.1087008 58.0793401,25.3198623" id="Fill-1"></path>
                    <path d="M44.0197941,96.617866 C45.2191311,95.7891574 45.9027901,94.7115258 46.0911515,93.3899373 C46.5086344,90.4550052 46.8581837,87.5107618 47.2089681,84.5671392 C47.4677334,82.3932534 47.449206,80.1541882 47.9797057,78.0523101 C48.6306331,75.4774162 47.8290166,72.8745883 48.483032,70.3450096 C48.4935308,70.3040397 48.4070698,70.2456887 48.4033644,70.1923037 C48.2125327,67.5422984 48.0377581,64.8916724 47.8351924,62.2429086 C47.6875912,60.3216703 48.0352877,58.3439432 47.2651677,56.4388445 C46.9242645,56.3829765 46.6407961,56.3091066 46.3542398,56.29545 C45.8929089,56.2724821 45.4297252,56.2892425 45.0122424,56.2892425 C44.4341891,58.1080561 44.4199848,58.258279 42.5598392,58.4451264 C40.6348479,58.6375606 38.681448,58.5835548 36.7416348,58.570519 C35.2131287,58.5593454 33.684005,58.4767849 32.1585868,58.3681527 C31.1723144,58.2980073 30.8511737,58.712672 30.7177768,59.6754638 C30.3688452,62.2000765 29.8099369,64.6955136 29.4764446,67.2219886 C28.9020969,71.5678979 28.2165851,75.9156696 27.9849932,80.2845469 C27.7441377,84.8433754 28.0096963,89.4282756 27.9948745,94.0013815 C27.9917866,94.9467921 28.2993405,95.4831249 29.2096508,95.6296232 C30.5448549,95.8450254 31.8812942,96.0616691 33.2239093,96.221824 C34.5683771,96.3832204 35.9708972,96.2963146 37.2579302,96.6501453 C38.6240132,97.0250816 39.9178396,96.9232777 41.2326636,96.8494078 C41.4852531,96.2423089 41.7057286,95.7152875 41.9725223,95.0752885 C42.7068229,95.6290025 43.3491042,96.1131918 44.0197941,96.617866 M18.9918192,101.552872 C19.8718681,99.8228267 19.1474489,98.3963305 18.2198464,97.0629477 C17.7751901,96.4235695 17.1576119,95.9002726 16.5888223,95.35587 C16.0663511,94.8561618 15.990389,94.2670649 16.0008878,93.576164 C16.0836433,87.8813529 16.0836433,82.1853003 16.2151875,76.4923514 C16.278798,73.713229 16.5103899,70.9334858 16.7790364,68.1649162 C16.9383716,66.5149481 17.3076834,64.8848441 17.6028857,63.249774 C17.703551,62.6910941 17.8641213,62.142967 18.276046,61.6345682 C18.2470198,61.9890196 18.2173761,62.3428502 18.1883499,62.6973016 C18.252578,62.7320639 18.3174237,62.7662055 18.3822695,62.8003471 C18.508873,62.599843 18.7108211,62.4123749 18.7509637,62.1957312 C18.9979949,60.85552 19.2122946,59.5091013 19.4315349,58.1633034 C19.4692071,57.9298993 19.5822239,57.5481346 19.4846466,57.4767478 C17.9999885,56.3916671 19.7174736,55.114773 19.0159047,54.0029999 C19.1406555,53.982515 19.2654063,53.9632715 19.3895395,53.9434074 C19.4432688,54.129634 19.4969982,54.3158607 19.637806,54.8043953 C19.9533885,52.4380752 19.5556681,50.4268274 19.1301567,48.1859 C19.8854549,48.0965112 20.6660737,47.9773261 21.4503981,47.9164921 C23.1388569,47.7855127 24.8322564,47.7116428 26.5194801,47.5676275 C30.1638092,47.256629 33.8087558,46.9443889 37.4469091,46.5719356 C38.6104265,46.4527506 39.7492408,45.9964953 40.9084351,45.9524216 C42.7302908,45.8835178 44.5601751,46.02505 46.3863539,46.0914709 C47.1959989,46.1212671 48.0031737,46.1864465 48.9029851,46.2410729 C48.8801347,45.7916459 48.9048379,45.4961663 48.8443152,45.2199301 C48.6726285,44.4346744 49.0302063,44.1553344 49.7620364,44.0746362 C52.1514466,43.8114359 52.9604741,44.1720948 54.5593841,46.3317032 C55.1084111,46.3317032 55.6932577,46.3410146 56.2787218,46.329841 C57.6003392,46.3056315 58.5859941,47.0846797 58.9577762,48.3578492 C60.4992514,53.624339 61.1223878,59.0218082 60.9803448,64.4825945 C60.9080882,67.2573717 60.4214365,70.0222167 60.1107947,72.7895448 C59.6815778,76.607812 59.2820047,80.4291829 58.7978234,84.240001 C58.1709815,89.1638338 57.4836169,94.0808382 56.7943996,98.9966011 C56.7042332,99.6328755 56.5115488,100.276599 56.2429023,100.858868 C56.063187,101.250564 55.7086971,101.598187 55.3566776,101.865733 C54.4093126,102.58581 53.4563894,103.310852 52.439238,103.921675 C51.6975266,104.366136 50.8705894,104.852188 50.0442697,104.932265 C48.5336734,105.077522 46.9946684,104.950888 45.4692502,104.904952 C45.0604135,104.892537 44.6577525,104.734865 44.2476805,104.692654 C40.8491476,104.341306 37.4450564,104.043964 34.0526992,103.64606 C31.5965907,103.358029 29.1583918,102.908602 26.7035184,102.596983 C25.4282194,102.434966 24.1368633,102.38096 22.8510655,102.343094 C21.6214672,102.305849 20.3696362,102.465383 18.9918192,101.552872" id="Fill-4"></path>
                    <path d="M91.3070381,49.6872852 C91.6744536,49.8326969 92.0504278,50.121632 92.4080617,50.098341 C93.7395606,50.0121011 95.0643347,49.8232546 96.3921655,49.6728069 C96.8787922,48.5724615 97.9260179,48.7090605 98.8094044,48.5598718 C100.711284,48.2375738 102.62111,47.9599695 104.533994,47.7176166 C105.071362,47.6496318 105.578774,47.5438778 106.166883,47.9895555 C106.906605,48.5504295 108.228322,48.0052927 109.023064,47 C109.494408,47.2832697 110.069067,47.4922598 110.465827,47.8894668 C111.956274,49.3826129 113.323842,51.0117283 114.864419,52.4444435 C115.976447,53.4774337 116.049808,54.7288562 115.981949,56.0457455 C115.864572,58.3326762 115.351046,58.7890551 113.142886,59.4185433 C108.935643,60.6170889 104.590848,60.639121 100.300463,61.0936115 C95.8340119,61.5663571 91.3492206,62.0290309 86.8662633,62.106458 C83.0606709,62.1706658 79.3162125,62.7126551 75.5405758,62.987112 C73.9572048,63.1023083 72.8916389,62.4476406 72.1372452,60.9274266 C71.8217936,60.2929025 71.4812772,59.6709681 71.1584896,59.0565876 C71.3541184,58.6984088 71.5234596,58.3880712 71.703805,58.0582193 C71.4250339,57.9360986 71.1713277,57.8246792 70.8381473,57.6780085 C71.1193638,57.2077808 71.3834628,56.76588 71.5473019,56.4933117 C71.0319422,55.488019 70.5624329,54.5727431 70,53.4761747 C70.89867,53.2155666 71.5839823,53.0172778 72.3426554,52.7975864 L72.3426554,53.59263 C73.7872522,53.2583718 75.2239016,52.9102648 76.6684983,52.5974091 C77.4669086,52.4249294 78.2781569,52.3128805 79.0832919,52.1706161 C79.5552465,52.0875237 80.1861495,52.3349126 80.3237011,51.5354625 C80.3359279,51.4655893 80.5358361,51.3522815 80.5829093,51.3793495 C82.2151875,52.3185459 83.3608389,50.3432119 85.0053439,50.6604739 C86.5465324,50.9569629 88.2008189,50.602561 89.8055867,50.5906007 C90.5037372,50.5849353 91.0906237,50.5056198 91.3369938,49.7200185 L91.3070381,49.6872852 Z" id="Fill-6"></path>
                    <path d="M96.9531178,78.8282334 C93.9821293,79.1775521 90.9798026,79.3544631 88.048755,79.9289412 C85.4734887,80.4339415 82.8607394,80.9054896 80.4667433,82.2307134 C78.9950747,83.0457904 77.3175569,83.4980391 75.8495752,82.1026942 C75.3045356,81.583541 74.8498238,80.9067762 74.5057176,80.2197184 C73.8150472,78.8430296 73.1950416,77.4251688 72.6149768,75.9937984 C72.3310892,75.2945177 72.1535058,74.5360522 72.0158633,73.7865932 C71.897884,73.1400641 72.4533698,72.7933186 73.1704626,72.9438537 C73.5907637,73.0313442 74.0774282,73.1638666 74.4547161,73.0307009 C81.3036587,70.606056 88.4002349,69.7974122 95.563789,69.2834054 C98.2490464,69.091055 100.900508,68.4149335 103.573476,68.0038568 C106.008642,67.6300922 108.449338,67.2884933 110.89495,67.0060791 C111.290672,66.9604039 111.946932,67.1772002 112.106081,67.4853469 C112.766642,68.7668255 114.092065,69.3946985 114.772289,70.6330751 C115.032827,71.1071965 115.46849,71.4938273 115.657134,71.9898213 C116.601583,74.4710777 115.535468,76.0028048 113.189401,76.5283912 C110.258968,77.1832833 107.28675,77.6426085 104.326822,78.1431056 C101.892271,78.5548256 99.4485023,78.903501 97.0084206,79.2798388 C96.9899863,79.1293037 96.9715521,78.9781253 96.9531178,78.8282334" id="Fill-8"></path>
                    <path d="M114,84.1306571 C113.597621,84.5068582 113.347224,84.7414924 113.04762,85.0213494 C113.349093,85.3208684 113.637485,85.6085902 113.948301,85.9179403 C113.596375,86.6251198 113.241335,87.3355764 112.892524,88.034891 C113.795073,90.3006182 113.126103,92.2176712 111.307301,93.4694904 C109.201975,94.9179304 106.904181,95.3989959 104.46873,95.6093802 C101.507571,95.8643319 98.5619837,96.3447421 95.5983331,96.5354643 C93.4070504,96.6763758 91.193967,96.5885519 88.9983242,96.4587821 C86.1648549,96.2903436 83.4198342,96.8553008 80.6611102,97.3461974 C79.8432722,97.4916968 79.0434976,97.7414052 78.2281511,97.9065667 C76.9811505,98.1588968 75.8605941,97.9367153 75.0651797,96.7877943 C74.3569681,95.7647107 73.3503982,94.9198966 73.5447359,93.3829772 C73.5958119,92.9792491 73.0246333,92.4883525 72.6820507,91.9469898 C72.9062866,91.6173223 73.2046449,91.1795133 73.5702739,90.6433938 C73.0283706,90.3314222 72.5855048,90.0758151 72,89.7395935 C72.8751427,89.0553531 73.6481336,88.4949838 74.641623,88.0899449 C78.9712438,86.32429 83.4989396,86.43833 88.0079491,86.2017297 C90.2608966,86.0837572 92.5057468,85.7370491 94.7456139,85.421145 C98.9930149,84.8214515 103.233564,84.1699812 107.477228,83.5407946 C107.772472,83.4962272 108.078305,83.5001597 108.36296,83.4188897 C111.362114,82.5590014 111.212624,83.1357558 114,84.1306571" id="Fill-10"></path>
                    <path d="M72.7952591,88 C72.9743592,88.3833043 73.2284576,88.7666087 72.5937714,88.9921649 C72.4751175,89.034545 72.1471404,88.8965743 72.0889328,88.7807354 C71.8180438,88.2401538 72.198072,88.0593321 72.7952591,88" id="Fill-12"></path>
                    <path d="M92.0304837,50.307 C92.6855335,50.204 93.3413111,50.103 93.9963608,50 C93.9978165,50.196 93.9992722,50.39 94,50.585 C93.3354884,50.481 92.6709768,50.376 92.0006426,50.264 C91.9948199,50.255 92.0304837,50.307 92.0304837,50.307" id="Fill-14"></path>
                    <path d="M89.9685647,50.365 C89.6542112,50.398 89.3398577,50.432 89.0255042,50.466 C89.0172005,50.355 89.0088968,50.245 89,50.135 C89.3333333,50.09 89.6666667,50.045 90,50 C89.9893238,50.121 89.9792408,50.243 89.9685647,50.365" id="Fill-16"></path>
                </g>
            </g>
        </g>
    </g>
</svg>