<?xml version="1.0" encoding="UTF-8"?>
<svg width="73px" height="103px" viewBox="0 0 73 103" version="1.1" xmlns="http://www.w3.org/2000/svg" xmlns:xlink="http://www.w3.org/1999/xlink">
    <!-- Generator: Sketch 48.2 (47327) - http://www.bohemiancoding.com/sketch -->
    <title>esq</title>
    <desc>Created with Sketch.</desc>
    <defs></defs>
    <g id="05.Eventos/Compra-efetivada" stroke="none" stroke-width="1" fill="none" fill-rule="evenodd" transform="translate(-325.000000, -190.000000)">
        <g id="Group-2" transform="translate(325.000000, 190.000000)" fill="#2B9F97">
            <g id="esq">
                <path d="M35.4095696,6.78362887 C28.2104972,-1.50353445 27.2533362,-1.0295454 21.3907253,2.05393173 C18.0559357,3.80972986 5.04516514,11.8191254 3.51523497,12.8792299 C-2.90487134,17.320966 0.23135823,18.9850243 6.80165735,23.1438959 C15.5204774,28.6661232 28.1952233,36.6908087 37.5835469,42.9520511 C50.1742867,51.3513409 58.437437,57.0723377 66.2118243,63.8254074 C67.4922816,64.9390268 70.0099205,67.4924517 71.8555101,66.9165295 C74.1796802,66.190256 72.3213624,61.6058135 71.8555101,60.4284859 C67.3726365,49.0502005 47.5064551,20.7076942 35.4095696,6.78362887" id="Fill-36"></path>
                <path d="M55.3175373,82.1577809 C52.3410329,80.8750796 49.1985999,80.0062358 46.0765889,79.0525641 C41.6322543,77.6927465 37.1879197,76.3329289 32.7461379,74.9731113 C29.0701805,73.8497837 25.3329571,72.9398112 21.603392,72.0221271 C19.4539781,71.4951656 14.6369423,69.9862565 13.5418133,72.0709674 C12.5487942,73.960317 13.1461373,76.0064698 13.5596825,77.954942 C14.0651267,80.3609709 14.5731236,82.7618587 15.0785677,85.1678876 C15.8392866,88.7717899 16.6000056,92.3782627 17.3607246,95.9847355 C17.812561,98.1259984 18.2746084,102.958621 21.0366819,102.999749 C22.6372551,103.022884 26.7727071,101.439429 29.0497585,100.578297 C35.9677061,97.9563425 42.8933119,95.3498112 49.8189177,92.7432799 C52.3206109,91.7998903 54.9193086,91.1829599 57.408238,90.2292881 C58.9373342,89.6432042 61.331812,88.5610053 60.9616635,86.512282 C60.4894051,83.926315 57.3597358,83.0369069 55.3175373,82.1577809" id="Fill-38"></path>
            </g>
        </g>
    </g>
</svg>