<svg width="135px" height="127px" viewBox="0 0 135 127" version="1.1" xmlns="http://www.w3.org/2000/svg" xmlns:xlink="http://www.w3.org/1999/xlink">
    <!-- Generator: Sketch 48.2 (47327) - http://www.bohemiancoding.com/sketch -->
    <title>like</title>
    <desc>Created with Sketch.</desc>
    <defs>
        <polygon id="path-1" points="0 0 135 0 135 127 0 127"></polygon>
    </defs>
    <g id="06.Para-produtoes" stroke="none" stroke-width="1" fill="none" fill-rule="evenodd" transform="translate(-1074.000000, -1407.000000)">
        <g id="likeIcon" transform="translate(90.000000, 727.000000)">
            <g id="comissários" transform="translate(852.000000, 648.000000)">
                <g id="like" transform="translate(132.000000, 32.000000)">
                    <mask id="mask-2" fill="white">
                        <use xlink:href="#path-1"></use>
                    </mask>
                    <g id="Clip-2"></g>
                    <path d="M13.5536267,80.3099135 C13.678776,80.3195625 13.8025424,80.3292115 13.9270002,80.3388605 C13.5743697,84.1915738 13.2224307,88.044287 12.8677259,91.8963111 C12.6132788,94.659375 12.4763752,97.3803968 13.5881984,100.058687 C14.5403007,102.355153 15.2206701,104.762581 16.0524632,107.109359 C16.2467556,107.656596 16.5143399,108.194873 16.8400046,108.676635 C17.8743873,110.206693 19.527602,110.485825 21.1842738,110.644344 C23.609127,110.877299 26.0194601,111.132309 28.4781934,110.687076 C30.2378887,110.367969 30.2261343,110.469284 32.2451167,109.265225 C33.968166,108.236916 34.5365234,106.579353 34.785439,104.845976 C35.1491324,102.3138 35.1615782,99.7333777 35.4782542,97.1922411 C35.9850741,93.1182897 35.9954456,89.0636364 35.4360768,85.0000233 C34.8213935,80.5297731 34.6761927,76.0822671 36.1143719,71.7119532 C36.2561156,71.2811937 36.3024415,70.8152842 36.3563733,70.3604021 C36.8265472,66.4422134 37.227578,62.5150649 37.7834896,58.6085928 C37.9777821,57.2425682 37.968102,55.9558033 37.3202299,54.7731099 C35.776953,51.9569764 33.5498495,50.2284246 30.1155051,50.6219665 C29.5250219,50.6895096 28.9241672,50.6819282 28.3357583,50.7632556 C24.8059963,51.2519092 21.3598976,52.1079146 17.9594335,53.1555218 C14.9731373,54.0749349 14.1959674,56.735995 13.2162078,59.2137238 C13.0958985,59.5176677 13.2957225,59.9470488 13.3441228,60.3185359 C13.6303757,62.5178217 14.1683101,64.7198645 14.1482585,66.9163935 C14.1095383,71.3825083 13.7693536,75.8451771 13.5536267,80.3099135 M74.9569654,8.96166134 C74.9936114,9.38552872 75.0026,9.64053837 75.0399373,9.89279115 C75.6815865,14.278957 75.0855719,18.5700112 73.8727996,22.7742242 C72.9988291,25.8033252 71.9077489,28.7703969 70.8996406,31.7609019 C70.7316225,32.2571369 70.5822731,32.7974816 70.2732029,33.202051 C68.6310511,35.3503349 67.0082595,37.5186061 65.2520214,39.5724676 C62.7352077,42.5147275 59.3990468,44.7140133 57.3855959,48.1256288 C57.2597552,48.3392856 57.0246682,48.5033188 56.811707,48.6494324 C55.0257374,49.877614 53.2591278,51.1374995 51.4289064,52.298138 C50.6171649,52.813671 50.452604,53.3705569 50.6185477,54.2775642 C50.7810343,55.1645842 50.7990116,56.111566 50.6863081,57.0075458 C50.0176931,62.2924484 49.2965291,67.5704588 48.5850453,72.8498476 C48.3921357,74.2827261 47.9572247,75.7197399 48.0076993,77.141591 C48.0837569,79.2981455 48.4868619,81.4436726 48.7544462,83.5933349 C48.827738,84.1798571 48.9473558,84.7636224 48.9791617,85.3522123 C49.2080258,89.5812371 48.7738063,93.7571923 48.1397629,97.937972 C47.765698,100.400538 47.5886913,102.955459 48.3361297,105.382875 C49.0690479,107.766181 50.1303965,110.046795 50.9248523,112.414249 C51.3542317,113.693433 52.1369331,114.13453 53.4119343,114.214479 C56.5136997,114.409527 59.6064765,114.741729 62.7089333,114.938155 C64.1540269,115.029132 65.7256525,115.283452 67.0407568,114.85476 C70.8422517,113.615551 74.7633644,113.100708 78.6761799,112.499712 C81.4820123,112.068263 84.3286391,111.874594 87.1171857,111.356993 C90.2224082,110.780809 93.2626361,109.862085 96.3664758,109.267292 C100.177651,108.536724 103.309839,106.595205 106.194495,104.161586 C107.146597,103.35865 108.361444,102.572255 108.788749,101.511553 C109.452524,99.862261 110.639022,98.6795676 111.58421,97.2839067 C112.987817,95.2141933 114.569815,93.1982387 115.071794,90.6894952 C115.613186,87.9843253 116.122772,85.2495192 116.321213,82.5043748 C116.645494,78.0230973 117.323789,73.619701 118.582196,69.3148626 C119.633865,65.7178482 120.802385,62.1552945 121.91006,58.5748213 C122.464589,56.7842401 122.123021,56.3238443 120.232645,56.2659502 C120.034204,56.2597472 119.83438,56.2873159 119.637322,56.27491 C116.740912,56.101917 113.818919,56.1129444 110.956389,55.7028613 C106.865876,55.1163391 102.809242,55.1632058 98.71942,55.5333144 C96.3561043,55.7476603 93.9782686,55.858624 91.6052729,55.8992877 C89.9582811,55.9275455 88.309215,55.7180241 86.6594575,55.6835633 C84.2180099,55.6325614 81.7641166,55.5043673 79.3371892,55.6849417 C78.1354798,55.7731613 77.2061948,55.4395811 76.2036179,54.9853882 C75.0565317,54.4650307 74.6797011,53.4959941 74.6714039,52.3236389 C72.9158572,52.3822222 72.4007402,51.0037917 71.2432824,49.9761718 C72.8785199,49.3696624 72.6123184,48.0801406 72.6475815,47.2351627 C74.322922,45.30536 75.9920396,43.787708 77.1259886,41.7248868 C78.2993493,39.5910764 79.6441851,37.5523777 80.3480632,35.2028429 C80.7048423,34.0077436 80.907432,32.7657777 81.1611877,31.5410422 C81.8567686,28.1866316 82.6823388,24.8501406 83.1794786,21.4660937 C83.4933889,19.3371078 83.3855254,17.1329974 83.3260623,14.9661046 C83.2818106,13.3457596 82.4368803,12.1196456 80.9869467,11.3036148 C79.1422053,10.2663458 77.3092182,9.22149549 74.9569654,8.96166134 M92.7509762,46.0483341 C97.4361216,45.2178297 101.774168,45.6051687 106.110832,45.7891891 C108.75072,45.900842 111.401672,45.8712057 114.029806,46.099336 C116.989136,46.3564133 119.973358,46.630721 122.863545,47.2730696 C125.513114,47.8616594 128.104602,49.0960439 129.99083,51.0017241 C133.866999,54.9143991 136.139046,59.5252491 134.415996,65.2671014 C134.307442,65.627561 134.361373,66.0335087 134.310899,66.4146448 C134.192664,67.3195844 134.161549,68.2534711 133.907794,69.1211931 C132.930108,72.4631978 131.787862,75.7597144 130.889692,79.1217064 C130.31926,81.2589629 130.01019,83.4734115 129.690748,85.6685621 C129.008996,90.346266 128.439255,95.0405111 127.740217,99.7147689 C127.366844,102.201458 125.975682,104.217412 124.282364,105.998344 C122.290348,108.094248 120.195308,110.092972 118.181166,112.168199 C116.765804,113.62589 115.0068,114.506017 113.189024,115.31171 C108.225923,117.509618 103.050552,118.95697 97.6988659,119.875004 C92.7592734,120.722739 87.8673897,121.850984 82.9229572,122.667704 C79.4492012,123.24251 76.0992116,124.201208 72.7692736,125.272938 C69.0839393,126.458388 65.317016,127.075925 61.4429207,126.99253 C59.7980032,126.95738 58.1517029,126.927744 56.5102426,126.829186 C52.3298427,126.578312 48.8042293,124.917303 45.6270978,122.181118 C43.7795907,120.59041 42.8219569,118.400773 41.1673593,116.714263 C40.0942564,115.621168 39.7236487,115.301372 38.4493389,115.872042 C35.8474791,117.036816 33.0886641,117.163631 30.3257006,117.391762 C26.484794,117.708801 22.6805334,117.278041 18.8548384,117.097467 C15.0747779,116.91896 12.2198538,114.705201 8.88023569,113.61693 C7.48077667,112.135806 6.07094617,110.665021 4.68946439,109.168045 C4.29189081,108.737975 3.94548321,108.252078 3.63848726,107.753086 C3.41100603,107.382978 3.11438156,106.937056 3.14411315,106.547649 C3.2969197,104.562709 2.62139032,102.754897 1.90368357,101.00498 C0.397743975,97.3300841 -0.111841646,93.5766179 0.120479614,89.6122517 C0.417795512,84.5458304 0.402584001,79.4621787 0.54225333,74.3867976 C0.60171651,72.2130127 1.13688513,69.9461837 0.679156929,67.8937007 C0.213131545,65.800554 0.0983537799,63.7411788 0.0326677094,61.660438 C-0.0247211733,59.8250577 -0.0523784661,57.9235129 0.356949468,56.1542973 C0.901798137,53.7964919 1.88778063,51.6695737 4.30571945,50.3421451 C6.54250301,49.1139635 8.92517879,48.3923551 11.2767401,47.5391067 C14.1302813,46.5032161 17.1027488,45.95529 20.1194681,45.6554814 C22.3493373,45.4335541 24.5771322,45.1744091 26.8125329,45.0496612 C31.3732205,44.7946515 35.9131651,45.0303631 40.4074752,45.9035989 C40.6660709,45.9539116 40.9301981,45.9918184 41.1804966,46.0696997 C43.1697473,46.688615 43.8362881,46.5032161 45.0297003,44.8835603 C47.4580106,41.5884222 50.3952151,38.7971004 53.5336264,36.1911775 C54.18703,35.6487651 54.7657588,34.9891861 55.2739616,34.3047954 C56.6409233,32.462523 58.043148,30.6333457 59.2510803,28.6883803 C59.9508098,27.5622026 60.52055,26.3781308 60.6975567,24.9197513 C60.9298779,23.0002868 61.8529401,21.1731772 62.3666743,19.2764568 C63.0166207,16.8766093 63.7170416,14.4712481 64.0800436,12.0217771 C64.3165135,10.430379 64.1187638,8.73697717 63.8781454,7.12490269 C63.6485898,5.58312818 63.9804773,4.01723112 63.3346796,2.46718602 C62.8458369,1.29552009 64.8288648,-0.198698576 66.2781069,0.0218503044 C68.0378022,0.289265822 69.8196233,0.42021672 71.5696385,0.733120445 C72.5957241,0.916451702 73.5706436,1.3637524 74.5815177,1.6483983 C76.1593662,2.09225292 77.8139638,2.33692434 79.3164462,2.95652885 C81.8699058,4.01033897 84.4766056,5.06070301 86.7873725,6.5376913 C89.1638253,8.05741093 91.0417555,10.2436017 92.6458785,12.6069208 C93.1983329,13.4201948 93.8143991,14.189359 94.3834479,14.9916056 C96.1984578,17.547905 96.3153098,20.5349639 96.523431,23.4930757 C96.7516036,26.7475501 96.0249083,29.9076021 95.5485114,33.093155 C95.3549103,34.3895689 95.1142919,35.7032131 95.1495549,37.0023839 C95.2062524,39.0975982 94.8453247,41.0584156 93.9644399,42.9530684 C93.5537291,43.8373315 93.2474246,44.7698398 92.7509762,46.0483341" id="Fill-1" fill="#E45D57" mask="url(#mask-2)"></path>
                </g>
            </g>
        </g>
    </g>
</svg>