<?xml version="1.0" encoding="utf-8"?>
<!-- Generator: Adobe Illustrator 16.0.0, SVG Export Plug-In . SVG Version: 6.00 Build 0)  -->
<!DOCTYPE svg PUBLIC "-//W3C//DTD SVG 1.1//EN" "http://www.w3.org/Graphics/SVG/1.1/DTD/svg11.dtd">
<svg version="1.1" id="Logo" xmlns="http://www.w3.org/2000/svg" xmlns:xlink="http://www.w3.org/1999/xlink" x="0px" y="0px"
	 width="304px" height="114px" viewBox="0 0 304 114" enable-background="new 0 0 304 114" xml:space="preserve">
<title>logo/vermelha</title>
<desc>Created with Sketch.</desc>
<g>
	<path id="logofill" fill="#FFFFFF" d="M53.143,57.65c0,0,4.104-0.403,3.936-2.915c-0.169-2.51-3.405-2.823-3.405-2.823
		s-0.849-0.006-2.192,0.004L52.58,14.46l4.755,0.738c0,0,4.694,0,4.694-2.518s-3.651-3.147-3.651-3.147s-21.464-1.993-23.115,0
		c-1.65,1.993,3.824,2.832,3.824,2.832l2.06,0.32l-0.814,39.661c-3.474,0.288-6.394,0.766-6.88,1.557
		c-1.311,2.129,3.535,2.494,3.535,2.494L53.143,57.65z"/>
	<path id="logofill_1_" fill="#FFFFFF" d="M78.843,29.599c2.27-0.119,0.098,28.033-0.17,30.92c-0.268,2.887,12.079,4.69,11.756,1.19
		c-0.785-8.482,1.904-38.822-5.941-39.949c-6.836-0.982-12.541,5.574-16.353,11.831v-10.53c0,0-0.601-1.71-3.001-1.71
		c-2.4,0-4,0.299-4,1.71v31.636c0,2.161,2.2,2.421,3.5,2.421c1.301,0,3.501-1.737,3.501-2.079V44.765
		C71.281,38.513,76.64,29.715,78.843,29.599"/>
	<path id="logofill_2_" fill="#FFFFFF" d="M129.479,43.008c0-2.463-0.395-4.458-0.95-6.072l2.382,0.237c0,0,3.975-0.713,3.277-4.609
		c-0.698-3.896-3.965-4.316-3.965-4.316s-18.734,0.173-19.58,3.509c-0.846,3.334,4.024,3.802,4.024,3.802l4.822,0.479
		c-0.181,1.327-0.023,3.024,0.701,5.203c3.187,9.602-1.727,10.399-5.578,10.399c-3.852,0-13.024-4.374-13.024-21.874
		c0-17.151,8.774-22.085,11.563-21.554c2.789,0.531,0.531,6.773,1.195,11.687c0.664,4.914,11.024,1.461,11.024,1.461
		s3.187-17.983-11.289-17.983c-14.477,0-21.648,11.139-21.648,27.28c0,16.14,10.093,25.499,22.444,25.499
		C127.229,56.156,129.479,51.64,129.479,43.008"/>
	<path id="logofill_3_" fill="#FFFFFF" d="M164.741,13.205c0-2.461-3.009-1.863-5.332-1.863c-4.476,0-10.552,8.088-14.041,13.365
		V13.223c0,0-0.7-1.881-3.5-1.881c-2.799,0-4.665,0.328-4.665,1.881v34.802c0,2.376,2.565,2.663,4.082,2.663
		c1.517,0,4.083-1.911,4.083-2.287v-2.658C149.975,20.586,164.741,15.666,164.741,13.205"/>
	<path id="logofill_4_" fill="#FFFFFF" d="M175.425,17.087c4.987,0,4.847,7.485,4.847,11.791c0,6.586-6.021,8.15-10.34,8.427
		c-0.002-0.102-0.012-0.193-0.012-0.295C169.92,24.813,172.438,17.087,175.425,17.087 M195.332,52.711
		c2.613,2.112,6.416,3.771,11.602,4.328c10.914,1.172,12.371-8.716,13.273-14.839c1.898-12.872-18.952-18.468-17.758-29.586
		c0.695-6.468,1.531-7.612,5.978-7.135c4.446,0.478,0.937,9.905,0.937,9.905s9.096,2.856,9.941-5.027
		C220.152,2.474,213.928,0,210.813,0c-3.117,0-16.021,0.528-17.217,11.645c-1.193,11.118,18.813,17.255,17.566,28.856
		c-0.893,8.309-5.105,10.206-8.039,9.891c-5.592-0.601-1.535-11.706-1.535-11.706s-1.688-5.643-5.855-4.897
		c-3.627,0.649-4.859,4.827-4.92,9.159c-1.846,5.513-3.185,10.122-8.305,10.122c-5.085,0-11.115-3.102-12.348-12.456
		c6.021,0.041,18.715-1.203,18.715-12.455c0-3.205-1.454-15.545-10.025-15.545c-15.107,0-19.518,9.759-19.518,24.396
		c0,14.638,14.027,21.957,23.582,21.957C188.273,58.967,192.582,56.36,195.332,52.711"/>
	<path id="logofill_5_" fill="#FFFFFF" d="M237.486,42.296c0.531,6.66-0.928,8.479-3.277,8.667
		c-4.482,0.357-2.943-8.969-2.943-8.969s-3.731-3.886-6.896-2.682c-3.165,1.205-3.154,5.604-2.186,9.444
		c0.975,3.841,5.685,7.858,14.435,7.161c8.749-0.698,12.767-3.464,11.938-13.834c-0.826-10.37-19.549-10.018-20.26-18.93
		c-0.414-5.185-0.146-7.979,3.418-8.263c3.563-0.284,0.631,7.94,0.631,7.94s10.772,0.119,10.271-6.2
		c-0.505-6.319-9.75-6.234-11.411-6.102c-1.66,0.133-10.518,2.633-9.807,11.544C222.107,30.984,236.745,32.997,237.486,42.296"/>
	<path id="logofill_6_" fill="#FFFFFF" d="M261.984,39.164c-4.982,0-8.289-5.357-8.289-11.207c0-5.849,1.531-11.051,5.307-13.484
		c3.771-2.433,11.963,2.655,11.963,12.165C270.965,36.146,266.967,39.164,261.984,39.164 M261.711,10.015
		c-8.916,0-13.906,6.839-13.906,17.413c0,10.573,11.035,17.26,19.457,17.26c8.42,0,13.766-6.687,13.766-18.05
		C281.027,13.435,270.627,10.015,261.711,10.015"/>
	<path id="logofill_7_" fill="#FFFFFF" d="M59.111,90.512c-2.475,0-2.272,2.475-2.302,5.18c-0.039,3.507-1.906,7.927-6.43,7.839
		c-4.681-0.095-6.049-3.896-6.43-7.888c-0.565-5.93-0.655-11.885-0.183-17.824c0.384-4.824,0.009-12.032,6.591-12.065
		c2.579-0.013,5.521,1.658,6.172,6.231c0.306,2.148,0.111,1.552,0.223,3.046c0.229,3.106,1.227,4.085,4.143,4.065
		c3.224-0.02,3.626-1.074,3.684-3.549c0.057-2.477,0.263-4.102-0.587-6.912c-1.468-4.85-6.716-7.246-11.728-7.547
		c-1.666-0.102-12.25-1.152-15.019,7.739c-0.905,2.901-1.886,6.716-1.906,17.097c-0.028,13.778,3.223,18.123,5.918,20.021
		c2.208,1.555,5.031,2.365,7.694,2.613c5.438,0.502,11.333-1.482,14.357-6.254c1.886-2.978,2.307-9.551,1.328-10.933
		C63.658,89.993,61.586,90.512,59.111,90.512"/>
	<path id="logofill_8_" fill="#FFFFFF" d="M96.58,91.275c0.346-3.896,0.634-11.933,0.921-15.096
		c0.288-3.166-0.402-3.281-3.223-3.455c-2.82-0.174-4.662-0.285-4.835,0.748c-0.099,0.6-0.352,3.064-0.571,5.639
		c-1.216,4.104-3.002,9.623-4.379,11.688c-2.302,3.453-5.64,6.907-7.137,6.331c-1.496-0.575,1.497-18.532,1.727-21.756
		s0.093-4.029-2.428-4.202c-2.521-0.172-5.514,0-5.514,0c-1.957,0-0.806,3.512-0.921,6.102c-0.116,2.592-1.036,15.6-0.691,18.305
		c0.345,2.705,2.763,5.64,5.238,6.33c2.474,0.689,7.194,1.322,11.683-5.813c0.789-1.254,1.571-2.69,2.325-4.204
		c0.216,3.396,0.541,7.008,0.899,9.271c0.69,4.375,3.683,7.827,5.552,8.526c1.869,0.698,3.652-0.139,3.887-1.604
		c0.173-1.079-1.036-1.627-2.072-3.353C96.005,103.001,96.235,95.173,96.58,91.275"/>
	<path id="logofill_9_" fill="#FFFFFF" d="M125.665,107.566c-2.504-0.053-8.133,0.264-11.339,0.463
		c0.499-4.114,0.958-11.041,1.075-16.754c0.173-8.42,1.6-23.603,1.807-26.313c0.208-2.712-1.596-3.021-3.514-3.021
		c-1.919,0-3.508,0.191-3.508,0.191c-2.9,0.46-2.9,0.346-3.13,5.182c-0.231,4.834,0.23,26.818,0,32.576
		c-0.091,2.265-0.205,4.525-0.281,6.791c-0.051,1.533-0.202,3.168,0.019,4.695c0.226,1.563,2.602,1.116,3.663,1.096l6.22-0.133
		c3.577-0.074,7.154-0.148,10.731-0.226c0.987-0.021,2.634,0.118,3.466-0.58c0.671-0.563,0.547-1.653,0.547-2.437
		C131.421,107.029,129.272,107.645,125.665,107.566"/>
	<path id="logofill_10_" fill="#FFFFFF" d="M138.769,78.941c-1.121,0-3.416,0-5.702-0.107c0.265-5.824,0.579-11.35,0.657-12.479
		c0.153-2.227-0.308-2.608-1.688-2.688c-1.382-0.076-3.761,0-3.761,0c-1.995,0.154-1.688,1.459-2.072,5.604
		c-0.141,1.521-0.364,4.813-0.548,8.576c-2.379-0.367-4.772-0.498-5.016,0.518c-0.345,1.438,0.115,2.304,3.914,3.279
		c0.284,0.073,0.6,0.144,0.929,0.211c-0.198,5.437-0.244,10.908,0.183,12.971c0.845,4.066,2.226,5.517,4.452,7.478
		c2.225,1.964,6.81,4.063,8.077,3.832c1.266-0.229,1.698-2.616,1.842-3.45c0.143-0.836-0.403-1.238-2.072-2.306
		c-1.67-1.063-5.066-2.481-5.267-7.472c-0.076-1.891,0.031-5.838,0.201-10.135c2.665,0.209,5.115,0.312,6.274,0.312
		c2.476,0,3.062-0.512,3.166-2.071C142.453,79.287,140.726,78.941,138.769,78.941"/>
	<path id="logofill_11_" fill="#FFFFFF" d="M180.586,89.438c-0.014-5.804,0.072-11.607,0.439-17.399
		c0.201-3.146-0.106-4.068-1.948-4.224c-1.843-0.151-2.38-0.047-3.3,0c-0.92,0.051-2.647,0.021-2.676,2.004
		c-0.021,1.248-0.054,2.494-0.078,3.742c-0.472,0.696-0.941,1.522-1.392,2.504c-2.418,5.295-6.595,14.271-7.548,16.301
		c-1.826,3.891-3.938,7.048-5.46,6.146c-1.521-0.899-1.435-6.585-1.521-11.812c-0.09-5.225-0.025-13.973,0-16.16
		c0.023-2.188-0.955-3.482-3.543-3.079c-2.585,0.401-4.372,1.233-4.375,1.237c-1.629,0.761-1.681,2.928-1.697,4.455
		c-0.061,6.244-0.715,12.781,0.15,18.979c0.842,6.033,4.397,13.814,11.756,12.864c3.904-0.505,6.14-4.404,7.789-7.556
		c1.535-2.935,3.09-5.856,4.646-8.779c0.279-0.527,0.576-1.057,0.881-1.588c-0.01,0.373-0.021,0.746-0.027,1.121
		c-0.125,5.355-0.729,11.195,0.563,16.457c1.193,4.863,5.372,5.39,6.904,5.035c1.562-0.358,0.813-2.854,0.672-3.842
		C180.066,100.488,180.598,94.84,180.586,89.438"/>
	<path id="logofill_12_" fill="#FFFFFF" d="M207.007,68.664c1.617,1.953,1.632,4.895,0.533,7.179
		c-1.869,3.89-5.522,5.782-9.501,6.325c-0.156-6.982-0.289-13.145-0.34-14.136c-0.012-0.269-0.035-0.493-0.068-0.688
		c0.803-0.32,1.628-0.584,2.48-0.738C202.587,66.158,205.402,66.729,207.007,68.664 M209.99,93.846
		c-1.776-2.594-3.904-4.945-6.307-6.975c-0.593-0.498-1.203-1.012-1.843-1.486c3.175-0.885,6.021-2.441,8.315-5.104
		c2.773-3.215,4.607-7.885,2.422-11.907c-1.143-2.101-3.229-3.612-5.449-4.401c-4.855-1.728-10.952-1.185-15.755,0.467
		c-3.685,1.269-3.563,2.285-3.044,4.015c0.859,7.096,0.882,14.959,1.056,22.096c0.104,4.238,0.265,8.474,0.421,12.714
		c0.069,1.936,0.061,5.866,2.893,5.728c2.302-0.115,2.953-0.115,4.029-0.191c1.072-0.077,2.187-0.922,1.918-4.644
		c-0.117-1.627-0.291-8.289-0.457-15.467c2.444,1.655,4.147,3.146,6.066,5.563c1.877,2.369,4.053,6.326,5.643,8.896
		c1.348,2.185,2.682,4.851,4.646,6.554c1.097,0.954,2.321,0.299,3.481-0.312c1.724-0.906,1.783-1.61-0.289-3.685
		C214.375,102.345,212.646,97.721,209.99,93.846"/>
	<path id="logofill_13_" fill="#FFFFFF" d="M230.084,77.088c0.9,4.178,1.975,8.973,2.768,12.75l-7.059-0.311
		C227.283,85.211,228.854,80.658,230.084,77.088 M239.09,79.863c-1.611-5.372-3.068-11.441-3.607-13.547
		c-0.619-2.42-1.606-3.407-3.528-2.188c-1.47,0.936-3.376,1.996-3.604,3.53c-0.041,0.271,0.063,1.063,0.268,2.211
		c-4.809,9.168-7.733,19.442-10.34,29.414c-0.119,0.457-0.237,0.913-0.357,1.366c-0.301,1.145,0.068,2.02,0.76,3.057
		c0.92,1.381,1.534,1.766,2.379-0.537c0.274-0.752,1.57-4.482,3.19-9.166l9.573,0.771c1.131,6.258,2.451,11.216,2.451,11.216
		c0.574,2.763,1.496,3.339,3.338,3.28s4.373-0.174,6.101-0.289c1.728-0.113,2.491-0.51,1.899-2.243
		C246.766,104.271,240.701,85.234,239.09,79.863"/>
	<path id="logofill_14_" fill="#FFFFFF" d="M263.954,74.709c-0.536,1.543-1.392,3.475-2.429,5.596
		c-0.27-10.371,1.603-28.299,3.119-28.299c1.727,0,2.763,2.647,3.106,5.295C268.098,59.949,266.602,67.085,263.954,74.709
		 M273.766,56.857c-0.59-4.201-2.074-6.557-3.646-8.058c-2.613-2.494-6.854-3.124-10.194,0.789
		c-3.338,3.914-6.542,10.234-6.49,26.232c0.013,3.352,0.687,11.834,1.825,16.045c-2.882,4.959-5.575,9.238-6.616,10.675
		c-1.483,2.053-0.151,2.493,0.922,4.336c1.076,1.842,1.805,1.88,2.341,1.267c0.536-0.615,0.536-0.346,3.452-4.643
		c0.584-0.861,1.394-2.164,2.345-3.773c1.757,5.07,3.515,9.2,4.181,10.443c1.496,2.795,2.072,3.881,4.145,2.846
		s3.109-1.382,5.757-2.846s0.461-3.716-1.843-5.902c-1.771-1.684-5.041-7.457-6.926-14.064c2.939-5.527,6.002-12.609,7.678-17.953
		C273.081,64.635,274.355,61.059,273.766,56.857"/>
	<path id="logofill_15_" fill="#FFFFFF" d="M299.438,84.74c0.791-0.354,2.541-1.271,3.109-0.551
		c0.516,0.652,0.428,1.479,0.405,2.254c-0.026,0.957-0.054,1.91-0.08,2.867c-0.04,1.434-0.081,2.865-0.122,4.301
		c-0.023,0.852,0.137,2.731-0.925,2.943c-0.615,0.12-2.319-0.191-3.257-0.361c-2.853-0.517-5.7-1.024-8.553-1.533
		c-1.029-0.184-2.074-0.236-3.101-0.426c-0.631-0.117-1.629-0.363-1.629-1.172c0-1.023,1.146-1.584,1.868-2.064
		c1.058-0.7,2.207-1.256,3.343-1.84c1.618-0.834,3.233-1.668,4.853-2.502C296.689,85.967,298.064,85.354,299.438,84.74z
		 M291.273,74.491c-4.271,4.132-7.063,6.926-9.586,10.083c-0.418,0.52-1.209,1.683-1.963,1.591
		c-0.951-0.114-0.557-2.017-0.461-2.504c0.93-4.709,6.604-17.054,10.293-23.285c2.193-3.708,2.6-3.593,5.082-2.817
		c1.412,0.441,7.005,2.612,7.674,2.914c2.794,1.26,1.698,2.123-0.547,4.194C298.789,67.415,294.459,71.41,291.273,74.491z"/>
	<path id="logofill_16_" fill="#FFFFFF" d="M14.41,21.669c-2.828-3.252-3.204-3.066-5.507-1.856
		c-1.31,0.689-6.421,3.832-7.022,4.248c-2.522,1.743-1.29,2.396,1.291,4.028c3.425,2.167,8.404,5.316,12.092,7.773
		c4.946,3.296,8.192,5.541,11.246,8.191c0.503,0.438,1.492,1.439,2.217,1.213c0.913-0.285,0.183-2.084,0-2.546
		C26.966,38.255,19.162,27.133,14.41,21.669"/>
	<path id="logofill_17_" fill="#FFFFFF" d="M22.286,51.358c-1.166-0.499-2.397-0.837-3.62-1.208
		c-1.741-0.529-3.482-1.058-5.222-1.587c-1.44-0.437-2.904-0.791-4.365-1.148c-0.842-0.205-2.729-0.792-3.158,0.019
		c-0.389,0.735-0.155,1.531,0.007,2.289c0.198,0.936,0.397,1.87,0.595,2.806c0.298,1.402,0.596,2.805,0.894,4.208
		c0.177,0.833,0.358,2.712,1.44,2.729c0.627,0.009,2.247-0.606,3.139-0.942c2.71-1.02,5.423-2.032,8.136-3.046
		c0.98-0.367,1.998-0.607,2.973-0.978c0.599-0.229,1.537-0.649,1.392-1.446C24.312,52.046,23.086,51.7,22.286,51.358"/>
</g>
</svg>
