<?xml version="1.0" encoding="UTF-8"?>
<svg width="1440px" height="325px" viewBox="0 0 1440 325" version="1.1" xmlns="http://www.w3.org/2000/svg" xmlns:xlink="http://www.w3.org/1999/xlink">
    <!-- Generator: Sketch 47.1 (45422) - http://www.bohemiancoding.com/sketch -->
    <title>ornamento</title>
    <desc>Created with Sketch.</desc>
    <defs></defs>
    <g id="Page-1" stroke="none" stroke-width="1" fill="none" fill-rule="evenodd" opacity="0.374490489">
        <g id="Eventos/ver-mais" transform="translate(0.000000, -1935.000000)" fill="#5C656E">
            <g id="footer" transform="translate(-83.000000, 1905.000000)">
                <g id="ornamento" transform="translate(0.000000, 30.000000)">
                    <path d="M0.755441208,218.969564 C7.83856394,268.811214 95.1856162,249.105309 132.427407,245.689823 C209.222364,238.652546 183.503064,235.569439 260.538709,231.695498 C427.54988,223.301959 435.855548,210.828175 553.674546,210.828175 C561.636373,210.488155 569.915298,210.694459 577.812178,209.479555 C596.444534,206.614214 619.371082,163.683766 577.812178,162.186148 C358.388191,154.262525 238.315125,147.553807 101.111141,152.944468 C67.8884685,154.251064 -8.39072697,154.629289 0.755441208,218.969564" id="Fill-1"></path>
                    <path d="M760.081686,63.6707533 C771.2909,59.4033056 776.689202,-0.914030763 792.372168,0.0105192367 C808.058954,0.931248782 813.594793,57.2141851 820.972091,59.9801942 C828.357029,62.7500238 856.036222,6.46708742 873.568288,14.7689351 C891.096534,23.0746033 866.18335,82.1235488 873.568288,89.5084874 C880.949406,96.8857851 924.311566,59.9801942 941.843631,74.7424306 C959.375697,89.5084874 898.481472,130.104637 900.322931,139.331035 C902.168211,148.557433 953.839859,153.172542 950.1493,173.466797 C946.45492,193.768692 896.632372,190.998862 892.021084,198.379981 C887.405975,205.761099 922.741359,258.815751 909.033568,273.150097 C895.321956,287.480622 853.57585,240.126087 839.432527,249.127078 C825.50315,257.990533 837.984575,323.94686 813.071391,324.86759 C788.162027,325.788319 786.836329,267.579874 772.074093,259.274206 C757.311856,250.972358 731.477943,319.247701 713.945877,315.560962 C696.417631,311.866583 723.172275,250.047808 713.945877,241.74596 C704.719479,233.444112 657.662941,271.270433 647.515813,254.662917 C637.364866,238.055401 686.266684,221.447885 679.810116,206.685649 C673.349727,191.919592 629.888236,209.589194 628.042956,190.215669 C626.197677,170.838324 684.421404,168.855508 683.500675,152.247992 C682.576125,135.640476 633.571154,127.334808 638.235929,109.802742 C642.904525,92.2744965 696.417631,111.651842 701.02892,101.500894 C705.644029,91.3499465 665.968609,42.4481283 685.345954,27.6897124 C704.719479,12.9274761 740.704341,71.055692 760.081686,63.6707533" id="Fill-4"></path>
                    <path d="M1014.48222,165.626878 C1007.39909,214.750282 1079.26184,205.271734 1169.78751,214.035857 C1277.22634,224.442775 1412.30615,241.634821 1556.46718,247.369323 C1635.50856,250.521198 1680.33014,247.369323 1677.69402,199.934559 C1675.05791,152.495975 1614.64124,149.454893 1482.87376,140.427159 C1351.10247,131.403246 1187.3043,127.632457 1134.16942,126.024046 C1070.14242,124.083255 1022.51663,109.897907 1014.48222,165.626878" id="Fill-6"></path>
                </g>
            </g>
        </g>
    </g>
</svg>