<svg width="167px" height="129px" viewBox="0 0 167 129" version="1.1" xmlns="http://www.w3.org/2000/svg" xmlns:xlink="http://www.w3.org/1999/xlink">
    <!-- Generator: Sketch 48.2 (47327) - http://www.bohemiancoding.com/sketch -->
    <title>pagina</title>
    <desc>Created with Sketch.</desc>
    <defs></defs>
    <g id="PaginaIcon1" stroke="none" stroke-width="1" fill="none" fill-rule="evenodd" transform="translate(-210.000000, -783.000000)">
        <g id="PaginaIcon" transform="translate(90.000000, 727.000000)" fill="#E45D57">
            <g id="pagina">
                <g transform="translate(120.000000, 56.000000)" id="Fill-1">
                    <path d="M38.9870047,103.636626 C38.9317764,103.745881 38.876548,103.849212 38.8338118,103.957151 C38.8311819,103.962416 38.9699102,104.04337 38.9797724,104.032182 C39.0540677,103.949911 39.111926,103.853161 39.1750441,103.761018 C39.1257331,103.728768 39.076422,103.695202 38.9870047,103.636626 M39.7529693,102.650039 C39.8233197,102.714539 39.8936701,102.777722 39.963363,102.842222 C40.1145835,102.672416 40.264489,102.503268 40.415052,102.33412 L40.2914457,102.202488 C40.1119535,102.351891 39.9324614,102.500636 39.7529693,102.650039 M65.8016819,25.7232582 C65.8279811,25.7976306 65.8536228,25.8720031 65.879922,25.9457173 C66.113985,25.8654214 66.348048,25.7844673 66.582111,25.7041714 C66.5551543,25.6265082 66.5281976,25.5488449 66.5005835,25.4711816 C66.2678354,25.5554265 66.0350874,25.6396714 65.8016819,25.7232582 M142.572371,14.5515949 C142.367894,14.3613857 142.164076,14.1724929 141.850457,13.8822429 C142.103587,14.4666918 142.103587,14.4666918 142.572371,14.5515949 M145.86569,18.6848602 C145.782847,18.7302735 145.700662,18.7756867 145.618477,18.8224163 C145.757206,19.1126663 145.895934,19.4035745 146.03532,19.6944827 C146.096465,19.6648653 146.157611,19.6359061 146.219414,19.6069469 C146.101068,19.2995847 145.982721,18.9922224 145.86569,18.6848602 M154.055922,67.8430745 C154.12693,67.8542633 154.19728,67.8641357 154.268946,67.8753245 C154.265001,67.5376867 154.623985,67.2573092 154.198595,66.8545133 C154.151257,67.1842531 154.103918,67.5133347 154.055922,67.8430745 M144.498788,17.555452 C144.60793,17.5324163 144.716414,17.5087224 144.824898,17.4856867 C144.715757,17.1743755 144.606615,16.8637224 144.496816,16.5530694 C144.417918,16.5767633 144.33902,16.6011153 144.26078,16.6248092 C144.339678,16.9354622 144.419233,17.244799 144.498788,17.555452 M52.4614063,42.456401 C52.1944693,42.1556204 51.9341071,42.0292531 51.7703945,42.4399469 C51.7079339,42.5965898 51.8407449,42.8315541 51.9137252,43.1685337 C52.1635677,42.8440592 52.3147882,42.6479265 52.4614063,42.456401 M153.951383,68.8888959 C153.885635,68.8658602 153.819887,68.8428245 153.754139,68.8197888 C153.548347,69.590498 153.343871,70.3625235 153.13808,71.1338908 C153.204485,71.1529776 153.269576,71.170748 153.335981,71.1891765 C153.541115,70.4224163 153.746249,69.6556561 153.951383,68.8888959 M41.150115,100.890768 C41.4117921,100.210228 42.1922213,99.7554367 42.0778197,98.8813959 C41.7549969,99.5402173 41.099489,100.029891 41.150115,100.890768 M155.660174,65.3256 C155.758139,65.3453449 155.857418,65.365748 155.955383,65.3848347 C156.359733,64.6266306 156.409702,63.7953704 156.311737,62.9292276 C156.094111,63.7282378 155.877143,64.5265898 155.660174,65.3256 M67.385552,25.214498 C67.634737,25.3764061 67.8115992,25.5712224 67.9023315,25.536998 C68.5571819,25.2921612 69.0982882,24.8794929 69.4658197,24.2259367 C68.8162291,24.5339571 68.1672961,24.8432939 67.385552,25.214498 M48.5566307,104.059166 C49.0957646,104.010462 49.5106346,103.771549 49.6145165,103.143003 C49.6441031,102.965299 49.8183354,102.81458 49.914985,102.645432 C50.4146701,101.772707 51.0432213,100.946054 51.3798512,100.014095 C52.0156346,98.2508755 52.4791583,96.4251306 53.2852291,94.7231204 C53.8723591,93.4824827 53.9815008,92.1167939 54.3095835,90.810998 C54.4792134,90.1330898 54.440422,89.3900235 54.4108354,88.6798653 C54.3930835,88.2336306 54.2602724,87.7821306 53.755985,87.5629622 C53.1379535,87.2950898 52.4942803,87.0528857 51.9419969,86.6797071 C51.4094378,86.32035 50.851237,86.2361051 50.2864614,86.3295643 C48.7433551,86.586248 47.2318079,86.4296051 45.707111,86.1847684 C45.1482528,86.0952582 44.5446858,86.1663398 43.9805677,86.2676969 C43.588052,86.3387786 43.4388039,86.7415745 43.7445323,87.0166867 C44.1442803,87.3760439 44.0962843,87.8170133 44.0160717,88.1895337 C43.9450638,88.5219061 44.0338236,88.7042173 44.1495402,88.9826204 C44.4046425,89.6032684 44.7176031,90.2745949 44.6965638,90.9156459 C44.6682921,91.766651 44.5177291,92.6235796 44.4947173,93.4857735 C44.487485,93.7431153 44.4631583,94.0155949 44.3717685,94.2518755 C43.9332291,95.3885235 43.6722094,96.579799 43.1672646,97.7046 C42.869426,98.3693449 42.6958512,99.099248 42.2901858,99.7310847 C42.1863039,99.893651 42.0909693,100.081886 42.0626976,100.268804 C41.8707134,101.528529 41.0409732,102.417707 40.3203748,103.3806 C39.9416661,103.888044 39.4847173,104.332962 38.9173118,104.503427 C38.4360362,104.648222 38.159237,104.945712 37.8226071,105.241228 C37.2282449,105.762493 36.8199496,106.514115 35.9593079,106.800416 C35.855426,106.584539 35.7640362,106.393013 35.5832291,106.016544 C35.2650087,106.4121 34.9921543,106.736574 34.7350795,107.072896 C34.3820126,107.534268 34.1341425,108.1536 33.6752213,108.437268 C32.8487685,108.948003 32.4910992,109.811513 31.8513709,110.445324 C31.3497134,110.942238 31.3168394,111.6366 31.0341228,112.22434 C30.9710047,112.356631 31.0591071,112.612656 31.1544417,112.762059 C31.5370953,113.362962 31.7658984,114.0231 32.3655205,114.5391 C32.9079417,115.006396 33.4477331,115.391421 34.0828591,115.68562 C34.5108787,115.882411 34.9270638,116.106187 35.4182016,116.353656 C35.4688276,116.30561 35.6022961,116.209518 35.6982882,116.084467 C36.2130953,115.418406 36.8127173,114.947819 37.7095205,114.862916 C38.0652173,114.82935 38.545178,114.587804 38.7029732,114.296238 C39.0889142,113.583447 39.8581661,113.366911 40.3506189,112.816029 C40.5024969,112.646881 40.7345874,112.547498 40.8733157,112.37111 C41.6254732,111.412166 42.6478551,110.818503 43.637363,110.149809 C44.2705165,109.722003 45.1107764,109.427804 45.357989,108.530069 C45.4973748,108.021967 45.7281504,107.579682 46.327115,107.401319 C46.5480283,107.334845 46.6913591,106.984702 46.8544142,106.753029 C46.9648709,106.595069 47.0076071,106.363396 47.1502803,106.258748 C47.8965205,105.716421 48.1759496,104.887136 48.5566307,104.059166 M55.2642449,38.9312786 C54.7809969,39.0721255 54.4660638,39.3998908 54.159678,39.8283551 C55.0900126,39.94485 55.1301189,39.9079929 55.242548,38.9069265 C55.6344063,39.0043347 55.7442055,38.7351459 55.8934535,38.5166357 C55.8487449,38.4685898 55.8053512,38.421202 55.7613,38.3731561 C55.595615,38.5594163 55.4299299,38.7450184 55.2642449,38.9312786 M140.586123,13.5571102 C140.490788,13.5761969 140.394796,13.5972582 140.299461,13.6156867 C140.235028,13.6275337 140.169938,13.6360898 140.10419,13.6466204 C139.562426,12.8522173 139.061426,12.0393857 138.238261,11.4674418 C137.791174,11.1561306 137.482816,10.6546102 137.070576,10.2834061 C136.864784,10.0984622 136.693839,9.69829898 136.265162,10.2373347 C136.012032,10.5552276 135.880536,9.93128878 135.716166,9.59694184 C135.361127,9.69698265 134.857497,9.68579388 134.631981,9.93128878 C134.144131,10.4617684 133.643788,11.056748 133.768709,11.8886663 C133.476788,12.0907224 133.076383,12.2289367 132.912013,12.5073398 C132.390631,13.3879622 131.48002,13.3116153 130.688414,13.5367071 C130.50695,13.5873857 130.239355,13.5380235 130.142706,13.6492531 C129.532564,14.3521714 128.674552,14.4726153 127.855989,14.6299163 C126.946694,14.8043296 126.3188,15.4605184 125.532454,15.8396204 C125.037371,16.0778755 124.579765,16.3937939 124.094544,16.656401 C123.028769,17.2342684 121.942611,17.7634316 120.830154,18.2544214 C119.635513,18.7816102 118.535548,19.5220439 117.378383,20.1413755 C117.014139,20.3361918 116.591379,20.4197786 116.208725,20.5862939 C115.513111,20.889049 114.711643,20.9147173 114.079804,21.3760898 C113.176426,22.0355694 112.11854,22.2981765 111.079064,22.6377888 C109.940308,23.0089929 108.850206,23.5269673 107.720654,23.9310796 C106.675918,24.3049163 105.629867,24.6497939 104.792894,25.4303755 C104.661398,25.5527939 104.438513,25.6041306 104.249158,25.6357224 C103.299099,25.7936816 102.394406,26.0418092 101.688272,26.7565745 C101.625812,26.8197582 101.510095,26.8283143 101.418048,26.8618806 C100.228009,27.298901 99.0399417,27.7425031 97.8446425,28.1663602 C97.6046622,28.2512633 97.3370677,28.262452 97.0806504,28.2966765 C96.009615,28.4441051 94.9313472,28.5632327 93.9996976,29.1911204 C93.9188276,29.245748 93.8280953,29.3286765 93.7419654,29.3280184 C92.4131976,29.3227531 91.3566268,30.0381765 90.2527173,30.632498 C90.1462055,30.6904163 90.0094496,30.6937071 89.8851858,30.7187173 C89.0311189,30.8957633 88.1763945,31.068202 87.3249575,31.2511714 C87.1684772,31.2840796 86.9942449,31.3242276 86.8758984,31.4203194 C86.038926,32.1021765 85.0349535,32.168651 84.0257213,32.2259112 C83.8948827,32.2338092 83.7456346,32.2140643 83.6371504,32.26935 C82.7225953,32.7366459 81.6883787,32.7419112 80.7304299,33.0347939 C80.4200992,33.1302276 80.0657173,33.2111816 79.8342843,33.4158704 C79.0098039,34.1431408 77.954548,34.2629265 76.9841071,34.6203092 C76.1333276,34.9335949 75.2358669,35.240299 74.5178984,35.7668296 C73.6026858,36.437498 72.5375677,36.5730796 71.5395126,36.9383602 C70.2600559,37.4063143 68.9575874,37.8071357 67.667611,38.2448143 C67.2073748,38.4001408 67.2100047,38.4093551 66.5439772,37.9262633 C66.1356819,38.0532888 65.7891898,38.2132224 65.4275756,38.2619265 C64.6123,38.3731561 63.7884772,38.421202 62.9705717,38.5159776 C62.8706346,38.5265082 62.7831898,38.6594571 62.6937724,38.7390949 C62.1671307,39.2050745 61.5977528,39.3702735 60.8672921,39.2583857 C59.9777213,39.1208296 59.0605362,39.1274112 58.1939772,39.4940082 C57.8402528,39.6434112 57.4786386,39.7743857 57.0262921,39.9507735 C56.998678,39.6190592 56.9782961,39.3854112 56.9519969,39.070151 C56.7396307,39.1175388 56.4766386,39.098452 56.3333079,39.2208704 C55.7126465,39.7487173 55.0860677,40.2798551 54.5383866,40.8801 C53.6810323,41.819299 52.889426,42.8197071 52.0610008,43.7858908 C51.6513906,44.2637173 51.2056189,44.3433551 50.5632606,44.0754827 C50.5428787,44.0662684 50.566548,43.951748 50.5685205,43.8859316 C50.7907488,43.6957224 51.0149496,43.5074878 51.4081228,43.1770898 C50.5967921,43.3146459 50.5967921,43.3146459 50.5967921,43.9102837 C50.1983591,44.1715745 49.7736268,44.403248 49.4133276,44.709952 C49.2772291,44.8257888 49.2417252,45.1140643 49.2404102,45.3246765 C49.2259457,47.386702 48.9971425,49.3941 48.1253236,51.3067224 C47.763052,52.1037582 47.6039417,52.9942531 47.3527843,53.8419673 C47.2699417,54.1216867 47.2186583,54.4158857 47.0957094,54.6765184 C46.8465244,55.2043653 46.7485598,55.7131255 46.9911701,56.2804622 C47.0871622,56.5055541 47.0490283,56.7898806 47.059548,57.0485388 C47.0634929,57.1446306 46.9997173,57.2519112 47.0233866,57.3387888 C47.294926,58.3253755 47.5427961,59.3198602 47.8662764,60.2893347 C48.1726622,61.2074724 48.5493984,62.1038908 48.9175874,63.0003092 C49.1385008,63.5393449 49.3857134,64.0698245 49.6500205,64.5891153 C50.3134181,65.8942531 50.6730598,66.3148194 51.7901189,67.2053143 C51.938052,68.5940388 52.5968472,69.8465235 52.154363,71.1779878 C51.8512646,71.1582429 51.5803827,71.1404724 51.2549299,71.1194112 L51.2549299,71.9098653 C51.0313866,71.9704163 50.8479496,72.0204367 50.6204614,72.0829622 C50.6461031,72.3106867 50.6697724,72.5186663 50.700674,72.7931204 C50.3384024,72.8148398 50.0214969,72.8339265 49.7131386,72.8536714 C49.6605402,73.0754724 49.6092567,73.2933245 49.5402213,73.5875235 C49.2029339,73.4762939 48.9103551,73.3788857 48.5927921,73.2742378 C48.1766071,73.9251612 47.6585126,73.5717276 47.1647449,73.3887582 C46.6538827,73.2005235 46.1660323,72.9050082 45.6005992,73.2360643 C45.389548,73.3584827 45.1140638,73.3907327 44.9339142,73.541452 C44.5335087,73.8764571 44.1718945,74.1272173 43.6472252,73.746799 C43.5433433,73.6717684 43.2750913,73.8224878 43.0088118,73.8876459 C42.049548,72.6891306 40.7227528,71.7630949 40.0639575,70.2052224 C39.5333709,68.9527378 38.5918591,67.929952 37.6214181,66.9492888 C37.173674,66.4971306 36.6319102,65.9883704 36.7423669,65.1821204 C36.7647213,65.0162633 36.4964693,64.8253959 36.4050795,64.6266306 C35.9514181,63.6341204 35.5069614,62.6370031 35.069737,61.6365949 C34.836989,61.1041408 34.9980717,60.5104776 34.6673591,59.9451153 C34.1998906,59.1461051 33.9329535,58.2240184 33.6285402,57.3374724 C33.3550283,56.5417531 33.1071583,55.7341867 32.9184614,54.9154316 C32.6508669,53.7531153 32.448363,52.5763194 32.2037803,51.3310745 C31.1787685,51.6634469 30.2319969,52.0537378 29.2470913,52.2709316 C27.6632213,52.6191 26.0563394,52.8613041 24.4560323,53.1258857 C24.2850874,53.1541867 24.0917882,53.0265031 23.9057213,52.9916204 C23.7189969,52.9567378 23.4895362,52.8698602 23.3448906,52.9409418 C21.6794929,53.755748 19.8175087,53.7827327 18.069926,54.2645082 C17.5288197,54.4139112 17.1882449,54.6041204 17.1560283,55.2326663 C16.3723118,55.0714163 15.7924142,55.3939163 15.163863,55.7282633 C13.6865047,56.513452 12.7009417,57.8343857 11.4089929,58.8867888 C10.6147567,58.718299 10.203174,58.9256204 9.73176063,59.6640796 C8.99341024,60.8217888 8.75474488,62.1315337 8.56144567,63.4452276 C8.47005591,64.0645592 8.37274882,64.6174163 7.97628819,65.1452633 C7.69948898,65.5125184 7.61007165,66.0331255 7.48646535,66.4984469 C7.40559528,66.8005439 7.41348504,67.1263347 7.37272126,67.5324214 C7.62585118,67.4448857 7.84347717,67.3698551 8.10909921,67.2790286 C8.14394567,67.3968398 8.21561102,67.5159673 8.20706378,67.6278551 C8.06965039,69.29235 8.76920945,70.5336459 10.1078394,71.4649469 C10.236048,71.5544571 10.3688591,71.6900388 10.419485,71.832202 C10.7409929,72.7398092 11.4780283,72.9063245 12.3163157,73.0471714 C13.1427685,73.1860439 13.9757961,73.4170592 14.746363,73.746799 C16.7023669,74.5839827 18.7661976,74.7320694 20.8412055,74.8143398 C21.743926,74.8505388 22.6512488,74.7695847 23.5572567,74.7452327 C23.6545638,74.7426 23.8038118,74.7248296 23.8426031,74.7774827 C24.3205913,75.4310388 25.0214654,75.1059061 25.6230598,75.230299 C26.319989,75.3737786 26.9820717,75.5606969 27.6770283,75.2717633 C27.7269969,75.2513602 27.8256189,75.2704469 27.8624378,75.3086204 C28.441678,75.9154469 29.2043551,75.4501255 29.8624929,75.6429673 C30.1175953,75.7173398 30.4555402,75.4343296 30.7586386,75.427748 C32.4555953,75.3869418 34.1591268,75.2954571 35.8238669,75.7660439 C35.9803472,75.810799 36.1598394,75.8700337 36.307115,75.8338347 C38.0665323,75.3981306 39.8068827,75.9325592 41.5524929,75.9865286 C42.3230598,76.0102224 43.0798197,76.028651 43.8543315,75.9917939 C44.8339772,75.9457224 45.8136228,75.9562531 46.7801189,76.359049 C47.3836858,76.6104673 48.1272961,76.6381102 48.7946386,76.5867735 C49.3436346,76.5453092 49.7539024,76.7197224 50.1523354,76.9941765 C50.4258472,77.1817531 50.6848945,77.2706051 51.0221819,77.3219418 C52.8203906,77.5931051 54.6172843,77.6938041 56.4332449,77.5608551 C56.8757291,77.5286051 57.3287331,77.673401 57.7791071,77.7168398 C58.6095047,77.798452 59.4425323,77.8517633 60.2722724,77.9406153 C62.2795598,78.1564929 64.2848748,78.3855337 66.2908472,78.6093092 C68.4243709,78.8469061 70.5651268,79.0390898 72.6887882,79.3530337 C73.2022803,79.4293806 73.763111,79.4254316 74.2917252,79.7999265 C74.7065953,80.0941255 75.4311386,79.9611765 76.0182685,80.0006663 C77.939426,80.1303245 79.859926,80.2790694 81.7823984,80.3679214 C83.082237,80.426498 84.3906228,80.3363296 85.687174,80.422549 C87.6320008,80.5522071 89.577485,80.3955643 91.5282291,80.5995949 C93.421115,80.797702 95.3449024,80.6956867 97.2529102,80.77335 C98.3292055,80.8167888 99.4015559,80.9622429 100.476536,81.0530694 C101.398981,81.1313908 102.320111,81.216952 103.243871,81.2630235 C104.579213,81.329498 105.94217,81.2176102 107.241351,81.4598143 C108.304497,81.6566051 109.362383,81.6460745 110.415009,81.7888959 C111.706957,81.9633092 113.0423,81.7895541 114.298087,82.2706714 C114.39408,82.3075286 114.61565,82.2575082 114.647867,82.1870847 C114.948993,81.5282633 115.503906,81.7875796 115.887217,81.9363245 C116.233052,82.0705898 116.445418,82.0896765 116.796513,81.9580439 C117.266611,81.7823143 117.766954,81.769151 118.313977,81.9238194 C119.079284,82.1396969 119.904422,82.1752378 120.707863,82.2088041 C121.040548,82.2232837 121.325894,82.1982735 121.618473,82.4161255 C121.773639,82.5326204 122.036631,82.5273551 122.252942,82.5345949 C122.938036,82.5609214 123.623788,82.5826408 124.308225,82.5694776 C124.47128,82.5661867 124.630391,82.4227071 124.879576,82.3002888 C125.032769,82.4536408 125.286556,82.6260796 125.429229,82.8643347 C126.024906,83.8640847 127.157745,84.280702 127.870454,85.1547429 C127.974993,85.2824265 128.31491,85.2995388 128.518072,85.2495184 C129.364249,85.0435133 129.891548,85.7536714 130.598997,85.9320337 C130.754162,86.6474571 131.458324,86.3802429 131.872536,86.6362684 C131.968528,87.3365541 132.061891,88.0276255 132.170375,88.8193959 C132.704906,88.9924929 133.15002,89.391998 132.901493,90.2100949 C133.399863,90.9432888 133.129639,91.7587531 133.155938,92.6044929 C132.898206,92.6782071 132.629954,92.7545541 132.386028,92.8230031 C132.25256,93.5173653 132.186812,94.2084367 131.967871,94.8475133 C131.856757,95.1706714 131.517497,95.519498 131.197961,95.6478398 C130.034221,96.1177684 128.802103,96.44685 127.546316,96.3296969 C126.869769,96.2671714 126.22215,96.0229929 125.552178,96.3316714 C125.49958,96.3560235 125.40819,96.3547071 125.360851,96.3244316 C124.414737,95.7169469 123.359481,96.0012735 122.343674,95.9328245 C121.048438,95.8452888 119.757146,95.6879878 118.463883,95.5609622 C118.398135,95.5550388 118.326469,95.5306867 118.268611,95.5484571 C117.226505,95.8749061 116.269213,95.0508857 115.233024,95.3279724 C114.407229,94.7974929 113.47032,94.9258347 112.562997,94.8725235 C111.658304,94.8192122 110.754269,94.745498 109.849576,94.6935031 C108.839686,94.6349265 107.829139,94.5631867 106.818591,94.5467327 C105.20382,94.5204061 103.6068,94.2907071 102.000576,94.1761867 C99.3101661,93.9846612 96.6197567,93.8036663 93.9293472,93.6101663 C93.5453787,93.5825235 93.1640402,93.5114418 92.7813866,93.4607633 C92.6840795,93.4482582 92.5223394,93.4640541 92.499985,93.4166663 C92.1410008,92.6367429 91.4716858,92.9763551 90.898363,92.9480541 C89.4808354,92.8769724 88.0652803,92.7512633 86.6470953,92.7130898 C83.5214339,92.6295031 80.4371937,92.0694061 77.320737,91.9338245 C76.269426,91.8870949 75.3055598,91.5652531 74.3009299,91.3717531 C73.6349024,91.2434112 72.9432331,91.2401204 72.2627409,91.1966816 C71.8334063,91.1690388 71.3245165,91.3250235 71.2147173,90.6694929 C70.6177252,90.5418092 70.0207331,90.4134673 69.4237409,90.2884163 C68.535485,90.1028143 67.6399969,89.9455133 66.765548,89.7098908 C66.6031504,89.6657939 66.5242528,89.3090694 66.4617921,89.1971816 C65.8365283,88.9766969 65.3052843,88.7331765 64.7483984,88.6074673 C64.2184693,88.4870235 63.660926,88.4883398 62.9797764,88.4231816 C62.9100835,90.7149061 62.843678,92.8921102 62.7772724,95.0686561 C62.8384181,95.0837939 62.8995638,95.0989316 62.9607094,95.1147276 C63.0678787,94.9337327 63.1743906,94.7533959 63.2809024,94.572401 L63.4235756,94.6243959 C63.2546031,95.4694776 62.860115,96.3441765 62.9646543,97.1537173 C63.1711031,98.7570031 62.2466858,100.015411 61.9830362,101.458105 C61.9376701,101.702942 61.9764614,101.9616 61.9764614,102.400595 C60.7824772,103.826835 60.5950953,105.998115 59.3702094,107.667876 L59.3702094,106.786595 C59.0421268,107.325631 58.834363,107.667217 58.5950402,108.060141 C58.5069378,107.948911 58.4392173,107.862692 58.3254732,107.719212 C58.2202764,107.837682 58.1032449,107.933773 58.0296071,108.056192 C57.3576622,109.169804 56.6798,110.280126 56.0328394,111.408217 C55.512115,112.316483 55.0038827,113.233962 54.5456189,114.174478 C54.343115,114.589779 54.1840047,114.968881 54.7132764,115.457238 C55.4174378,116.106845 55.2491228,116.647197 54.5002528,117.328396 C54.2135913,117.587712 53.991363,117.919427 53.7487528,118.224814 C53.6100244,118.399886 53.5127173,118.612472 53.3555795,118.765824 C52.3903984,119.705682 51.5310717,120.753478 50.3252528,121.437967 C49.6842094,121.80259 49.1391583,122.3436 48.5678079,122.824717 C47.895863,123.390738 47.259422,124.000197 46.5736701,124.547789 C46.0194142,124.991391 45.4454339,125.431702 44.8195126,125.755518 C44.487485,125.927299 44.1942488,126.062222 44.004237,126.393279 C43.9437488,126.497927 43.8142252,126.574932 43.6998236,126.633508 C42.9535835,127.017876 42.200111,127.38908 41.4545283,127.774763 C40.9699654,128.025523 40.4978945,128.194013 39.914052,128.165054 C39.4498709,128.14136 38.9561031,128.348023 38.5044142,128.524411 C37.2210126,129.027248 35.8633157,128.842304 34.5430953,128.990391 C34.200548,129.029881 33.8211819,128.938396 33.4878394,128.822559 C32.9828945,128.645513 32.5351504,128.251932 31.9690598,128.748845 C31.8434811,128.859416 31.4746346,128.659993 31.2175598,128.659335 C30.6988079,128.658018 30.1793984,128.706722 29.659989,128.712646 C29.309552,128.715937 29.0038236,128.709355 28.7243945,128.34934 C28.4923039,128.051192 28.0274654,127.935355 27.6671661,127.73659 C27.4771543,127.6326 27.1378945,127.537824 27.1267173,127.416064 C27.0688591,126.753952 26.5073709,126.570983 26.0892134,126.3426 C25.3804496,125.954284 24.8123866,125.478432 24.3843669,124.789993 C24.1318945,124.384564 23.7538433,124.06009 23.4658669,123.674406 C23.3665874,123.542773 23.4132685,123.304518 23.3179339,123.166962 C23.0108906,122.72336 22.6867528,122.286998 22.3251386,121.887493 C22.2521583,121.806539 21.9885087,121.89934 21.6834378,121.921059 C21.5302449,121.452447 21.2863197,120.946978 21.2113669,120.416498 C21.0956504,119.606299 20.4986583,119.080427 20.1686031,118.401202 C19.9187606,117.88586 19.7537331,117.390921 19.7990992,116.805156 C19.8286858,116.42408 19.7142843,116.031156 19.6630008,115.644156 C19.6590559,115.611906 19.6314417,115.581631 19.6320992,115.552013 C19.674178,114.585171 19.6150047,113.633467 19.2402409,112.72586 C19.6439339,111.427304 19.5821307,109.996457 20.3678197,108.806498 C20.5275874,108.563636 20.6972173,108.316166 20.8004417,108.047636 C21.5361622,106.135671 22.6933276,104.505401 24.0885008,103.027824 C24.2903472,102.81458 24.4941661,102.590146 24.6394693,102.337411 C25.1746583,101.410059 26.0740913,100.826268 26.7519535,100.047661 C28.0156307,98.5937786 29.7132449,97.579549 30.7941425,95.955202 C31.5693118,94.7902531 32.3464535,93.6266204 33.1446346,92.4294214 C33.0177409,92.2701459 32.9046543,92.1299571 32.716615,91.895651 C33.1663315,91.3368704 33.7087528,90.8057327 34.0697094,90.1719214 C34.4332961,89.5348194 34.6173906,88.795702 34.7140402,88.0065643 C34.5904339,88.1105541 34.4668276,88.2145439 34.2235598,88.4198908 C34.2860205,87.7814724 34.335989,87.2602071 34.3971346,86.6336357 C33.5989535,86.8245031 32.8980795,87.0041816 32.1912882,87.1562173 C31.8835874,87.2220337 31.5647094,87.2444112 31.2491189,87.2575745 C30.3713827,87.2964061 29.4883866,87.2806102 28.6139378,87.3582735 C27.4672921,87.4583143 26.335111,87.5208398 25.2062173,87.2108449 C24.9366504,87.1364724 24.6263197,87.1595082 24.3436031,87.1983398 C23.8485205,87.2674469 23.379737,87.3299724 22.9339654,86.993651 C22.8064142,86.896901 22.5585441,86.9054571 22.3797094,86.9403398 C21.8123039,87.0489367 21.2527882,87.198998 20.6873551,87.3201 C20.1146898,87.4425184 19.7898945,87.2503347 19.4874535,86.5954622 C19.286922,86.6198143 18.9903984,86.5638704 18.8615323,86.6849724 C18.1074024,87.3964469 17.4696465,86.8113398 16.8647646,86.4875235 C16.5853354,86.3387786 16.3446976,86.2486102 16.0422567,86.1591 C14.9896307,85.8484469 13.8508748,85.779998 12.909363,85.1099878 C12.3518197,84.7131153 11.740363,84.3945643 11.1584929,84.0319163 C10.6666976,83.7252122 10.0986346,83.4876153 10.0263118,82.7860133 C10.0144772,82.6675439 9.9263748,82.5319622 9.8330126,82.4496918 C8.52199685,81.2867173 7.23267795,80.0967582 5.87761102,78.9884112 C4.99395748,78.265748 4.16092992,77.5365031 3.54552835,76.5518908 C3.12802835,75.8851714 2.58297717,75.2921663 2.05107559,74.706401 C1.62897323,74.2417378 1.71050079,73.6171408 1.44027638,73.1024571 C1.11153622,72.4752276 0.803177953,71.8150898 0.635520472,71.1332327 C0.509941732,70.618549 0.513886614,70.0189622 0.647355118,69.5069112 C0.900485039,68.5367786 0.997792126,67.6304878 0.426441732,66.7373602 C0.340969291,66.6044112 0.408689764,66.3681306 0.420524409,66.1805541 C0.459315748,65.5362122 0.555965354,64.9083245 0.146355118,64.3041306 C-0.152798425,63.8625031 0.0687724409,63.3372888 0.266016535,62.9101408 C0.823559843,61.7070184 1.27524882,60.4933653 1.09575669,59.1342582 C1.57703228,58.4030388 1.36006378,57.4704214 1.89985512,56.7016867 C2.27922126,56.1613347 2.28711102,55.3458704 2.41400472,54.6442684 C2.48961496,54.2263347 2.55141811,53.8446 2.80323307,53.4608908 C3.38904803,52.5677633 3.85717402,51.5976306 4.43181181,50.6959469 C4.63037087,50.385952 4.98935512,50.1681 5.30034331,49.9416918 C5.74282756,49.6191918 6.27209921,49.3921255 6.64817795,49.0097327 C7.22018583,48.4292327 8.11698898,48.0922531 8.1998315,47.1089571 C8.72055591,46.8641204 9.23010315,46.4501357 9.76529213,46.4159112 C10.5010126,46.3678653 10.9566465,45.9426918 11.4931504,45.5945235 C12.1355087,45.1765898 12.7278984,44.6401867 13.4235126,44.355202 C14.5879102,43.8780337 15.8206858,43.5700133 17.015985,43.1672173 C17.3519575,43.0540133 17.651111,42.8361612 17.9824811,42.7025541 C18.3947213,42.5353806 18.8187961,42.2958092 19.2435283,42.2833041 C20.2757724,42.2550031 21.2475283,42.0963857 22.1693157,41.5981561 C22.4737291,41.4342735 22.8984614,41.291452 23.2074772,41.3724061 C24.5086307,41.7126765 25.6467291,41.1440235 26.8183591,40.8103347 C28.0978157,40.4470286 29.3279614,39.8902224 30.6205677,39.6072122 C31.9782646,39.3103806 33.0460126,38.4093551 34.4681425,38.1572786 C34.2945677,37.8176663 34.1880559,37.6090286 34.0756268,37.3898602 C34.2104102,37.2996918 34.3018,37.1904367 34.3629457,37.2055745 C34.9165441,37.3418143 35.5082764,37.195702 36.0513551,37.5313653 C36.2591189,37.659049 36.7463118,37.5695388 36.9652528,37.3984163 C37.7009732,36.8251561 38.5372882,36.5052888 39.4025323,36.2235949 C39.5557252,36.1735745 39.7345598,36.1255286 39.8397567,36.0169316 C40.597174,35.2376663 41.6274457,34.9684776 42.5617252,34.5182939 C42.7925008,34.4070643 43.0554929,34.2892531 43.2060559,34.0970694 C43.5459732,33.6613653 43.9805677,33.3665082 44.4947173,33.2848959 C45.2830362,33.1591867 45.8274299,32.6458194 46.4375717,32.2272276 C46.5979969,32.1179724 46.7354102,31.9481663 46.911615,31.8922224 C48.2798315,31.4565184 49.6342409,30.9451255 51.0333591,30.6456612 C52.7585874,30.2764316 54.2273984,29.3563194 55.8231031,28.7271153 C57.5351819,28.052498 59.0605362,26.9323041 60.9475047,26.6446867 C61.7338512,26.524901 62.507048,26.1734418 63.2730126,25.855549 C64.8470205,25.202651 66.5117606,24.7722122 68.117985,24.1884214 C68.5893984,24.0166408 68.9681071,23.6013398 69.4237409,23.3663755 C69.906989,23.1162735 70.439548,22.9662122 70.9359457,22.7391459 C71.5572646,22.4554776 72.1877882,22.1783908 72.7729457,21.8289061 C73.9228787,21.1411255 75.1589417,20.6843602 76.4390559,20.3236867 C76.7125677,20.2466816 76.9808197,20.1525643 77.2517016,20.0670031 C77.8362016,19.8820592 78.4207016,19.6971153 79.0656898,19.6655235 C78.1563945,20.0834571 77.2451268,20.4974418 76.3404339,20.9245898 C76.2017055,20.9904061 76.0997961,21.1319112 75.9663276,21.2161561 C75.8381189,21.2977684 75.6211504,21.4465133 75.5639496,21.4037327 C75.0254732,20.9996204 74.6835835,21.505748 74.2542488,21.6340898 C73.3396937,21.9085439 72.7486189,22.5936918 72.1345323,23.3249112 C73.0688118,23.017549 73.9998039,22.7009724 74.9380283,22.404799 C75.5876189,22.2007684 76.2470717,22.0263551 76.9006071,21.8335133 C77.6678866,21.6071051 77.8855126,21.4109724 78.0945913,20.7633398 C79.5042291,21.1641612 80.8546937,20.8693041 82.1630795,20.3394827 C82.7081307,20.1183398 83.1926937,19.8504673 83.8113827,20.1440082 C83.9711504,20.2196969 84.3485441,20.0630541 84.4925323,19.8971969 C84.8048354,19.5378398 85.1539575,19.3601357 85.6168236,19.2515388 C86.4787803,19.0494827 87.2598669,18.6150949 88.160615,18.4525286 C89.0659654,18.2886459 89.9042528,17.7713296 90.8740362,17.7943653 C90.9529339,17.7963398 91.0331465,17.7068296 91.1140165,17.6627327 C91.5025874,17.4475133 91.8681465,17.1526561 92.283674,17.0335286 C93.3764063,16.7202429 94.4783433,16.4016918 95.5986898,16.2397837 C96.7920165,16.0666867 97.8420126,15.4197122 99.0090402,15.3585031 C99.1109496,15.1353857 99.1444811,14.8648806 99.281237,14.7951153 C100.502178,14.1705184 101.651454,13.3228041 103.036765,13.3761153 C103.357615,13.116799 103.614032,12.8430031 103.926335,12.6705643 C104.695587,12.246049 105.491139,11.8676051 106.276828,11.4700745 C106.334028,11.4411153 106.387942,11.3871459 106.447115,11.3812224 C108.287402,11.2035184 109.795662,10.1491408 111.45054,9.4811051 C111.691178,9.3843551 111.921954,9.21586531 112.169166,9.18756429 C113.161304,9.07370204 113.914119,8.3971102 114.825387,8.10093673 C115.195548,7.98049286 115.562422,7.84293673 115.939158,7.7468449 C116.955623,7.48621224 117.897792,7.06893673 118.829442,6.58123776 C119.470485,6.24557449 120.251572,6.18963061 120.927461,5.90662041 C121.97154,5.4696 122.73356,4.65742653 123.650745,3.70769694 L122.724355,3.70769694 C122.698713,3.64253878 122.672414,3.57803878 122.646772,3.51288061 L124.364769,2.50852347 C124.276666,3.01399286 123.48243,3.16339592 123.915709,3.80444694 C124.568587,3.63990612 125.216206,3.41415612 125.881576,3.32530408 C126.740902,3.21078367 127.101202,2.53550816 127.572615,1.98133469 C127.629816,1.91354388 127.501607,1.68779388 127.458871,1.53246735 C127.83758,1.05990612 128.265599,1.07241122 128.751477,1.52522755 C128.939517,1.0710949 129.510867,1.06253878 129.4918,0.447156122 C129.481938,0.125314286 130.261709,0.00552857143 130.595709,0.191788776 C131.314993,0.593268367 132.002717,1.05332449 132.92056,0.882860204 C133.310446,0.811120408 133.74241,1.01515102 134.157938,1.02897245 C134.712851,1.04674286 135.26908,0.980926531 135.82465,0.988166327 C136.635981,0.998696939 137.451257,1.00462041 138.257328,1.08096735 C139.325076,1.18298265 140.387564,1.34620714 141.450709,1.49495204 C141.916206,1.55945204 142.329761,1.7035898 142.536209,2.20445204 C142.597355,2.35122245 142.791969,2.47100816 142.951737,2.54538061 C143.9373,3.00148776 144.965599,3.37861531 145.910398,3.90646224 C146.655981,4.32242143 147.296367,4.92595714 147.994611,5.43076837 C148.383839,5.71246224 148.79345,5.96322245 149.195828,6.22517143 C149.302997,6.29493673 149.469339,6.32718673 149.519308,6.42327857 C149.926288,7.2038602 150.747481,7.54873776 151.307654,8.15424796 C151.997351,8.89994694 152.581851,9.74173776 153.220922,10.5348245 C153.503639,10.8856255 153.808052,11.2186561 154.101288,11.5615592 C154.182816,11.6569929 154.27815,11.7471612 154.336666,11.8564163 C155.074359,13.2207888 155.900154,14.5469878 156.514241,15.9653296 C157.152654,17.4402735 158.234867,18.6723551 158.733894,20.1992939 C158.986367,20.9686867 159.372965,21.6031561 159.920646,22.1843143 C160.096851,22.3718908 160.204678,22.7286153 160.174434,22.9885898 C160.106713,23.5704061 160.350639,24.0936459 160.683981,24.4135133 C161.170517,24.880151 161.252702,25.4850031 161.541335,26.0115337 C161.588674,26.0964367 161.660997,26.20635 161.640615,26.2840133 C161.399977,27.1903041 161.966068,27.9037531 162.20802,28.6902582 C162.369103,29.2115235 162.673517,29.6919827 162.436824,30.2770898 C162.383568,30.4080643 162.440769,30.6035388 162.492052,30.7536 C162.80567,31.6737122 163.12915,32.5911918 163.455918,33.5066969 C163.709048,34.2155388 164.002942,34.905952 163.920757,35.695748 C163.895115,35.9333449 164.086442,36.1847633 164.127863,36.437498 C164.254757,37.2220286 164.697241,37.9618041 164.437536,38.8068857 C164.375733,39.0096 164.417154,39.2807633 164.499339,39.4834776 C165.162737,41.1196714 164.989162,42.9737173 165.832052,44.560549 C165.891883,44.6737531 165.97604,44.8330286 165.939879,44.9297786 C165.64204,45.7156255 165.972753,46.4777786 166.008914,47.2484878 C166.045733,48.0165643 166.151587,48.7820082 166.186434,49.5500847 C166.269934,51.3745133 166.340284,53.1996 166.388938,55.0246867 C166.3988,55.3774622 166.336997,55.751299 166.22128,56.0849878 C165.834682,57.1933347 165.691351,58.3444622 165.519091,59.496248 C165.244265,61.3292327 164.962863,63.1635337 164.590729,64.9780898 C164.423072,65.7928959 164.05554,66.5728194 163.720225,67.3428704 C163.634753,67.5390031 163.338887,67.6594469 163.119288,67.7772582 C162.691269,68.0069571 162.410524,68.3077378 162.318477,68.8178143 C162.215253,69.3917327 162.021296,69.9485388 161.868103,70.5145592 C161.785918,70.8192888 161.615631,71.0937429 161.808272,71.4471765 C161.960808,71.7275541 161.689269,71.8907786 161.507804,72.1046816 C161.351324,72.2869929 161.480847,72.6858398 161.372363,72.9418653 C161.023898,73.7678602 160.623493,74.5727939 160.244127,75.3862837 C160.063977,75.770651 159.845694,76.1431714 159.717485,76.5439929 C159.572839,76.9948347 159.319709,77.3298398 159.010694,77.6878806 C158.373595,78.4237071 157.841036,79.2516765 157.270343,80.0447633 C156.993544,80.4304469 156.822599,80.9313092 156.185501,80.8648347 C156.057292,80.8516714 155.853473,80.9918602 155.779178,81.1169112 C155.334721,81.8665592 154.497749,81.9442224 153.822517,82.2897582 C153.042087,82.6899214 152.249824,83.0723143 151.437835,83.4040286 C150.87569,83.6343857 150.27278,83.7673347 149.554154,83.9832122 C149.680391,83.6791408 149.734304,83.5501408 149.823064,83.3362378 C148.999241,83.4968296 148.235249,83.6120082 147.492954,83.8114316 C147.251658,83.8765898 147.02154,84.1286663 146.86769,84.3511255 C146.542894,84.8203959 146.147091,85.1218347 145.577713,85.2495184 C144.663816,85.453549 143.750576,85.6766663 142.861662,85.9682327 C142.359347,86.1334316 141.897139,86.3341714 141.367867,86.1110541 C141.253465,86.0630082 141.08515,86.0307582 140.984556,86.0788041 C139.922725,86.5921714 138.873387,86.054452 137.819446,86.058401 C137.7583,86.0590592 137.652446,86.0755133 137.640611,86.0498449 C137.24941,85.2179265 136.471611,85.5884724 135.852922,85.441702 C135.50117,85.3587735 135.194784,85.0862939 134.864072,84.9066153 C134.236178,84.5650286 133.534646,84.3425694 133.089532,83.7146816 C133.008005,83.5995031 132.808788,83.5330286 132.65428,83.5099929 C131.92908,83.3987633 131.412957,82.9913602 130.909328,82.4793092 C130.640418,82.2068296 130.171635,82.1324571 129.763339,81.9554112 C129.889576,80.9016918 128.952666,80.523248 128.314253,80.0197531 C127.458871,79.346452 127.387863,79.1226765 126.844127,78.1828194 C126.193879,77.0586765 125.758627,75.8009265 124.753339,74.8511969 C124.238532,74.3648143 123.788158,73.7046765 123.590914,72.8905286 C123.360139,71.9401408 122.850591,71.0549112 122.442954,70.1499367 C121.997182,69.1613755 121.154292,68.3577582 121.118131,67.1697735 C121.110241,66.9288857 120.814375,66.6991867 120.657894,66.4596153 C120.490894,66.2035898 120.204891,65.9495388 120.189769,65.6829827 C120.130595,64.6292633 119.849194,63.656498 119.395532,62.71335 C119.306772,62.5290643 119.39619,62.265799 119.366603,62.043998 C119.323867,61.7228143 119.356741,61.2963245 119.166072,61.1107224 C118.605898,60.5611561 118.703863,59.8444163 118.553957,59.2007327 C118.227847,57.8054265 117.95302,56.3982735 117.689371,54.9891459 C117.618363,54.6087276 117.671619,54.2059316 117.651237,53.8143245 C117.537493,51.6101357 117.360631,49.4079214 117.322497,47.2037327 C117.296198,45.7176 117.456623,44.2268602 117.550643,42.7407276 C117.56182,42.5617071 117.680166,42.3892684 117.750517,42.2148551 C117.797855,42.0970439 117.913572,41.9568551 117.883328,41.8653704 C117.647292,41.1446816 117.577599,40.4720388 118.223245,39.9014112 C118.286363,39.8448092 118.277816,39.6197173 118.218643,39.5249418 C117.665702,38.6298398 118.395505,37.8367531 118.426406,36.9890388 C118.431666,36.8481918 118.805772,36.7211663 119.06219,36.5533347 C118.884013,36.2979673 118.598666,36.0807735 118.841276,35.663498 C119.064162,35.2784724 119.122678,34.7973551 119.254174,34.3590184 C119.337017,34.083248 119.392245,33.8660541 119.777528,33.7719367 C120.195028,33.6692633 120.201603,33.1888041 120.039863,32.728748 C119.934666,32.4292837 119.928091,32.0284622 120.035918,31.7316306 C120.655265,30.0256714 121.29828,28.3276102 121.981402,26.6466612 C122.335127,25.7765694 122.796678,24.9512327 123.192481,24.0975949 C123.365398,23.7250745 123.210233,23.3150388 123.467308,22.8931561 C124.086654,21.8789265 125.095887,21.3135643 125.897355,20.5171867 C126.277379,20.1400592 126.707371,19.8241408 126.946694,19.300901 C126.169552,19.0626459 125.882891,20.074901 125.154402,19.9248398 C125.375316,19.3436816 125.548233,18.8000388 125.785583,18.2846969 C126.141938,17.5093806 127.47728,17.3020592 128.096627,17.8838755 C128.559493,18.3182633 128.952666,18.8211 129.693646,18.9007378 C129.999375,18.9329878 130.343894,19.3252531 130.522729,19.6385388 C130.718658,19.9821 130.797556,20.3315847 131.304473,20.3210541 C131.441887,20.3184214 131.600339,20.5428551 131.720658,20.6869929 C131.894233,20.8949724 131.908698,21.199702 132.312391,21.243799 C132.595107,21.2753908 132.802213,21.6222429 132.58656,21.9434265 C132.355127,22.2883041 132.580643,22.501549 132.748957,22.72335 C132.885713,22.9023704 133.052056,23.0958704 133.249957,23.1860388 C134.2513,23.6421459 134.355182,24.6471612 134.574123,25.5034316 C134.753615,26.2070082 134.759532,27.0283959 134.579383,27.7293398 C134.438682,28.2762735 133.84958,28.6928908 133.537934,29.2141561 C133.008005,30.0993857 132.65691,31.0392429 133.000115,32.1021765 C133.047454,32.2469724 133.059288,32.4286255 133.018524,32.5727633 C132.857442,33.132202 132.699646,33.6955898 132.482678,34.2339673 C132.24204,34.8282888 131.84032,35.3719316 131.683182,35.9833653 C131.453064,36.8811 131.15654,37.7202582 130.758765,38.565998 C130.494457,39.1287276 130.75745,39.9540643 130.825828,40.658299 C130.899465,41.4224265 130.934312,42.1608857 130.389918,42.7973296 C130.287351,42.9164571 130.199249,43.0856051 130.186757,43.238299 C130.066438,44.6790184 129.321513,46.0710337 129.855387,47.5657224 C129.902725,47.6986714 129.861961,47.8915133 129.800816,48.0297276 C129.608174,48.4621408 129.472076,48.8781 129.756765,49.3302582 C129.813308,49.4210847 129.791611,49.5908908 129.753477,49.7067276 C129.417505,50.7262224 129.508237,51.7740184 129.529934,52.8191816 C129.534536,53.0396663 129.551631,53.3634827 129.424737,53.465498 C128.978308,53.8209061 129.184757,54.1986918 129.23341,54.6205745 C129.32217,55.3919418 129.303761,56.1751561 129.351099,56.9517888 C129.417505,58.0232786 129.573328,59.0947684 129.56215,60.1649418 C129.547028,61.5345796 130.304446,62.6857071 130.50169,63.9849214 C130.539166,64.2291 130.545083,64.4785439 130.560206,64.7260133 C130.570068,64.8793653 130.510894,65.1261765 130.58256,65.1715898 C131.092107,65.4914571 130.934969,66.0508959 131.108544,66.4859418 C131.426107,67.2770541 131.791666,68.0484214 132.125666,68.832952 C132.223631,69.0619929 132.293324,69.3048551 132.351182,69.5477173 C132.41693,69.8228296 132.368934,70.1657327 132.518182,70.3717378 C133.09545,71.1727224 133.490595,72.1000745 134.240123,72.7858806 C134.516922,73.0399316 134.854209,73.4295643 134.847635,73.750748 C134.83317,74.424049 135.26119,74.4332633 135.654363,74.4253653 C136.509745,74.4089112 137.039017,75.0078398 137.68269,75.3935235 C137.779997,76.4038041 138.630776,76.3636561 139.309954,76.5505745 C139.475639,76.5959878 139.661706,76.5709776 139.839225,76.5709776 C140.321158,76.5716357 140.726824,76.5617633 141.118024,77.0448551 C141.385619,77.3752531 142.027977,77.4456765 142.521087,77.5391357 C143.187772,77.6655031 143.882729,77.6523398 144.545469,77.7938449 C145.008993,77.8932276 145.475146,78.0959418 145.875552,78.3532837 C146.594835,78.8146561 146.752631,78.810049 147.193143,78.0814622 C147.226674,78.0261765 147.268753,77.9761561 147.203005,78.0656663 C147.87495,77.7813398 148.407509,77.5634878 148.932835,77.3311561 C149.260261,77.1863602 149.564674,76.9388908 149.901961,76.8849214 C150.458847,76.7954112 150.869115,76.5453092 151.12619,76.072748 C151.295162,76.1543602 151.405619,76.2070133 151.633107,76.3156102 C151.998666,75.2836102 152.355678,74.2746459 152.71269,73.2650235 C152.652859,73.234748 152.593686,73.2038143 152.533855,73.1735388 C152.374087,73.4216663 152.214977,73.6691357 151.932261,74.1074724 C152.766603,71.1878602 153.540457,68.4768857 154.37217,65.5671459 C154.491831,65.9429571 154.54443,66.1088143 154.62004,66.3464112 C155.023733,65.3348143 155.270946,64.3561255 155.345241,63.3201765 C155.407044,62.4494265 155.653599,61.5846 155.651627,60.7184571 C155.649654,59.7660949 155.77852,58.8347939 155.839666,57.8929622 C155.978394,55.7322122 155.844269,53.5813347 155.404414,51.4548092 C155.279493,50.8499571 155.151284,50.240498 155.098686,49.6264316 C155.067127,49.2585184 155.245304,48.8715184 155.211772,48.5029469 C155.13682,47.6624724 154.995461,46.8266051 154.868568,45.9907378 C154.820572,45.6715286 154.737072,45.3575847 154.670666,45.0410082 C154.610835,44.7527327 154.574017,44.4578755 154.489202,44.177498 C154.338639,43.6851918 154.102603,43.2126306 154.003981,42.7124265 C153.743619,41.3987327 153.572674,40.0672684 153.299162,38.7575235 C153.087454,37.7419776 152.771863,36.7488092 152.504926,35.7451102 C152.078221,34.1378755 151.685048,32.5201102 151.214292,30.9260388 C150.965107,30.0829316 150.572591,29.2832633 150.265548,28.455952 C150.166926,28.1893959 150.144572,27.8958551 150.072906,27.6181102 C149.893414,26.9270388 149.756658,26.2228041 149.253686,25.6581 C149.026198,25.4014163 148.873005,25.0802327 148.666556,24.7583908 C148.20369,25.0460082 147.903879,24.682702 147.69743,24.3634929 C147.168816,23.5473704 146.634284,22.7213755 146.231906,21.8394367 C145.389674,19.9886816 144.323241,18.2945694 143.160816,16.6287582 C142.492158,15.6691561 141.626257,14.9826918 140.833335,14.1869724 C140.677513,14.0303296 140.646611,13.7492939 140.556536,13.5235439 C140.987843,13.4103398 141.154186,13.152998 141.067398,12.7054469 C140.374414,12.7574418 140.545359,13.1891969 140.586123,13.5571102"></path>
                </g>
            </g>
        </g>
    </g>
</svg>