<svg width="132px" height="159px" viewBox="0 0 132 159" version="1.1" xmlns="http://www.w3.org/2000/svg" xmlns:xlink="http://www.w3.org/1999/xlink">
    <!-- Generator: Sketch 48.2 (47327) - http://www.bohemiancoding.com/sketch -->
    <title>pessoa</title>
    <desc>Created with Sketch.</desc>
    <defs></defs>
    <g id="06.Para-produtoes" stroke="none" stroke-width="1" fill="none" fill-rule="evenodd" transform="translate(-1085.000000, -1069.000000)">
        <g id="pessoaIcon" transform="translate(90.000000, 727.000000)" fill="#E45D57">
            <g id="portadores" transform="translate(852.000000, 324.000000)">
                <g id="pessoa" transform="translate(143.000000, 18.000000)">
                    <path d="M57.8851485,70.0942509 C57.0612541,67.3688275 57.2266542,64.634809 57.6956761,61.8914141 C58.0357946,59.9004798 56.5223449,58.6745081 55.3800747,57.8548495 C54.1197725,56.9515842 52.2328136,56.8961068 50.7131517,56.160055 C50.2301523,55.9264249 49.7968506,56.5812142 49.1538869,56.3507096 C47.4237863,55.7318635 47.2428557,55.8240653 46.8639108,57.5110461 C46.3576157,59.7629584 46.1099038,62.0555021 46.1766851,64.3722682 C46.0035197,64.8192127 45.880052,65.3021002 46.1906625,65.7045065 C46.9726245,66.7124755 47.2125711,68.0415883 47.7957424,69.0026751 C48.4884038,70.1426959 47.3344858,71.1686365 48.1972065,72.0125176 C48.6079889,72.8321762 49.3689846,72.505563 50.0018536,72.5485384 C50.502713,72.5821374 51.061812,72.2938113 51.4283324,72.8853095 L51.445416,72.9618839 C52.3694822,74.0917469 53.7843132,74.0464274 54.9289129,73.9612579 C55.5687706,73.9143756 57.1101753,74.0776822 57.1148344,72.5352551 C57.3687585,72.4493042 57.487567,72.2789653 57.4370928,72.0031412 C57.4370928,72.0039226 57.5062037,71.8546806 57.5062037,71.8546806 C58.1025759,71.3725745 58.06142,70.6771539 57.8851485,70.0942509" id="Fill-9"></path>
                    <path d="M127.734074,138.80115 C128.239943,138.586417 128.791799,138.481334 129.393475,138.499609 C128.791799,138.481334 128.239943,138.586417 127.734074,138.80115 M76.9985533,119.136242 C77.3449964,119.298435 77.6899066,119.465196 78.0739066,119.462912 C77.6899066,119.464435 77.3449964,119.298435 76.9985533,119.136242 M78.3628647,119.427884 C78.2762539,119.447683 78.192709,119.456059 78.1099305,119.459105 C78.192709,119.456059 78.2762539,119.447683 78.3628647,119.427884 M31.845212,87.6914257 C31.8490443,87.921389 31.8467449,88.1505908 31.8482778,88.3797927 C31.8467449,88.1505908 31.8490443,87.921389 31.845212,87.6914257 M35.4790323,85.5577927 C35.4223138,85.6857193 35.3671281,85.8136459 35.311176,85.9415725 C35.3671281,85.8136459 35.4230802,85.6857193 35.4790323,85.5577927 M131.495128,134.012279 C129.96296,131.219976 127.566984,129.657444 124.397643,129.575967 C123.470984,129.552361 122.549691,129.591958 121.665954,129.347527 C120.324637,128.97593 119.174937,129.056646 118.045931,130.022187 C117.359176,130.608517 116.416422,130.875793 115.443775,130.915389 C113.362817,130.998389 111.352374,131.494105 109.35496,132.043123 C108.833763,131.966215 108.399176,132.121554 108.061164,132.527417 C108.061164,132.527417 107.956158,132.545692 107.956158,132.545692 C106.979679,132.343141 106.147296,133.110701 105.177715,132.950031 L105.15702,132.939371 C104.447272,132.127646 103.774314,131.282417 103.020877,130.513334 C100.631032,128.072829 99.0957988,124.95538 96.6431042,122.575031 C95.7455713,121.704673 94.9208527,120.560949 93.5672719,120.47338 C92.5371401,120.407132 91.5936192,120.068279 90.597212,119.932738 C90.5979784,119.932738 90.5435593,119.90304 90.5435593,119.90304 C89.7196072,119.022783 89.7510323,119.823848 89.6444934,120.354591 C89.6444934,120.353829 89.6314635,120.360683 89.6314635,120.360683 C89.328709,120.36449 89.026721,120.369059 88.7239665,120.373628 C88.7239665,120.373628 88.6710802,120.360683 88.6710802,120.360683 C88.2962778,120.012692 87.8172359,119.935783 87.3412599,119.849738 C87.1488766,119.540582 86.8514874,119.562664 86.5318707,119.551242 C85.6251401,119.517738 84.6256671,120.429976 83.8699305,119.666985 C83.1210922,118.913132 84.1826491,117.930839 83.9933317,117.000325 C83.9235832,116.657664 84.0891401,116.244949 84.2156072,115.887059 C85.3599425,112.652343 85.104709,109.33082 84.8510084,106.010059 C84.8280144,105.708517 84.7214754,105.387939 84.5674156,105.125994 C83.5679425,103.429444 83.1065293,101.537958 82.6259545,99.6677927 C82.0802299,97.5417743 81.2524455,95.5512972 80.1456671,93.6651413 C77.3495952,88.904444 74.3542419,84.3417284 69.6481341,81.1199578 C64.8117269,77.8075725 59.6112479,75.9747193 53.6703617,76.0173615 C48.7971641,76.0516275 44.1148168,76.2602697 39.6332838,78.6718385 C35.5250204,80.8816183 31.1914156,82.645178 28.0933557,86.3192606 C27.8043976,86.3337284 27.6480383,86.4357651 27.8043976,86.7472055 C27.759176,87.0632147 27.714721,87.3799853 27.6702659,87.6959945 C26.9858108,88.2632881 26.6723257,89.285178 25.4873677,89.2562422 C25.1232958,89.2471046 24.9508407,89.783178 25.3233437,90.1486826 C25.5417868,90.362655 25.7916551,90.5811963 26.0698826,90.6908477 C27.8534515,91.3997743 29.808709,91.8657927 30.4318467,94.0694807 C30.4801341,94.2415725 30.7828886,94.3557927 30.9829365,94.4700128 C33.0861222,95.6799853 36.6379305,95.4264165 38.0865533,93.5889945 C39.4884216,91.8086826 41.3670323,90.7951688 43.1299066,89.557022 L43.5828886,89.4481321 C45.0315114,88.7772789 46.552182,88.2450128 47.8214515,87.234545 C47.9739784,87.1804807 48.1272719,87.125655 48.2797988,87.0708294 C48.8109605,87.1736275 49.2562778,86.9634624 49.6839665,86.6900954 C50.0273437,86.7532972 50.3622898,86.7487284 50.6719425,86.5576 C51.0183856,86.6626826 51.2713198,86.5012514 51.5012599,86.2712881 C51.6813796,86.2195083 51.8630323,86.1684899 52.0439186,86.1167101 C53.6082778,86.1494532 55.1787689,85.8090771 56.7385293,86.1867651 C58.178721,86.4951596 59.5223377,87.0616917 60.8759186,87.6305083 C64.2246132,89.0399853 66.846697,91.1363064 68.0301222,94.6923615 C68.3865293,96.4346 69.0188647,98.1212514 69.871176,99.6327651 C71.4301701,102.394609 71.6248527,105.317884 71.6670084,108.357664 C71.7022659,110.944371 71.4248048,113.505949 71.3504575,116.07971 C71.2945054,118.027545 71.2339545,119.984517 70.6430084,121.829554 C70.0053078,123.821554 70.1494036,126.115095 68.9468168,127.825352 C67.0068886,130.584912 66.1545772,133.857701 64.3288527,136.662187 C63.6850204,137.652095 62.7729246,138.573472 62.5828407,139.839031 C62.040182,140.343884 61.4967569,140.849499 60.9540982,141.355114 C60.5632,141.333031 60.3026012,141.504361 60.1746012,141.872912 C60.1746012,141.872912 60.0657629,141.968857 60.0657629,141.968857 C59.818194,141.958958 59.6970922,142.08993 59.6687329,142.323701 C59.6687329,142.323701 59.5698587,142.38538 59.5698587,142.38538 C59.2939305,142.348068 59.1337389,142.467618 59.0869844,142.739462 L59.0701222,142.750884 C58.4508168,142.724994 58.0284934,142.955719 57.932685,143.611343 C57.8023856,143.568701 57.7234395,143.613628 57.6958467,143.747646 C54.0497629,144.599728 51.5717749,147.75449 47.9410204,148.63627 C48.0169006,148.655306 48.1035114,148.658352 48.1648287,148.700233 C48.2223138,148.739829 48.2928287,148.820545 48.2897629,148.879939 C48.2322778,149.896499 47.3738347,149.776949 46.7407329,149.895738 C45.4584335,150.138646 44.1056192,150.140169 42.8846371,150.544508 C39.630218,151.623508 36.4961341,151.352426 33.2432479,150.43638 C30.8656671,149.76705 28.830697,148.560884 26.702218,147.440765 C25.4758707,146.795802 24.5392479,146.024435 23.8716551,144.814462 C22.5211401,142.37015 21.5546251,139.78649 20.5896431,137.171609 C19.7465293,134.888728 19.6162299,132.690371 19.7986491,130.332105 C20.0416192,127.191811 21.0625533,124.302802 22.2045892,121.419884 C22.744182,120.05838 22.6974275,118.654994 21.9003018,117.403903 C20.9023617,115.838325 16.4292599,114.08238 14.8603018,114.936747 C13.5810683,115.632728 12.6781701,115.242857 11.6618347,114.814912 C9.59773892,113.945316 8.25948743,114.573527 7.84712814,116.768077 C7.67773892,117.670417 7.8203018,118.651949 6.6820982,119.066949 C6.35098443,119.188022 6.4192,119.593123 6.35021796,119.88705 C5.87117605,121.930068 5.35227784,123.963949 4.91922395,126.016105 C4.37656527,128.58682 4.5574515,131.163628 5.55232575,133.569866 C6.35481677,135.511609 6.86451737,137.533306 7.59419401,139.488756 C8.67184671,142.377765 10.1618587,144.950765 12.9602299,146.544517 C13.0782659,146.693765 13.1955353,146.843774 13.3128048,146.993022 C13.2698826,147.190242 13.3549605,147.28771 13.552709,147.296848 C13.6799425,147.530618 13.807176,147.764389 13.9336431,147.997398 L13.8769246,148.156545 L14.0271521,148.254774 C14.2770204,149.281233 15.1446611,149.716793 15.9348886,150.227738 C15.9586491,150.490444 16.1004455,150.618371 16.3679425,150.601618 C16.3679425,150.601618 16.4484216,150.674719 16.4484216,150.674719 C16.7534754,151.334912 17.3160623,151.770472 17.904709,152.12227 C20.0960383,153.432756 22.2912,154.743242 24.5384814,155.955499 C25.8115832,156.643105 27.0072719,157.589609 28.5754635,157.578187 C28.7394874,157.620829 28.9035114,157.66271 29.0675353,157.704591 C29.1265533,157.917802 29.2430563,158.022884 29.4714635,157.91704 C29.6615473,157.997756 29.8516311,158.078472 30.041715,158.16071 C31.7310084,159.043251 33.5927569,158.810242 35.3908886,158.946545 C36.1305293,159.002894 36.942218,159.133105 37.5944814,158.556673 C37.9447569,158.555912 38.2950323,158.554389 38.6453078,158.553628 C40.4932599,158.916848 42.3619066,158.750086 44.2044934,158.615306 C49.4992479,158.229242 54.617715,156.903527 59.4372599,154.784361 C61.6600144,153.806637 64.0828168,153.03527 65.9989844,151.398114 C66.1231521,151.376031 66.1737389,151.302169 66.1499784,151.178811 C66.9639665,150.612279 67.7909844,150.063261 68.5873437,149.473123 C69.4726132,148.815976 70.4598228,147.904499 70.1478707,146.865095 C69.557691,144.902793 70.8875114,143.729371 71.5650683,142.283343 C72.0165174,141.318563 72.6105293,140.417747 73.1401581,139.487994 C75.6740982,137.129728 76.8912479,133.8676 78.8511042,131.109563 C80.3372838,129.017811 80.9933796,126.353435 82.1070563,123.984508 C82.4726611,123.20705 82.5784335,121.920169 83.6407569,121.933114 C84.5428886,121.943774 84.2133078,123.20705 84.6172359,123.842875 C85.278697,124.887609 85.7071521,126.083114 86.4069365,127.097389 C88.2533557,129.777756 89.8813317,132.589857 91.6127808,135.338756 C92.3516551,136.511417 92.9855234,137.857692 94.1628168,138.619921 C96.2330443,139.959343 97.6364455,141.89271 99.2123018,143.682921 C101.24344,145.360435 103.574266,145.593444 106.150362,145.517297 C108.977859,145.435059 111.685787,144.764967 114.411344,144.286004 C119.057667,143.46971 123.619679,142.188921 128.098913,140.672839 C129.11908,140.327894 129.836493,139.676077 130.012014,138.559004 C130.510218,137.606407 130.928709,136.599747 131.532685,135.717206 C131.981068,135.062343 131.79635,134.561297 131.495128,134.012279" id="Fill-1"></path>
                    <path d="M54.3204235,11.5688681 C54.3219529,11.5948403 54.3242471,11.6208125 54.3250118,11.6467847 C54.3242471,11.6208125 54.3219529,11.5948403 54.3204235,11.5688681 M54.5865412,15.2332431 L54.7035412,15.1415764 L54.6714235,14.9956736 L54.6714235,14.9949097 C54.9536,14.6870625 54.9536,14.3776875 54.6981882,14.0652569 C55.4468353,12.3938681 56.1557176,10.7041458 56.9609529,9.06102083 C57.3608941,8.24442361 57.7333059,7.14060417 58.6448353,6.95879861 C60.1298941,6.66088194 61.4360118,5.70602083 63.0136,5.82365972 C63.9213059,6.35838194 63.9266588,7.44997917 64.4864235,8.20011806 C64.5093647,8.81886806 64.6278941,9.45213194 64.5407176,10.0563681 C63.6636,16.1529653 64.2378941,22.3389375 63.1627176,28.4546319 C62.4698941,32.4001181 62.2160118,36.4433819 61.0070118,40.2788681 C60.1994824,42.8386597 60.0648941,45.5817847 58.8038941,48.0033125 C58.0177765,48.1469236 57.2324235,48.2897708 56.4463059,48.4333819 C56.4975412,48.5090069 56.5602471,48.5876875 56.6260118,48.6656042 C56.5602471,48.5876875 56.4975412,48.5090069 56.4463059,48.4333819 C55.6364824,47.9796319 54.8136588,47.5503264 54.0221882,47.0660208 C53.4991294,46.7459514 52.8659529,46.4190069 52.8445412,45.7192847 C52.7948353,44.0776875 52.1677765,42.5606042 51.9093059,40.9686597 C51.7854235,40.2070625 51.7548353,39.4217847 52.2702471,38.7350486 C52.8674824,37.9383125 52.9026588,37.0598403 52.7803059,36.0835903 C52.5019529,33.8469236 52.7963647,31.6262986 53.0999529,29.3995625 C53.5174824,26.3432431 53.8126588,23.2693542 54.1269529,20.2000486 C54.2049529,19.4407431 54.3058941,18.6287292 53.5801882,18.0527569 C53.6123059,17.7357431 53.6444235,17.4194931 53.6765412,17.1024792 C54.1001882,16.5379653 54.6981882,16.0582431 54.5865412,15.2332431 M41.5819529,45.0890764 C41.6071882,45.2945625 41.7953059,45.4824792 41.9069529,45.6772708 C41.8618353,46.0737292 41.8251294,46.4663681 42.2908353,46.6626875 C43.1985412,48.1026181 44.5834235,48.8642153 46.1480118,49.3699097 C47.4357765,50.7166458 48.9391882,51.7249792 50.7278353,52.2864375 C50.8341294,52.5377569 51.0054235,52.6645625 51.2876,52.5759514 C51.5927176,52.6256042 51.8970706,52.6760208 52.2014235,52.7264375 C54.3938353,54.1442153 56.9158353,54.1327569 59.3667176,54.2519236 C62.0722471,54.3833125 64.5567765,53.1343542 66.8210706,52.0030347 C69.9693647,50.4286597 72.3965412,47.6916458 73.1956588,44.1334514 C73.7271294,41.7623403 74.5407765,39.5539375 75.4874824,37.3585208 C75.8912471,36.4219931 76.1068941,35.4403958 76.3554235,34.4572708 C77.0077176,31.8822014 77.0872471,29.2284514 77.4933059,26.6197708 C77.8358941,24.4159514 78.3176588,22.1655347 77.2271882,19.9792847 C77.0390706,19.6011597 77.2027176,19.0580347 77.1576,18.5958819 C76.8777176,15.7587986 77.0666,12.8277569 75.3888353,10.2748403 C75.1020706,9.83713194 75.0217765,9.25046528 74.9070706,8.71879861 C74.6531882,7.53935417 74.0001294,6.50504861 73.1459529,5.80532639 C72.5341882,5.30345139 72.1411294,4.78629861 71.7060118,4.1614375 C70.5627765,2.51984028 69.0333647,1.40303472 66.8830118,1.43664583 C65.5508941,1.45803472 64.2654235,1.12803472 62.9623647,0.8820625 C61.1538353,0.540604167 59.3208353,0.0356736111 57.4702471,0.725465278 C54.8297176,0.963034722 52.4231882,2.06761806 49.9073059,2.76810417 C48.7808941,3.20734028 47.3019529,3.15234028 46.6657176,4.30734028 C46.0562471,5.4126875 45.1439529,6.22546528 44.4419529,7.22845139 C43.2880118,8.87921528 42.6357176,10.5842153 43.2276,12.6016458 C43.1916588,12.6459514 43.1258941,12.6917847 43.1266588,12.7353264 C43.1281882,12.8422708 43.1618353,12.9476875 43.1824824,13.0538681 C43.0287765,13.4037292 42.8177176,13.7398403 42.7313059,14.1049792 C42.0208941,17.1124097 41.5926588,20.2145625 40.5832471,23.1165764 C38.6997765,28.5287292 38.6233059,33.9561597 40.4142471,39.2552569 C41.0795412,41.2222708 41.3418353,43.1144236 41.5819529,45.0890764" id="Fill-6"></path>
                    <path d="M20.9130017,99.278651 C20.8603483,99.1445419 20.8394418,98.9406961 20.7457496,98.8985475 C20.8394418,98.9406961 20.8603483,99.1445419 20.9130017,99.278651 Z M6.55332005,93.8024023 C9.99592694,97.7038272 13.7172874,101.373818 16.6666553,105.725849 C18.1378548,107.896884 19.1491109,110.486339 21.438762,112.078788 C21.6369868,113.80688 23.0152684,114.800819 23.9676765,116.058379 C24.8589137,116.536574 25.2592348,117.621708 26.3061095,117.907552 C26.4532294,118.329804 26.6638432,118.704543 27.0966856,118.90609 L27.1113976,119.096142 L27.2910388,119.164346 L27.3103967,119.291558 L27.4366101,119.320679 C27.4428047,119.522226 27.5496602,119.611887 27.7502079,119.599626 C27.7540795,119.740632 27.8284138,119.806537 27.9708879,119.795808 C27.9677906,119.973598 28.0560626,120.061727 28.2357038,120.060195 C28.2349295,120.060195 28.255836,120.208098 28.255836,120.208098 L28.3967614,120.260975 C28.3774035,120.486278 28.4850334,120.59893 28.7111335,120.605827 L28.8551562,120.70775 C29.3933055,121.639616 30.4107561,121.299362 31.1959121,121.505507 C32.3310587,121.80208 33.5862242,122.138502 34.6965926,121.940787 C37.190663,121.49861 38.2259229,119.350566 37.3238453,116.976452 C37.0226365,116.182526 36.712136,115.378638 35.8758752,114.952554 C35.9052992,114.802352 35.8449026,114.705027 35.696234,114.662112 C34.5889628,112.870415 32.9249587,111.519362 31.7898121,109.733795 C30.4572151,107.635563 29.0859022,105.538097 27.4954581,103.632981 C26.2100943,102.092643 25.1802547,100.304011 23.4860523,99.1123557 C23.4512081,98.8449039 23.2955706,98.693169 23.0299804,98.6479551 C20.0852584,95.1105407 16.6550406,92.0559189 13.2023676,89.1039864 C13.5299031,88.1767179 14.0417256,87.5061725 14.6394972,86.8647479 C18.7402723,82.4636709 22.5088661,77.7828807 26.3053351,73.1296787 C29.4111148,69.3225134 32.4208793,65.4394807 35.4430328,61.5671767 C37.2688689,59.2283143 39.1171601,56.9001806 40.7935532,54.458629 C41.5105694,53.4156434 42.6883033,52.2454459 41.4780481,50.7618163 C41.4478498,50.4460852 41.4184258,50.1295877 41.3882275,49.8138566 C41.6360085,49.342559 41.7931946,48.8758594 41.3162162,48.4428786 C39.8589543,47.3500812 38.4365367,46.2028738 36.6718716,45.6028314 C35.6218997,45.1453279 34.5277919,45.4909461 33.4553648,45.4311718 C33.4770457,45.2802033 33.4104545,45.1897754 33.2571401,45.1629536 C32.0174609,44.8364938 31.1479045,44.9161929 30.2373095,46.1929114 C29.5791412,47.1155819 28.3286216,47.8405373 27.296459,48.5823521 C25.9143058,49.5747593 24.5290553,50.8323193 23.7880353,52.568074 C23.4070721,53.4608574 22.7705847,54.2494188 22.0133041,54.9858692 C17.6779114,59.2014925 13.9596482,63.9382253 10.3490148,68.7684513 C9.22006277,70.2789028 8.53169626,72.1970458 6.66404717,73.114352 C6.1220263,73.3810375 6.05853242,74.0071353 5.75577505,74.4554428 C4.26676627,76.6555981 3.04954224,79.0435061 0.990637219,80.8359698 C-0.293177945,81.9540564 -0.254462168,81.996205 0.677813741,83.6415318 C0.686331212,84.5787627 1.24848429,85.4439579 1.07194035,86.4003473 C0.883007359,87.4272397 1.43277139,88.0732623 1.99879605,88.8817485 C3.306615,90.7477806 5.08754074,92.140216 6.55332005,93.8024023 Z" id="Fill-4"></path>
                </g>
            </g>
        </g>
    </g>
</svg>