<svg width="200px" height="156px" viewBox="0 0 200 156" version="1.1" xmlns="http://www.w3.org/2000/svg" xmlns:xlink="http://www.w3.org/1999/xlink">
    <!-- Generator: Sketch 48.2 (47327) - http://www.bohemiancoding.com/sketch -->
    <title>publico</title>
    <desc>Created with Sketch.</desc>
    <defs></defs>
    <g id="06.Para-produtoes" stroke="none" stroke-width="1" fill="none" fill-rule="evenodd" transform="translate(-622.000000, -1067.000000)">
        <g id="publicoIcon" transform="translate(90.000000, 727.000000)" fill="#F7636B">
            <g id="conheça" transform="translate(426.000000, 324.000000)">
                <g id="publico" transform="translate(106.000000, 16.000000)">
                    <path d="M133.07923,29.0364058 C133.10173,29.0210563 133.12243,28.9912602 133.13503,28.9298621 C133.12243,28.9912602 133.10173,29.0210563 133.07923,29.0364058 M145.09423,27.7208621 C145.04023,27.4599204 145.00333,27.2016874 145.01683,26.9479689 C145.00333,27.2016874 145.04023,27.4599204 145.09423,27.7208621 M158.01013,65.9619204 C158.01823,65.914066 158.02093,65.8689204 158.00473,65.831901 C158.02093,65.8689204 158.01823,65.914066 158.01013,65.9619204 M153.72073,9.50550291 C153.85213,9.80797864 154.10413,9.92535728 154.41193,9.96057087 C155.17873,10.8869592 155.94553,11.8133476 156.71323,12.7397359 C158.55733,19.000532 158.98573,25.4554544 159.25573,31.9221146 C159.34753,34.1297359 159.25573,36.3436777 159.61843,38.5359495 C159.72283,39.1634738 159.83173,39.7557845 159.64003,40.4257456 C158.50873,44.3976583 157.99753,48.5032019 157.11103,52.5319981 C155.70973,58.9047553 153.67303,65.1005417 152.21053,71.452532 C151.90273,72.786134 151.34653,74.0682699 150.84343,75.3495029 C150.18913,77.0180854 149.18563,78.459134 147.85003,79.6582019 C147.80773,79.3006485 147.87163,78.8699592 147.69073,78.6081146 C145.74853,75.7783864 145.06723,72.5540854 144.52543,69.2349786 C143.95033,65.7199398 144.25813,62.0947456 143.15023,58.6555515 C143.17903,57.3824447 143.20603,56.1093379 143.23303,54.8362311 C143.05573,54.8290078 142.87663,54.8317165 142.69933,54.8127553 C142.87663,54.8317165 143.05573,54.8290078 143.23303,54.8362311 C143.47153,54.2818427 143.51293,53.7175223 143.31853,53.1414641 C144.22303,44.7470854 144.14743,36.2831825 145.13113,27.8951243 C145.59013,27.329901 145.75483,26.7285612 145.35523,26.0576971 C145.36063,25.3091825 145.36423,24.559765 145.36963,23.8112505 C145.27513,23.764299 145.21303,23.7047068 145.19053,23.6360854 C145.21303,23.7047068 145.27513,23.764299 145.36963,23.8112505 L145.44613,23.2676971 C145.69453,22.721435 145.62433,22.1652408 145.49833,21.6072408 C146.17693,19.9964447 145.99243,18.2845223 146.07793,16.6042019 C146.95993,15.7960951 146.47393,14.7857359 146.48293,13.8494155 C146.50993,13.6679301 146.53783,13.4855417 146.56573,13.3040563 C146.60443,13.1036097 146.64403,12.9031631 146.68363,12.7036194 C147.29293,12.3108524 147.81403,11.8178621 148.36033,11.3429301 C149.75803,10.1258039 151.12243,8.65134757 153.31213,9.36735728 C153.41203,9.52085243 153.54793,9.56780388 153.72073,9.50550291 M153.95653,9.52175534 C153.88453,9.50550291 153.80533,9.50008544 153.72073,9.50550291 C153.80623,9.50008544 153.88453,9.50550291 153.95653,9.52175534 M127.30033,56.0506485 C127.10413,56.9391146 127.20673,57.8086194 127.47043,58.6663864 C127.85743,58.3133476 127.95373,57.978367 127.91323,57.6524155 C127.95373,57.978367 127.85743,58.3133476 127.47043,58.6663864 C127.51183,59.4185126 127.55323,60.1697359 127.59553,60.9218621 C127.84753,64.2445806 128.09773,67.567299 128.34883,70.8900175 C128.74843,72.7617553 129.03013,74.6696097 129.57283,76.4980078 C130.63753,80.0852796 131.67523,83.7366583 134.70013,86.2828718 C136.31563,87.6426583 137.73043,89.1920563 139.15513,90.7306194 C140.09113,91.7400757 141.25393,92.2448039 142.52563,92.4028136 C144.70183,92.6718816 146.89693,92.7955806 149.08573,92.9454641 C149.79853,92.9942214 150.57343,93.1540369 151.11973,92.4488621 C152.83513,92.0840854 154.33993,91.3084835 155.84023,90.3802893 C158.19193,88.9275029 159.70663,86.8508039 161.08993,84.5483767 C163.17793,81.0757748 165.16693,77.5381631 165.98413,73.5490951 C167.10283,68.0810563 168.66613,62.7258816 169.63723,57.2136 C170.85853,50.2855515 172.58203,43.4721728 171.05743,36.3499981 C170.40853,33.3126 170.73523,30.1451825 170.51203,27.0445806 C170.17093,22.3015806 169.12063,17.8104932 167.88673,13.2950272 C166.96063,9.91091068 165.36493,6.90150291 162.74593,4.58192039 C157.94893,0.33191068 152.23483,-0.0825262136 146.26063,1.0054835 C145.55683,1.13369709 144.86023,1.53820194 144.13393,1.46235728 C140.64643,1.10209515 137.74843,3.06231845 134.55433,3.84243495 L134.50123,3.87764854 C132.75793,6.76787184 131.54293,9.80165825 131.97043,13.2796777 C131.95243,14.3965806 131.93533,15.5125806 131.91823,16.6294835 C131.62753,18.2854252 131.26843,19.9350466 131.49613,21.6352311 L131.44123,22.7647748 C130.84543,23.589134 130.70773,24.5245515 130.78243,25.511435 C130.51603,25.8093961 130.54753,26.1488913 130.64653,26.4974155 C130.19383,27.0048524 130.16323,27.6621728 130.01203,28.2779592 C128.71873,33.5437456 128.37403,38.9269107 128.03743,44.3109786 C127.72513,44.8229301 127.75303,45.3646777 127.90513,45.9154544 C127.25713,48.832765 127.09513,51.7934155 127.12933,54.7712214 C127.18603,55.198299 127.24363,55.6244738 127.30033,56.0506485" id="Fill-1"></path>
                    <path d="M65.6542975,41.1515612 C65.5684451,41.0323615 65.4979558,40.8364045 65.3931256,40.8156348 C65.4979558,40.8364045 65.5684451,41.0323615 65.6542975,41.1506581 L65.6542975,41.1515612 Z M66.1423002,45.2467922 C66.2001376,45.2197013 66.2525527,45.1664227 66.2923159,45.0824411 C66.2444194,44.9749808 66.2173081,44.8323024 66.1603744,44.7429027 C66.2173081,44.8323024 66.2453231,44.9740778 66.2932196,45.0824411 C66.2534564,45.1664227 66.2001376,45.2197013 66.1423002,45.2467922 Z M43.1383907,60.6560584 C43.1311611,60.547695 43.1203166,60.4420408 43.1013387,60.3372896 C43.1203166,60.4420408 43.1311611,60.547695 43.1383907,60.6560584 Z M43.1700205,61.295402 C43.1691168,61.2782445 43.1673094,61.262893 43.1664057,61.2466385 C43.1673094,61.262893 43.1691168,61.2782445 43.1700205,61.295402 Z M54.2820249,29.6776901 C54.2684693,29.7255505 54.3796255,29.8465563 54.4537296,29.8736471 C55.8318856,30.3558639 55.5670989,31.5532788 55.7107887,32.6170455 C56.3686887,37.506038 55.5725212,42.3534911 55.2137488,47.1982352 C55.0438515,49.4937319 55.5083579,52.1405063 53.2734858,53.9257923 C53.1234701,54.045895 53.2075151,54.4558696 53.1795001,54.731293 C52.9291727,57.2010741 52.6255265,59.6672429 52.4375551,62.1424421 C52.0688419,67.012471 51.3630452,71.8274151 49.9749484,76.5114203 C48.4196654,81.7643329 45.3958555,86.2912112 42.5988765,90.9237438 C42.3015563,90.9147135 42.0042361,90.9065863 41.7060122,90.897556 C41.4285735,90.9056832 41.1276385,90.9463195 40.8411628,90.9679922 C40.6983768,90.9797315 40.5583019,90.9860527 40.4263604,90.9815376 C40.5583019,90.9860527 40.6983768,90.9797315 40.8411628,90.9679922 C41.1276385,90.9463195 41.4285735,90.9056832 41.7060122,90.897556 C42.4208459,89.793153 42.895293,88.5496837 42.6666547,87.2764146 C42.1632889,84.463483 42.4145199,81.6081091 42.023214,78.7969836 C42.1063552,77.1345095 42.6512916,75.5171867 42.5139279,73.8321368 C42.87993,71.72447 42.7217809,69.6005486 42.7244921,67.4811424 C42.9224043,67.0973556 42.9612638,66.6982173 42.8383594,66.2837276 C42.5916469,66.5564419 42.3593937,66.7099567 42.1452147,66.7505929 C42.35849,66.7099567 42.5898394,66.557345 42.8347445,66.2846306 C43.3109991,65.8981347 43.1465241,65.4186269 43.0236197,64.9454404 C43.1040498,63.9168917 43.1853836,62.8892461 43.2658137,61.8616005 C44.1270482,59.8243698 43.8288243,57.6887091 43.8008093,55.5774301 C44.6421623,51.4000235 44.2246488,47.1422475 44.5770953,42.9296229 C44.8445931,39.7265833 45.170832,36.5551497 45.9019325,33.4261584 C46.3619203,31.4584609 47.0125907,29.5286905 47.1499544,27.4914598 C47.3062961,25.1706784 48.1575898,24.4265835 50.5542258,24.5214014 C51.0105988,24.539462 51.4660681,24.5810012 51.9215373,24.6117042 C52.2188575,26.5252201 54.9245619,27.3207875 54.2820249,29.6776901 Z M33.1641558,99.8727492 C33.8175374,100.476875 34.5323711,100.976249 35.1071299,101.711314 C36.000898,102.85545 37.2073494,103.708811 38.7969733,103.707005 C39.9049204,104.890875 41.3074765,105.215965 42.8130555,104.868299 C45.3822999,104.272301 47.9352775,103.584193 49.8222216,101.530708 C49.8213179,101.530708 49.8556588,101.517163 49.8556588,101.517163 C50.9193242,101.372678 51.4055196,100.433529 51.8067663,99.7174284 C53.9955492,95.8127363 56.4780375,91.9929287 58.0387427,87.8362918 C60.3820599,81.5999819 62.4524569,75.2264117 63.5920338,68.6099271 C63.8224796,67.27164 64.1550444,65.8863953 64.9539231,64.7512894 C68.0717187,60.3210351 69.2040659,55.2694976 69.7137577,50.0084577 C69.9306479,49.6653072 69.9414924,49.301387 69.8249139,48.9248244 C69.9469146,48.6810069 70.153864,48.4453166 70.1791678,48.1924688 C70.7042227,42.8826654 71.4488788,37.5620257 70.6481927,32.2359678 C70.3960579,30.5563361 70.7195857,28.7313169 69.5538013,27.1835273 C67.9650811,25.0722483 66.071811,23.2454231 64.230956,21.3815738 C62.9621487,20.0974683 61.3942138,19.2161131 59.5388995,18.7320902 C58.40113,18.4340911 57.1503969,18.4467335 56.0966723,17.8218382 C53.7958295,16.4573632 51.2030888,16.287594 48.6474001,16.1729095 C47.0171092,16.0997642 45.1464319,15.6744381 43.7718907,16.5106419 C42.1117774,17.522033 40.4489531,17.8362867 38.6162315,18.008765 C36.8494806,18.1749221 35.2725086,18.9768108 34.3443996,20.5164732 C33.6096843,21.7373667 32.8261687,22.4742374 31.3178786,22.3333651 C30.804572,22.2855046 30.1855314,22.4877828 29.7400029,22.7713335 C28.8308718,23.3501744 28.7052562,24.0238331 29.8258552,24.5710679 C29.8927297,24.9268609 29.9587004,25.2835568 30.0255749,25.6402528 C28.9998653,28.4974328 28.286839,31.4069883 27.9687335,34.451095 C27.8105844,35.9654726 28.1883347,37.7001889 27.2322108,38.9851975 C26.5508143,39.8999646 26.5218956,40.8255681 26.3818207,41.7999351 C25.5766161,47.4348285 25.2458586,53.1166794 24.7867745,58.7831787 C23.9535549,69.0469926 23.0751499,79.3424124 26.1784862,89.4120753 C27.4527157,93.5461365 29.4860607,97.2873806 33.1641558,99.8727492 Z" id="Fill-4"></path>
                    <path d="M113.035053,72.3688174 L113.035053,72.3679104 C113.185767,72.4350281 113.335579,72.5012389 113.485391,72.5674497 C113.335579,72.5012389 113.185767,72.4341211 113.035053,72.3688174 M108.55604,85.3388696 C108.470304,85.3515676 108.370129,85.3506606 108.278076,85.3579165 C108.370129,85.3506606 108.470304,85.3515676 108.55604,85.3379626 C108.871006,85.5855727 108.932374,85.9148125 108.935984,86.2540292 C108.932374,85.9148125 108.871006,85.5855727 108.55604,85.3388696 M97.2371239,23.2776232 C96.8932786,23.1751326 96.5557508,23.3111821 96.2281502,23.7556104 C96.5557508,23.3111821 96.8932786,23.1751326 97.2371239,23.2776232 M96.3554,97.7701658 C93.5324396,100.182777 90.7374562,99.2277095 89.8557323,95.543489 C89.4288589,94.8514506 89.0615491,94.1494352 88.7646329,93.4356288 C89.0615491,94.1494352 89.4288589,94.8514506 89.8557323,95.543489 C89.6228923,89.9890415 90.4107581,84.5271076 91.6363272,79.1495244 C93.1515927,72.5048669 94.5278761,65.8311855 95.4393818,59.0867583 C96.2904214,52.7831315 96.2236378,46.3969681 96.4149637,40.0398285 C96.5584582,35.27084 95.4827009,30.5036656 96.3942067,25.7265142 C96.4709175,25.3219937 96.1812212,24.8476344 96.0629962,24.4059271 C96.1180475,24.1891549 96.1721964,23.9723826 96.2281502,23.7556104 C96.7723462,23.7401915 97.3183471,23.7238656 97.8625431,23.7084466 C98.3435655,23.9614987 98.8029283,24.2689706 99.3065126,24.4594399 C101.933635,25.4562292 103.56893,27.398109 104.576099,29.9558396 C104.393798,30.7440197 105.048096,31.2918457 105.136539,32.0428389 C105.822425,37.8984094 106.895475,43.6786991 106.885547,49.6431091 C106.863888,61.1275008 105.952382,72.480378 103.428143,83.6872287 C103.22689,84.5851554 103.154691,85.8132289 102.557249,86.2585642 C101.059131,87.3777981 100.893977,89.0058571 100.37866,90.5178205 C99.9698361,91.7132421 99.5907941,92.9240827 99.2803407,94.1476212 C99.0366708,95.1099446 97.9365466,96.1566188 97.2362214,97.179711 C96.9411101,97.3747153 96.6216319,97.5416027 96.3554,97.7701658 M77.5314528,98.8903067 C79.6901871,102.261613 82.6033956,104.700527 86.3559113,106.103651 C89.1355525,107.42968 92.0830553,107.859597 95.1280259,107.769804 C96.2489072,107.941226 97.374301,108.250512 98.462693,107.62922 C98.6630437,107.526729 98.8760292,107.437843 99.0808924,107.340795 C98.8760292,107.437843 98.6630437,107.526729 98.462693,107.62922 C99.2604861,107.51131 100.094378,107.50224 100.85156,107.256444 C103.824332,106.289585 106.855766,105.401636 108.963059,102.824858 C110.254509,102.062074 111.075766,100.912909 111.869047,99.6512769 C112.811237,98.1547324 113.306699,96.4876725 114.015147,94.9085914 C115.356233,91.9164094 116.560143,88.8598306 117.287543,85.6418065 C118.740537,82.241476 118.985109,78.5853725 119.509451,74.9891307 C119.54555,74.7306367 119.580747,74.4730496 119.616846,74.2154626 C119.928202,73.9995974 120.035597,73.7030095 119.959789,73.3338618 C120.154725,72.9792261 120.153822,72.6082645 120.042817,72.2300469 C120.816243,71.2287226 120.661016,69.9471363 120.849635,68.8342514 C121.318023,66.0769816 122.203356,63.3850155 122.25931,60.5588139 C122.911804,57.265509 122.719575,53.9241333 122.807116,50.5990836 C123.040859,49.2784964 123.093202,47.9579093 122.789066,46.6400432 C122.937073,46.2690815 122.936171,45.8990269 122.777334,45.5316932 C122.810726,43.4537639 122.73943,41.3885325 122.045422,39.3985818 C122.091449,38.9995033 122.113108,38.6040528 121.864926,38.2521381 C121.90644,38.1832063 121.999396,38.0861577 121.979541,38.0480638 C121.909148,37.9129213 121.80085,37.7977327 121.706992,37.6743812 C121.788215,37.4966098 121.761141,37.3369784 121.626671,37.1963939 C121.563497,34.8472726 120.919126,32.6478057 119.936324,30.5345035 C119.984156,30.1490299 120.003108,29.7671843 119.750413,29.4325025 C119.269391,27.6157882 118.205366,26.056661 117.522188,24.3297393 C117.409378,24.1701079 117.296567,24.0104765 117.182855,23.8499381 C115.457311,20.7643355 112.647888,18.991157 109.595698,17.5045895 C109.177849,17.3014222 108.784367,17.1454188 108.299735,17.1535818 C103.651958,17.2288625 99.0023766,17.4955195 94.3545998,17.1082319 C92.3086755,16.9377166 90.2789959,17.8048054 88.1771178,17.09372 C87.6473615,16.9141346 86.0192859,16.9123207 86.0887769,17.8283873 C86.2620533,20.1385078 84.0392427,20.6464259 83.3136481,22.2091811 C83.0753931,22.4141624 82.9752177,22.6735634 83.0140244,22.9864773 C82.1873519,24.0032205 81.589007,24.9918469 82.7613297,26.2199204 C83.4183359,26.9083308 82.9346061,27.7990016 82.8948969,28.6107636 C82.8597002,29.316407 81.9761713,27.8334674 82.1187633,28.9735622 C82.2099139,29.6928106 82.0221979,30.4456178 81.9788788,31.1848201 C81.966244,31.4043133 82.0221979,31.6274345 82.0564921,31.9358133 C82.4680234,31.3988713 81.969854,30.6079702 82.7414752,30.109122 C83.3019158,33.0913271 83.1304444,35.9066447 83.0934427,38.7446372 C82.9544607,49.5796193 81.9806837,60.3239018 79.9934207,70.9702285 C79.0963547,75.7745898 78.1370175,80.5689742 77.1072867,85.3470326 C76.3654474,88.7927129 76.9529625,92.3490468 76.0712386,95.7910991 C75.7616877,97.0001257 76.4999171,98.1130106 77.5314528,98.8903067" id="Fill-6"></path>
                    <path d="M47.2031226,129.343681 C48.2842839,129.341867 49.2471226,129.892402 50.396929,129.798077 C53.0226065,129.580402 53.9845419,127.765542 54.8995097,125.71396 C55.3348645,124.739867 55.3258323,123.980728 54.5707355,123.233379 C53.7975742,122.466984 53.0244129,121.695147 53.0081548,120.491588 C53.2989935,119.9211 53.2718968,119.355147 52.9864774,118.791914 C53.0993806,118.463588 52.9413161,118.334798 52.636929,118.313937 C52.636929,118.314844 52.5601548,118.245007 52.5601548,118.245007 C52.0823484,117.407867 51.2703484,117.657286 50.5748645,117.685402 C46.1508645,117.857728 41.7331871,117.730751 37.3091871,117.613751 C33.2528,117.505821 29.1855742,117.804216 25.3306065,119.298914 C23.6217032,119.961007 22.0184774,120.993147 20.2617032,121.420333 C17.6197677,122.063379 15.7356387,123.765774 13.7115097,125.345728 C10.0895742,128.173681 7.53976774,131.916774 4.99628387,135.645356 C2.52957419,139.263286 0.89563871,143.256705 0.145058065,147.599309 C0.0168,148.341216 -0.181909677,149.049565 0.349187097,149.705309 C0.814348387,150.278519 2.17731613,149.806891 1.87563871,151.425844 C1.70673548,152.331007 3.47525161,152.218542 4.09667097,153.003984 C5.15705806,154.343588 6.87589677,154.760798 8.26957419,155.453728 C10.8248,156.724402 13.0909935,155.782053 14.5108645,152.565007 C15.9975742,149.195588 17.4617032,145.833426 19.680929,142.854007 C22.4890581,139.085519 25.0939613,135.132914 28.8983484,132.255077 C32.5546065,129.489705 36.3544774,127.087123 41.3059613,128.195449 C42.0953806,128.373216 42.9561548,128.2281 43.7844129,128.230821 C44.9242839,128.602681 46.0632516,128.972728 47.2031226,129.343681" id="Fill-8"></path>
                    <path d="M191.5312,122.539182 C191.527568,122.791909 191.608384,123.093727 191.676487,123.388273 C191.608384,123.093727 191.527568,122.791909 191.5312,122.539182 M194.857372,135.518273 C194.830131,135.625545 194.73297,135.761 194.684844,135.877364 C194.683936,135.877364 194.683936,135.877364 194.683936,135.876455 C194.73297,135.761 194.830131,135.625545 194.857372,135.518273 M194.211752,129.171909 C194.268051,129.267364 194.293476,129.432818 194.339786,129.551 L194.338878,129.551 C194.293476,129.432818 194.268051,129.267364 194.211752,129.171909 M198.109993,134.061 L197.852108,133.301909 C197.566074,131.803727 197.728614,130.196455 196.763361,128.866455 C196.729763,127.755545 195.456683,127.199182 195.506625,126.050091 C195.584717,125.696455 195.403108,125.567364 195.080752,125.561 L195.043522,125.516455 C193.596097,121.935545 192.094189,118.391909 189.400016,115.506455 C188.8452,114.912818 188.444752,114.170091 188.006166,113.473727 C185.262051,109.112818 182.398982,104.861 177.871464,102.092818 C177.666246,101.632818 177.252177,101.529182 176.812683,101.468273 C176.736407,101.150091 176.546625,100.972818 176.207924,100.980091 L176.160706,100.945545 C175.981821,100.411 175.572292,100.354636 175.097384,100.429182 C171.556005,98.3191818 167.770361,96.801 163.609694,97.1482727 C159.590683,97.4837273 155.59074,98.1673636 151.618039,98.8973636 C147.64443,99.6282727 143.660832,100.408273 139.947832,102.121909 C139.489269,102.051 139.141487,102.223727 138.882694,102.600091 C138.883602,102.599182 138.834568,102.615545 138.834568,102.615545 C138.078166,102.537364 137.368982,102.612818 136.822338,103.230091 C136.823246,103.230091 136.649809,103.333727 136.649809,103.333727 C136.34289,103.290091 136.190338,103.448273 136.131315,103.731 C136.132223,103.731 136.048683,103.777364 136.048683,103.777364 C134.541326,104.140091 133.059395,104.570091 131.740005,105.424636 L131.606522,105.511 C130.296211,105.752818 129.306441,106.558273 128.225867,107.274636 C125.906717,108.811909 124.843395,111.397364 122.945579,113.270091 C122.180097,113.413727 121.502694,113.728273 121.630729,114.639182 C121.749683,115.471909 122.503361,115.398273 123.130821,115.421909 C123.401418,115.432818 123.671108,115.441 123.940798,115.451 C125.300143,115.751 126.638602,115.642818 128.040625,116.361 C130.778384,117.763727 133.138395,115.439182 135.363108,114.411909 C137.256384,113.536455 139.008005,112.170091 141.093786,111.522818 C143.930522,110.798273 146.845349,110.411909 149.616706,109.391 C154.277706,107.675545 157.999786,109.820091 161.414039,112.610091 C163.324568,114.171 164.961775,116.064636 166.721568,117.808273 L171.185522,124.879182 C171.595051,125.450091 172.004579,126.021 172.414108,126.592818 C172.76189,127.751 173.08697,128.921909 174.011361,129.792818 L174.082189,129.916455 C174.045867,130.240091 174.202959,130.425545 174.50443,130.508273 C174.608855,130.703727 174.714189,130.899182 174.82043,131.095545 C174.903062,131.263727 174.98751,131.431 175.071051,131.599182 C176.002706,133.166455 176.908028,134.746455 177.451947,136.505545 C178.320947,139.311 180.193338,141.168273 182.904763,142.217364 C182.905671,142.549182 183.097269,142.710091 183.400556,142.771909 L183.408729,142.785545 C183.354246,143.174636 183.450499,143.728273 183.768315,143.721 C185.346499,143.689182 186.27997,144.793727 187.29789,145.670091 C188.0552,146.321 188.871533,146.445545 189.777763,146.662818 C191.80543,147.150091 193.296441,145.714636 195.098005,145.441 C196.785154,145.185545 199.373993,142.631 199.406683,141.025545 C199.456625,138.640091 199.396694,136.221 198.109993,134.061" id="Fill-11"></path>
                    <path d="M59.2383602,134.950246 C59.0618666,134.910273 58.881734,134.877567 58.7043307,134.84032 C58.881734,134.877567 59.0618666,134.910273 59.2383602,134.950246 M135.720118,143.169235 C135.834748,142.831282 135.875687,142.499688 135.649157,142.187172 L135.780163,142.012744 C135.780163,142.012744 135.594571,141.910086 135.594571,141.909178 C134.278148,139.389972 133.157323,136.779009 132.220269,134.103545 C129.285381,125.735565 122.907049,120.678983 115.518883,116.561767 C111.935336,114.405043 108.111612,112.969649 103.90033,112.68893 C103.90124,112.68893 103.805715,112.668943 103.805715,112.668943 C102.909601,112.015749 101.865195,112.19381 100.856271,112.113864 C93.7128302,111.546975 86.8632422,113.199494 80.0000079,114.80023 C73.1667957,116.394607 67.0450163,119.189081 62.4843862,124.77258 C61.7265555,125.700135 60.7622093,126.456896 59.9070342,127.308139 C55.2572476,131.938645 50.2007979,136.240283 47.5734091,142.510589 C47.3678032,143.002984 47.1176191,143.500829 46.4816964,143.659813 C44.7495121,144.094065 45.1579946,146.04729 44.1481603,147.035712 C43.7569632,147.417273 44.2154826,147.963267 44.654897,148.093179 C46.216956,148.552869 46.9493133,150.096371 48.436772,150.784996 C49.6822343,151.36097 51.0314094,151.967833 52.1604223,152.751848 C55.0261684,154.739596 57.0940543,154.399825 58.8480728,151.396401 C62.0950086,145.836523 66.1698265,140.94165 71.0406851,136.736311 C74.818921,133.473062 78.6999599,130.326099 82.5346011,127.12826 C82.5336913,127.12826 82.65287,127.065575 82.65287,127.065575 C83.6899971,126.760327 84.5287964,126.115309 85.3776031,125.485734 C91.8423623,123.351722 98.358068,121.956302 105.182183,123.783249 C106.852503,124.230219 108.380901,124.883414 109.433494,126.210699 C112.674971,130.297027 116.275804,134.190759 117.231962,139.618908 C117.569484,141.535794 118.491981,143.147432 119.913027,144.513781 C120.973808,145.533092 121.979093,146.627806 122.019123,148.266698 C122.037318,149.034361 122.59864,149.336884 123.308254,149.471339 C123.936898,149.590349 124.548258,149.800207 125.167805,149.969184 C125.48895,150.13271 125.812825,150.292602 126.131241,150.459761 C128.781374,151.854273 130.737359,151.456361 132.396763,149.151555 C132.70972,148.715486 132.925334,148.211281 133.185525,147.738873 C133.272862,147.577165 133.360199,147.417273 133.446626,147.255564 C134.338192,146.993922 134.320906,146.012768 134.862214,145.473132 C134.861304,145.473132 135.006866,145.511288 135.006866,145.511288 L135.086925,145.384102 C135.439002,145.445878 135.734674,145.435885 135.652796,144.942582 C136.09312,144.637334 136.041264,144.242146 135.858402,143.823338 C135.907529,143.747935 136.01761,143.646185 135.997595,143.60167 C135.929363,143.447229 135.816553,143.311866 135.720118,143.169235" id="Fill-14"></path>
                </g>
            </g>
        </g>
    </g>
</svg>