<svg width="166px" height="140px" viewBox="0 0 166 140" version="1.1" xmlns="http://www.w3.org/2000/svg" xmlns:xlink="http://www.w3.org/1999/xlink">
    <!-- Generator: Sketch 48.2 (47327) - http://www.bohemiancoding.com/sketch -->
    <title>qr</title>
    <desc>Created with Sketch.</desc>
    <defs></defs>
    <g id="06.Para-produtoes" stroke="none" stroke-width="1" fill="none" fill-rule="evenodd" transform="translate(-1059.000000, -768.000000)">
        <g id="qrIcon" transform="translate(90.000000, 727.000000)" fill="#E45D57">
            <g id="qrcode" transform="translate(852.000000, 0.000000)">
                <g id="qr" transform="translate(117.000000, 41.000000)">
                    <path d="M165.891461,41.1781536 C165.451882,37.9802292 165.700045,34.8195195 165.867746,31.6554267 C166.178585,25.7865039 164.73365,20.2093779 163.263306,14.632252 C162.667884,12.3723065 160.796075,10.8845654 158.973391,9.88822716 C157.246414,8.94517356 155.105268,8.44362128 152.98699,8.50790117 C152.435611,7.89977961 151.697898,7.89132173 150.987288,7.98266683 C150.453696,8.05117566 150.022587,8.00973205 149.66093,7.5978333 C148.473475,6.65393391 146.993814,7.08190263 145.666608,6.80871311 C141.942471,6.0424292 138.190383,5.7607818 134.348517,6.22596519 C131.349388,6.58880824 128.386678,7.140262 125.401948,7.5276329 C118.219622,8.46053704 111.1203,9.82140991 104.029448,11.2550205 C103.631371,11.3353704 103.085073,11.2338758 103.007999,11.811549 C102.94617,12.2750408 103.25108,12.6361923 103.635605,12.8560972 C103.927811,13.0227174 104.297938,13.0489369 104.596072,13.207945 C106.536486,14.2440353 107.33264,16.4557708 109.127374,17.6525608 C109.203602,17.7033081 109.201908,18.034857 109.117211,18.1380431 C108.130488,19.3483658 109.146008,19.4896123 109.958254,19.7966334 C110.926343,20.1628596 111.863095,20.6085898 112.828643,20.9824281 C114.859683,21.7673194 116.87463,22.1978255 119.11826,21.6599043 C122.039468,20.9587461 125.00133,20.3768439 128.010623,20.1146497 C129.126932,20.017384 130.250865,19.9141979 131.345153,19.6883725 C135.74348,18.7799962 140.235822,18.4949657 144.640078,17.5925099 C147.580766,16.9894631 147.97969,17.3692219 147.793356,20.4292828 C147.609563,23.4656617 148.031355,26.4572137 148.288835,29.4453827 C148.409952,30.8586944 147.922096,32.5367378 149.228974,33.8214897 C149.534731,34.1217445 149.330611,34.981065 149.284874,35.5773456 C149.262006,35.8759087 149.117174,36.2522844 148.722484,35.9571044 C148.815651,39.1567203 148.3405,42.1753376 148.207525,45.1973381 C148.153319,46.4372633 148.438749,47.8209724 147.322439,48.8612916 C146.915045,49.2410504 147.278397,49.621655 147.540958,49.9735028 C148.111817,50.7397867 148.696228,51.4866175 149.536425,51.9788661 C149.98532,52.2410604 150.442685,52.4491243 150.456237,53.0944605 C150.504514,55.3197287 151.97147,56.6856763 153.539216,57.9298304 C156.047101,59.9208153 158.842957,60.6270483 161.907303,59.3769736 C162.661955,59.0691068 163.652913,58.856814 163.878208,57.871471 C164.221231,56.3718889 164.907279,54.9907171 165.114787,53.427701 C165.410381,51.201587 164.751436,48.9103473 165.388359,46.7874195 C165.954137,44.9030039 166.141318,42.9974435 165.891461,41.1781536" id="Fill-1"></path>
                    <path d="M150.903801,120.934777 C151.007011,120.980594 151.127986,121.069682 151.223581,121.095136 C151.127986,121.069682 151.007011,120.980594 150.903801,120.934777 C150.903801,120.934777 150.903801,120.934777 150.903801,120.934777 M153.423975,81.0894518 C152.911311,80.869701 152.587301,81.0928457 152.269212,81.3490803 C150.288774,82.9433345 148.00632,82.4631067 145.812694,82.2195991 C143.756963,81.9905152 143.702821,81.9888182 144.042904,84.1464491 C144.158804,84.8863053 144.223098,85.4573181 145.16975,85.3851991 C145.224738,85.3809568 145.270421,86.0113617 145.414238,86.2998378 C146.250066,87.9763925 145.543673,89.6936732 145.596123,91.388894 C145.683259,94.2218982 145.527599,97.041327 145.260269,99.8539682 C144.827128,104.403405 143.481174,108.813694 143.259527,113.405553 C143.021807,118.347826 142.633502,123.282463 141.529498,128.34352 C140.210616,128.449577 138.709001,128.641329 137.143939,128.377458 C132.143352,127.536636 127.210443,128.273946 122.290225,129.152101 C122.290225,129.152101 122.15656,129.180949 122.15656,129.180949 C119.832653,129.124951 117.506209,129.346398 115.18484,129.069801 C113.906564,128.917078 112.640978,129.005318 111.346629,129.102891 C109.135238,129.270886 106.895083,129.684085 104.655775,129.209797 C103.786107,129.026529 101.012139,130.213523 101.000296,130.877867 C100.977454,132.201463 102.282801,132.425456 103.182078,132.948955 C103.627063,133.207735 104.078816,133.454636 104.511112,133.733779 C105.698022,134.503331 107.201328,134.979317 107.29777,136.768717 C107.322303,137.226036 107.749523,137.212461 108.062535,137.297307 C113.354139,138.729505 118.734571,139.383667 124.193679,138.769383 C128.045425,138.33582 131.855719,137.416939 135.766684,137.993891 C137.565237,138.259459 139.351946,138.331578 141.176725,138.271337 C145.30849,138.135584 149.433488,137.770747 153.584711,138.110979 C155.252137,138.246732 156.963555,137.893773 158.493932,136.931621 C160.328017,135.778565 161.08686,133.430879 160.139363,131.481969 C159.771362,130.725993 159.443968,130.002257 159.426202,129.066407 C159.286615,121.617787 160.164742,114.225165 160.740855,106.8283 C161.18584,101.106293 160.970115,95.4419821 160.742547,89.7445808 C160.547125,84.8659423 157.307868,82.7541281 153.423975,81.0894518" id="Fill-5"></path>
                    <path d="M24.8121329,95.8285654 C24.6707755,95.7665285 24.5302544,95.7061683 24.388897,95.6441314 C24.5302544,95.7061683 24.6716119,95.7665285 24.8121329,95.8285654 Z M62.9811574,131.187927 C62.9911946,130.703369 63.0873846,130.134138 62.4533671,129.89102 C61.9598707,129.139871 61.2371911,128.931963 60.4626526,129.263945 C59.470641,129.68982 58.4786295,129.539757 57.4581791,129.573291 C53.5185717,129.700718 49.7378869,128.486807 45.8074802,128.39459 C40.0310622,128.259617 34.2646814,127.716375 28.4941185,127.346669 C27.7873311,127.068341 27.0178112,126.86211 27.1257113,125.827603 C27.2745967,124.398239 27.040395,122.96636 27.2344478,121.521906 C27.571531,119.010249 27.6827768,116.475958 27.4519208,113.93999 C27.4845418,112.748713 27.7856583,111.564144 27.5472744,110.364484 C27.7279443,104.481876 27.8877033,98.5992679 28.0976484,92.7174982 C28.2783183,87.6547834 24.837226,85.8498447 20.8641612,85.0743833 C19.9750311,84.9008477 19.0240048,84.9503095 18.5840402,86.1197891 C18.4016974,86.602671 17.8312489,86.6705763 17.2624734,86.6420728 C16.511355,86.6035093 15.7510359,86.7326132 14.9965718,86.8047101 C14.0120881,86.8994422 12.6026957,87.9549079 12.6127329,88.7379143 C12.6570639,92.315935 11.804737,95.812637 11.7269485,99.3780826 C11.5303864,108.405291 11.2802924,117.434177 10.0373504,126.390127 C9.89599299,127.405352 10.1544513,127.726435 10.836982,128.146442 C12.3718397,129.092086 13.8038159,130.093059 14.2186875,132.071534 C14.390993,132.88975 15.0793788,133.28293 15.980219,133.648445 C20.3070957,135.403922 24.8639919,135.982374 29.4183788,136.575917 C33.5570577,137.114967 37.7459226,137.322874 41.8536534,138.022886 C47.6459637,139.009608 53.4667128,139.624108 59.316737,139.992138 C62.5411928,140.195016 65.0421325,136.429208 63.5649888,133.578025 C63.1450986,132.768192 62.9644287,132.046384 62.9811574,131.187927 Z" id="Fill-7"></path>
                    <path d="M77.8265159,10.9944539 C76.3922117,10.4362453 76.3007145,8.53733168 74.7715243,8.12223201 C73.5159786,7.78161594 72.7628206,6.85601062 72.092688,5.84420516 C71.6174106,5.12614967 71.1311196,4.42566897 70.2500349,4.14028795 C70.2093695,3.83816903 70.0373885,3.66493187 69.7315505,3.61890267 L69.7281617,3.61555509 C68.7504966,2.00369627 67.0933796,2.21040922 65.5557174,2.09491777 C64.0324576,0.720736994 61.9347983,0.377610247 60.1760177,0.327396577 C56.7829945,0.231990603 53.3323619,0.00351840286 49.9367971,0.600224186 C44.9705295,-0.108625461 39.9610548,-0.103604094 34.9880095,0.175081777 C32.0355287,0.339949994 29.0000225,0.587670768 26.1542885,1.6496899 C26.1551357,1.6496899 26.0331393,1.67144915 26.0331393,1.67144915 C24.6657637,1.77773476 23.267889,1.62541996 21.9479563,2.14178387 C20.4746811,2.19116064 19.1234022,1.69237152 17.7585681,1.24128538 C17.4933955,1.15424835 16.9986326,0.86468285 16.9198433,1.28815147 C16.6072277,2.97533079 15.618549,2.03549826 14.8196424,1.88569415 C13.5022514,1.63881027 12.1713052,1.49486441 10.8598446,1.1768445 C9.88556824,0.940003355 8.93924941,1.89489999 9.39080531,2.32506376 C10.6920996,3.56450453 9.8169453,4.72862478 9.49670491,5.87014889 C7.37617131,13.4381859 5.32087186,21.0237977 4.06193741,28.7834836 C3.7730433,30.5627213 2.62170285,32.0523935 2.64881315,33.8793342 C2.4488747,34.015748 2.2624914,34.1563463 2.47683219,34.420805 C2.18878528,34.927963 2.29892087,35.4853348 2.26503299,36.0251317 C0.0936675849,36.9783546 -0.172352212,37.6353168 0.818868049,39.6120616 C0.934086814,39.8413707 1.06709671,40.060637 1.201801,40.2799034 C1.82025467,41.2917089 1.98206926,42.1570578 0.612152029,42.7445577 C-0.345180359,43.1554729 -0.010537622,43.8191303 0.474906147,44.3857078 C0.807007294,44.7723531 1.36785158,45.0234215 1.57117881,45.4527483 C2.2887545,46.9733857 4.81085939,47.3817902 4.24747351,49.7058462 C4.20341928,49.8891261 4.6219345,50.3142685 4.90574543,50.4222279 C8.201341,51.6725483 11.3995089,53.3061664 15.0814262,53.1463195 C16.0734937,53.102801 16.4826898,53.2551158 17.4950899,53.9790296 C17.6187807,54.0677404 17.9678258,53.8509847 18.2126656,53.7756642 C18.5549331,54.0618821 18.9192278,53.9564334 19.2843696,53.8334099 C22.8646233,53.5413337 24.4903939,51.3921886 24.9436442,48.0805971 C25.6451232,42.9462493 25.441796,37.7474606 26.4109891,32.6089284 C27.0514699,29.2136473 26.9303207,25.6576826 26.5558598,22.1552791 C26.3576157,20.2990471 26.4999448,18.4043179 26.5287495,16.5271635 C26.5389158,15.8702013 26.4508073,15.0709671 27.4657491,14.9948097 C30.9578943,14.7345355 34.2602675,12.9109424 37.8989778,13.7813127 C38.3742552,13.8951303 38.9435714,13.794703 39.432404,13.6607998 C44.4113796,12.2983356 49.4733805,12.4966796 54.5396174,12.8632394 C59.9455802,13.2557429 65.3718757,13.4808675 70.6998964,14.5972848 C71.120106,14.6851587 71.550482,14.7311879 71.9783164,14.7755433 C72.5340775,14.833289 73.2431812,14.6416402 73.3355257,14.2273774 C73.6947371,12.6171924 75.0290721,12.8891831 76.1084008,12.6180293 C76.6811058,12.4740834 77.3037955,12.4171746 77.6901172,11.8531077 C77.8892085,11.5627053 78.1967409,11.1383998 77.8265159,10.9944539" id="Fill-9"></path>
                </g>
            </g>
        </g>
    </g>
</svg>