<svg width="181px" height="131px" viewBox="0 0 181 131" version="1.1" xmlns="http://www.w3.org/2000/svg" xmlns:xlink="http://www.w3.org/1999/xlink">
    <!-- Generator: Sketch 48.2 (47327) - http://www.bohemiancoding.com/sketch -->
    <title>relatorio</title>
    <desc>Created with Sketch.</desc>
    <defs></defs>
    <g id="06.Para-produtoes" stroke="none" stroke-width="1" fill="none" fill-rule="evenodd" transform="translate(-203.000000, -1079.000000)">
        <g id="relatorioIcon" transform="translate(90.000000, 727.000000)" fill="#E45D57">
            <g id="relatorio" transform="translate(0.000000, 324.000000)">
                <g transform="translate(113.000000, 28.000000)" id="Fill-1">
                    <path d="M150.432453,29.610649 C149.942199,30.1643967 149.278012,30.4318163 148.599406,30.6767259 C149.278012,30.4318163 149.942199,30.1643967 150.432453,29.610649 M180.147828,6.46489476 C179.702634,5.40331986 180.076633,3.99959191 180.076633,2.6453861 C179.524196,2.49772005 178.826665,2.27892217 178.114714,2.1276545 C177.31805,1.95747837 177.024258,1.37851937 176.579965,0.764444668 C175.950024,-0.104444029 173.116641,-0.238604045 172.228955,0.392578314 C171.042972,1.23715613 169.917369,2.16637182 168.765631,3.05867099 C168.362793,3.05777058 168.11316,3.28197088 167.938327,3.61782112 C167.293065,3.66734328 166.545066,3.40532606 166.153043,4.21208697 C166.009752,4.33814336 165.865559,4.46239894 165.721367,4.58755493 C165.03465,4.61726822 164.309181,4.54973801 163.907245,5.30157435 C163.7243,5.2556538 163.58191,5.31147878 163.479173,5.46904927 C163.02046,5.36460254 162.74289,5.62301814 162.501367,5.95526678 C160.086143,7.18161538 157.788976,8.66727999 155.196214,9.51005701 C151.967202,10.5581259 149.175275,12.5029959 146.086851,13.8319904 C145.736283,13.9823577 145.577671,14.3011003 145.383913,14.6225441 C144.570126,15.9758495 143.399463,16.7150802 141.760174,16.5052863 C141.149159,16.4269513 140.757135,16.8708498 140.268683,17.0833449 C139.813575,16.9599897 139.619817,17.313848 139.372887,17.5704628 C139.373788,17.5704628 139.161104,17.6028773 139.161104,17.6028773 C137.553358,17.6091801 136.182627,18.2205536 134.97141,19.2389092 C134.97141,19.2380088 134.781256,19.3163438 134.781256,19.3163438 C134.444206,19.2434112 134.256756,19.3757704 134.22251,19.7206247 C134.014332,19.8007605 133.806154,19.8808964 133.597075,19.9610322 C132.427313,20.4193373 131.131383,19.6566961 129.984151,20.3328986 C129.984151,20.3328986 129.81112,20.4229389 129.81112,20.4229389 C128.548535,20.1645233 128.03575,21.1414603 127.982579,21.9725321 C127.94563,22.5541923 128.407046,23.4086745 129.235251,23.7499272 C131.418867,24.6512304 133.542102,25.7803355 135.8627,26.2269353 C137.808398,26.6015028 139.624323,27.8602659 141.747557,27.2038723 C142.289181,27.035497 142.878568,27.0165885 143.2021,27.5955475 C143.62927,28.3581887 142.984008,28.7471627 142.537012,29.179356 C142.340549,29.3702414 142.12426,29.54582 141.901663,29.7060917 C136.474617,33.6318479 131.680216,38.3400541 126.263083,42.2865195 C124.430937,43.6209165 122.334738,45.0300468 121.487607,47.1468938 C120.639575,49.2637408 119.127356,50.4360652 117.532226,51.7830678 C115.357622,53.6207899 112.994667,55.1874907 110.738054,56.9036585 C107.678469,59.2330005 104.436841,61.3408434 101.508832,63.8205527 C99.0728794,65.8833755 96.0277136,66.9647593 93.6863875,69.1140208 C91.7965643,70.8490969 89.8941242,72.5715675 87.9997949,74.3021417 C87.4626778,74.7928612 86.9841389,75.4195415 86.1072681,75.0620816 C86.1081693,75.0620816 86.0549983,74.9594357 86.0549983,74.9594357 C84.803227,73.8708487 83.145013,73.6061303 81.7391359,72.8290827 C81.7400371,72.8299831 81.6273867,72.73364 81.6273867,72.73364 C81.340804,72.016019 80.6784196,71.9926085 80.0610954,71.8854606 C79.8826572,71.7846155 79.7042189,71.6828699 79.5248795,71.580224 C79.4816217,71.2623818 79.2986774,71.1408275 78.9868611,71.2011544 C78.9868611,71.2011544 78.9129624,71.0796001 78.9129624,71.0796001 L78.7732759,71.1075125 L78.6642303,70.9265316 L78.5092234,71.0967077 C75.7308137,69.4048509 72.9533053,67.7192968 70.0676524,66.2048193 C66.4195816,64.2887622 62.9968116,61.9369101 59.0540474,60.5989115 C58.1915958,60.3062806 57.0425617,59.6426838 56.4982349,60.5079709 C55.3645212,62.3150793 53.2962597,62.7805875 51.9048019,64.2617501 C47.6285924,68.8177882 44.1382322,73.9969051 39.9908948,78.6546888 C34.3763984,84.9602095 29.018745,91.4971338 23.6520796,98.0187513 C20.1509049,102.272254 16.032406,105.9522 12.5483542,110.213807 C12.2266247,110.217408 12.0617045,110.374979 12.0716177,110.703626 C11.7598014,110.806272 11.5930788,111.027771 11.5471174,111.346513 L11.5426114,111.350115 C10.9045595,111.767902 10.5188445,112.396383 10.1304259,113.024864 C9.9456792,113.023964 9.85375647,113.115805 9.85555887,113.300387 C9.85555887,113.300387 9.82581917,113.207646 9.82581917,113.211248 C9.65819536,113.48497 9.49147276,113.762294 9.32384895,114.039618 C9.3923404,114.181882 9.46263425,114.329548 9.54194014,114.466409 C9.46263425,114.329548 9.3923404,114.181882 9.32384895,114.039618 C7.88012132,115.220046 6.82571351,116.707512 5.93712709,118.325535 C4.88001566,118.811753 4.71149065,120.405466 3.05868387,120.495506 C3.3146256,118.180571 5.68208657,117.271164 6.37601308,114.885997 C3.92023419,117.073976 2.4314464,119.545581 0,121.940653 C1.48428177,121.817298 2.28905629,121.750668 3.07490553,121.684938 C3.37770983,122.436775 3.591295,123.121981 3.91753058,123.750462 C5.11703212,126.058195 8.30278565,126.610142 8.96607125,129.410394 C8.9795893,129.465319 9.12378183,129.486929 9.20489012,129.529247 C13.8623086,131.992749 17.8438246,131.36877 21.0205661,127.602385 C25.8744469,121.848812 31.1167462,116.450897 36.6276042,111.324904 C41.5400632,106.754459 45.8117666,101.582546 50.2033301,96.5573975 C55.1671577,90.8767563 59.8894628,84.9539067 64.3414069,78.8365701 C65.9049946,76.6882091 66.1807628,76.6981135 69.0240591,77.5994167 C70.4001964,78.8122593 71.9664877,79.7072596 73.6292077,80.4780044 C77.4980733,82.2716068 81.3381004,84.127337 85.1898432,85.9578558 L85.2952839,86.1865581 C85.2952839,86.1865581 85.5313992,86.1442392 85.5323004,86.1442392 C85.796353,86.2567896 86.0613067,86.3693399 86.3262605,86.4827907 C86.5506601,86.8006328 86.8210211,87.049144 87.2355746,87.0788573 C87.2346734,87.0788573 87.2499938,87.0941642 87.2499938,87.0941642 C90.1644852,88.8364436 93.1799113,89.3352667 96.202547,87.4858394 C99.8668395,85.2438364 103.609537,83.1197862 106.761044,80.1151421 C112.680147,74.4687162 119.327423,69.7325975 125.974698,65.0018812 C130.439259,61.8234593 134.954287,58.7125677 138.699688,54.6445479 C139.625224,53.6387979 140.727395,52.7870169 141.796222,51.9235306 C145.211783,49.1655969 148.703044,46.4950022 151.86086,43.4354335 C154.001218,41.3618058 155.892844,39.234154 154.705058,35.807221 C154.230124,34.4377084 153.330723,33.491385 152.54217,32.402798 C153.018005,31.4960924 153.801151,30.8595077 154.508596,30.1544923 C155.276421,29.3882495 155.407997,28.5481737 154.576186,27.7765285 C153.778621,27.0363974 152.892738,26.6222121 151.998745,27.6990938 C151.595907,28.1853114 151.176847,28.6580228 150.764997,29.1379375 C150.116131,29.3414285 149.540262,29.8861722 148.780548,29.221675 C148.112756,28.638214 147.300772,28.2141242 146.532947,27.7504168 C146.187786,27.5415234 145.510982,27.674783 145.572264,27.0688119 C145.635348,26.4556376 146.226538,26.3773025 146.75284,26.1612059 C148.350674,25.5057126 149.946705,24.905144 151.663497,24.6251187 C152.140234,24.5467837 152.374546,24.1055863 152.255588,23.5752491 C152.69177,22.6838503 153.47852,22.2255453 154.350885,21.8743882 C154.34728,22.0490663 154.339169,22.2759678 154.378822,21.8680854 C154.421179,21.8824918 154.499584,21.9095039 154.499584,21.9095039 L154.608629,21.7969535 C157.592513,20.8740407 160.234841,19.0714343 163.391756,18.5302922 C164.363253,18.3637177 165.442895,17.8297788 166.173771,16.9581889 C166.91456,16.9311768 167.729248,16.7988176 167.677879,17.9567356 C167.569735,20.4229389 167.765296,22.9512699 167.283152,25.3436401 C166.235954,30.5416655 166.035887,35.8990621 164.311885,40.9674294 C163.910849,42.1478575 163.725201,43.5200713 165.049069,44.1323452 C166.335086,44.7266111 166.833451,45.6459223 166.909153,46.8587649 C166.987557,48.1247312 167.942833,48.7180967 168.623241,49.5455668 C169.551481,50.6755723 171.219608,50.8907686 171.945076,52.2602813 C172.502921,53.064341 173.462703,52.948189 174.207097,53.0391297 C176.335739,53.2966449 179.361979,51.20681 179.411545,49.3897972 C179.499863,46.1942676 180.309144,43.032053 179.823395,39.8095114 C179.72967,39.1864327 179.818889,38.5237362 179.888282,37.8862511 C180.296527,34.1558823 180.402869,30.4102067 180.224431,26.6672322 C180.045091,22.9170546 180.314551,19.1605742 180.678637,15.4707235 C180.985046,12.3634335 181.404106,9.46953888 180.147828,6.46489476"></path>
                </g>
            </g>
        </g>
    </g>
</svg>