<svg width="52px" height="167px" viewBox="0 0 52 167" version="1.1" xmlns="http://www.w3.org/2000/svg" xmlns:xlink="http://www.w3.org/1999/xlink">
    <!-- Generator: Sketch 48.2 (47327) - http://www.bohemiancoding.com/sketch -->
    <title>vender</title>
    <desc>Created with Sketch.</desc>
    <defs></defs>
    <g id="06.Para-produtoes" stroke="none" stroke-width="1" fill="none" fill-rule="evenodd" transform="translate(-687.000000, -755.000000)">
        <g id="venderIcon" transform="translate(90.000000, 727.000000)" fill="#E45D57">
            <g id="venda" transform="translate(426.000000, 0.000000)">
                <g id="vender" transform="translate(197.500000, 112.500000) rotate(-15.000000) translate(-197.500000, -112.500000) translate(169.000000, 30.000000)">
                    <path d="M45.3629512,48.4787857 C45.2418262,48.4787857 45.1199887,48.4252143 44.9981512,48.3952143 C45.0551512,48.2880714 45.1121512,48.1809286 45.1691512,48.0737857 C45.2860012,48.1180714 45.4413262,48.1302143 45.5097262,48.2137857 C45.6208762,48.3502143 45.5453512,48.4787857 45.3629512,48.4787857 M28.1617762,128.653071 C27.8846137,128.433071 28.3612762,128.178071 28.3627012,127.900929 C28.5130387,127.927357 28.6227637,127.872357 28.6933012,127.736643 C28.8187012,127.638071 28.9462387,127.546643 29.0773387,127.463071 C29.3388262,127.2945 29.6095762,127.153786 29.8888762,127.035929 C29.6095762,127.153786 29.3388262,127.2945 29.0773387,127.463071 C28.9462387,127.546643 28.8187012,127.638071 28.6933012,127.736643 C29.3017762,127.931643 29.9879137,127.631643 30.5892637,128.000214 C29.9123887,128.822357 28.7923387,129.152357 28.1617762,128.653071 M17.6638012,121.443071 C17.6239012,121.5345 17.5455262,121.642357 17.5234388,121.725929 C17.5455262,121.642357 17.6239012,121.5345 17.6638012,121.443071 M40.9005637,106.513071 C40.7146012,106.593071 40.6013137,106.772357 40.5614137,107.007357 C40.5713887,107.165929 40.6120012,107.308786 40.6925137,107.406643 C40.6120012,107.308786 40.5713887,107.165929 40.5614137,107.006643 C40.6013137,106.771643 40.7146012,106.593071 40.9005637,106.513071 M54.6404137,39.1623571 C54.4223887,38.9959286 54.2528137,38.7173571 54.1480762,38.4559286 C52.9361137,35.4452143 50.0091637,34.3752143 47.6173012,32.7459286 C45.5959387,31.3695 43.0801012,31.2945 40.7680387,30.8273571 C38.7466762,30.4187857 36.6127387,30.5023571 34.5122887,30.5445 C32.3918887,30.5873571 30.3227887,30.1695 28.1674762,30.9137857 C25.8760762,31.7052143 23.5162762,32.3723571 21.1899637,33.0787857 C19.7428762,33.5187857 18.2430637,34.2045 17.0239762,35.2987857 C16.1468887,36.0866429 14.9335012,36.9830714 14.9449012,37.9652143 C14.9662762,39.7130714 13.9823137,40.9130714 13.4315512,42.3430714 C12.2160262,45.4973571 10.4661262,48.4616429 10.2188887,51.9587857 C10.1846887,52.4330714 10.2466762,53.3659286 9.64675125,53.4716429 C9.04967625,53.5766429 8.75897625,53.7559286 8.83450125,54.2637857 C8.95776375,55.1002143 9.73153875,53.7602143 9.94671375,54.5387857 C9.96595125,54.6073571 10.0144012,54.6673571 10.0493137,54.7316429 C9.79138875,55.9109286 9.92035125,57.0780714 10.1533387,58.2423571 C10.0087012,58.4759286 10.1326762,58.6187857 10.3207762,58.7402143 C10.3471387,59.1509286 10.3742138,59.5630714 10.4012887,59.9745 C10.5217012,62.4537857 11.7343762,64.5023571 12.9776887,66.5387857 C13.0339762,66.6787857 13.0909762,66.8195 13.1465512,66.9602143 C13.6517137,68.4730714 14.6363887,69.7095 15.4842637,71.0252143 C15.4842637,71.0252143 15.4842637,71.0259286 15.4835512,71.0259286 C16.6050262,70.7837857 17.0795513,71.3795 17.4130012,72.1073571 C17.0795513,71.3795 16.6050262,70.7837857 15.4835512,71.0266429 C16.2573262,72.1395 17.0311012,73.2509286 17.8048762,74.3630714 C17.9146012,74.9487857 18.2694262,75.3687857 18.7147387,75.7295 C18.7617637,76.2102143 19.2662137,76.2966429 19.4870887,76.6287857 C19.4336512,77.2609286 19.8383512,77.6995 20.1468637,78.1752143 C21.2369887,79.8523571 22.3313887,81.5266429 23.4236512,83.2016429 C25.4749387,86.9116429 27.4122262,90.6795 29.1457387,94.5502143 C29.1756637,95.0323571 28.9498012,95.5630714 29.4143512,95.9630714 C30.1097512,100.1195 30.8422012,104.273071 30.5208638,108.521643 C30.4895137,108.940929 30.3805012,109.575214 30.8115637,109.703071 C31.7805637,109.990929 31.4164762,110.631643 31.4606512,111.258071 C31.6451887,113.862357 30.8657137,116.233071 29.8518262,118.561643 C29.6972137,118.917357 29.3751637,119.101643 28.6719262,119.341643 C27.4350262,119.763071 26.6106638,120.791643 25.9109887,121.753786 C25.6259887,122.146643 25.3994137,122.343071 25.0773637,122.328786 C23.2483762,122.2495 21.6808762,121.761643 20.3214262,120.287357 C18.9235012,118.770929 17.8533262,117.043786 16.7446762,115.368071 C15.8597512,114.0295 14.8601137,112.506643 15.0403762,110.747357 C15.4201387,107.033786 16.2245512,103.472357 18.9819262,100.6495 C19.7400262,99.8737857 20.6078512,99.2145 21.3096637,98.3937857 C22.7631637,96.6945 22.3798387,95.0902143 20.5679512,93.8287857 C17.3602762,91.5952143 13.8676012,91.5373571 10.4525887,92.7137857 C6.70911375,94.0037857 3.64037625,96.3609286 1.85912625,100.120214 C0.87730125,102.192357 0.54100125,104.3945 0.11635125,106.6095 C-0.16508625,108.0745 0.07146375,109.283786 0.74833875,110.547357 C2.31227625,113.465929 3.97881375,116.313786 6.03793875,118.915214 C6.16333875,119.258786 6.28873875,119.602357 6.41413875,119.945214 C6.01870125,120.495929 6.24670125,120.775214 6.82738875,120.903071 C7.26058875,121.640929 7.81847625,122.246643 8.62075125,122.590214 C9.78925125,123.658786 11.1529762,124.418071 12.5651512,125.102357 C12.5644387,125.102357 12.6342637,125.1995 12.6342637,125.1995 L12.7482637,125.1645 C12.8857762,125.438071 13.0546387,125.6645 13.4123137,125.607357 L14.2202887,126.145214 L14.1668512,126.203786 C14.1668512,126.203786 14.2281262,126.152357 14.2288387,126.152357 C15.6004012,127.195214 17.0873887,128.055929 18.5993137,128.868071 C19.3082512,129.248071 20.1311887,129.300214 20.9213512,129.296643 C22.0756012,129.291643 23.2291387,129.195214 24.3833887,129.138071 C24.9911512,129.560214 25.6430887,129.381643 26.2743637,129.2445 C27.2098762,129.043071 28.1774512,128.928786 29.0780512,129.185929 C30.8080012,129.680214 32.2166137,129.147357 33.5425762,128.106643 C34.1189887,127.655214 34.7110762,127.252357 35.5012387,127.2595 C38.0420137,127.282357 39.5518012,125.703071 40.3341262,123.593071 C41.1926887,121.275214 42.3376762,119.256643 44.2920637,117.758786 C45.3601012,116.9395 45.8096887,115.847357 45.9814012,114.587357 C46.1951512,113.010929 45.6465262,111.1845 47.4641138,110.143786 C47.5025887,110.121643 47.4840637,110.005214 47.4983137,109.9345 C47.9792512,107.595214 48.5977012,105.210214 48.2742262,102.851643 C47.8217887,99.5437857 46.8278512,96.3452143 45.4498762,93.2687857 C44.2842262,90.6645 42.6868012,88.3116429 41.1805762,85.9352143 C39.2568262,82.8995 37.2105262,79.9223571 35.0701762,77.0159286 C33.3929512,74.7373571 31.5839137,72.5823571 29.7036262,70.4880714 C28.2807637,68.9045 27.1877887,67.1252143 26.1268762,65.3109286 C25.5433387,64.3123571 24.6135262,63.5980714 24.1461262,62.4723571 C22.5437137,58.6130714 22.4304262,54.8459286 24.0342637,50.9159286 C24.7325137,49.2066429 25.4763637,47.4887857 25.9544512,45.6495 C26.6662387,42.9152143 28.5800137,40.8373571 30.9084637,39.2695 C31.9736512,38.5530714 33.2511637,37.8895 34.5721387,38.1695 C36.2493637,38.5259286 37.8838387,38.3809286 39.5461012,38.2830714 C41.8310887,38.1487857 43.5368137,39.3002143 44.0035012,41.4930714 C44.4580762,43.6259286 44.6483137,45.8809286 44.2500262,47.9845 C43.6679137,51.0580714 42.5250637,53.9973571 39.5247262,55.7702143 C40.8449887,56.8866429 42.1474387,57.7823571 43.3943137,58.7280714 C44.8036387,59.7952143 46.7501887,59.3823571 47.8880512,60.8295 C48.0426637,61.0259286 48.5898637,60.9780714 48.9446887,60.9402143 C51.1342012,60.7059286 55.1377387,56.8223571 55.4818762,54.6245 C55.5146512,54.4159286 55.6208137,54.1702143 55.5495637,54.0023571 C55.0850137,52.9087857 55.4840137,51.8795 55.7070262,50.8245 C56.0511637,49.1973571 56.5228387,47.5709286 56.6225887,45.9245 C56.7693637,43.4816429 56.9638762,40.9287857 54.6404137,39.1623571" id="Fill-1"></path>
                    <path d="M31.9238948,24.4143898 C32.9015374,24.6603476 33.6002775,25.3819652 34.6172335,25.6731566 C36.1667749,26.1163047 37.585766,26.9389912 39.2977533,26.452023 C39.4001165,26.4230452 39.5566283,26.5764154 39.6901455,26.640732 C41.1135873,27.3255973 42.3946107,27.0428871 43.0570044,25.6929463 C43.9842072,23.8037359 46.1427354,22.5477962 46.15312,20.189287 C46.1538618,20.0253151 46.4297974,19.8613432 46.5803751,19.6994917 C47.7931564,18.3969048 48.5593968,16.82645 49.1164602,15.2220701 C49.6609137,13.6551492 50.8417992,12.3002609 50.9627065,10.6365118 C51.0784214,9.03495899 50.8900138,7.4143232 50.8670191,5.80146194 C50.8573762,5.11306279 50.4813028,4.61054554 50.0822347,4.09884022 C48.7173921,2.347451 46.6033697,1.55232877 44.7934698,0.376254655 C43.7609368,-0.29376834 42.8062888,-0.0676002407 42.1884008,1.04415732 C41.8078768,1.25618992 41.4369956,1.47811736 41.2530386,1.88804705 C40.6544365,1.93045356 40.0565761,1.97356686 39.4587157,2.01597338 C38.2333245,1.93964164 37.7600802,2.62097304 37.6376894,3.65639887 C36.4976008,5.02259555 35.9805925,6.63333649 35.9064163,8.3246498 C35.8522677,9.54313044 35.5770739,10.7100165 35.4027597,11.9002261 C34.3776443,13.9512881 34.1239616,16.2341723 33.2471986,18.3481373 C32.6990363,19.66698 31.9706258,20.8847539 31.4046612,22.1823933 C31.0263625,23.0503134 30.5308653,23.9274216 31.9238948,24.4143898" id="Fill-4"></path>
                    <path d="M25.75036,137.025717 C24.8328119,136.252044 23.8711711,135.032513 22.4574052,135.341129 C20.8602697,135.690277 19.6886637,135.095089 18.50306,134 C18.2035096,135.518903 17.0004088,135.518192 15.9022906,135.725121 C14.5207194,135.986093 14.0252014,136.596215 14.6348005,137.780902 C15.2814934,139.035988 14.9294517,140.175876 14.770578,141.35203 C14.3758433,144.285305 13.7991388,147.196535 13.4911898,150.136921 C13.2441307,152.497762 12.4651597,154.803849 12.7437136,157.220156 C12.7339152,157.366642 12.7248167,157.513839 12.7150183,157.660325 C11.6679917,159.470066 11.7316812,159.959301 13.1664436,161.134033 C13.1664436,161.133322 13.1776417,161.151099 13.1776417,161.151099 C13.1839407,161.437671 13.3204181,161.556425 13.6003717,161.489582 C14.9371504,161.71571 15.5383509,163.302878 16.9640148,163.363322 C17.2446683,163.982687 17.2110739,164.903557 18.1776139,164.912091 C19.9392222,164.927735 21.7337251,165.232795 23.443542,164.606319 C24.5612569,164.196016 25.490703,163.656294 26.0128165,162.322276 C27.0143507,159.761616 27.1753241,157.069404 27.6057528,154.421279 C28.2783414,150.281273 27.785623,146.086513 27.9927887,141.918774 C28.0907725,139.951169 27.1823229,138.233159 25.75036,137.025717" id="Fill-6"></path>
                </g>
            </g>
        </g>
    </g>
</svg>